font.ufo
<glyph name="exclam" format="1">
  <advance width="293"/>
  <unicode hex="0021"/>
  <outline>
    <contour>
      <point x="40" y="700" type="line"/>
      <point x="40" y="518" type="line"/>
      <point x="80" y="253" type="line"/>
      <point x="213" y="253" type="line"/>
      <point x="254" y="518" type="line"/>
      <point x="254" y="700" type="line"/>
    </contour>
    <contour>
      <point x="40" y="89" type="curve" smooth="yes"/>
      <point x="40" y="31"/>
      <point x="82" y="-8"/>
      <point x="141" y="-8" type="curve" smooth="yes"/>
      <point x="204" y="-8"/>
      <point x="245" y="31"/>
      <point x="245" y="89" type="curve" smooth="yes"/>
      <point x="245" y="146"/>
      <point x="204" y="185"/>
      <point x="141" y="185" type="curve" smooth="yes"/>
      <point x="82" y="185"/>
      <point x="40" y="146"/>
    </contour>
  </outline>
</glyph>
<glyph name="numbersign" format="1">
  <advance width="745"/>
  <unicode hex="0023"/>
  <outline>
    <contour>
      <point x="417.49501" y="286" type="line"/>
      <point x="312.08702" y="286" type="line"/>
      <point x="326.80884" y="406.0" type="line"/>
      <point x="432.38802" y="406.0" type="line"/>
    </contour>
    <contour>
      <point x="382.0" y="0" type="line"/>
      <point x="542" y="0" type="line"/>
      <point x="559.54351" y="143" type="line"/>
      <point x="689" y="143" type="line"/>
      <point x="708.0" y="286" type="line"/>
      <point x="577.08702" y="286" type="line"/>
      <point x="591.80884" y="406.0" type="line"/>
      <point x="722.0" y="406.0" type="line"/>
      <point x="740.0" y="549" type="line"/>
      <point x="609.35235" y="549" type="line"/>
      <point x="628" y="701.0" type="line"/>
      <point x="469.0" y="701.0" type="line"/>
      <point x="450.13552" y="549" type="line"/>
      <point x="344.35235" y="549" type="line"/>
      <point x="363.0" y="701.0" type="line"/>
      <point x="204.0" y="701.0" type="line"/>
      <point x="185.13552" y="549" type="line"/>
      <point x="55.0" y="549" type="line"/>
      <point x="37" y="406.0" type="line"/>
      <point x="167.38802" y="406.0" type="line"/>
      <point x="152.49501" y="286" type="line"/>
      <point x="23.0" y="286" type="line"/>
      <point x="4" y="143" type="line"/>
      <point x="134.7475" y="143" type="line"/>
      <point x="117.0" y="0" type="line"/>
      <point x="277" y="0" type="line"/>
      <point x="294.54351" y="143" type="line"/>
      <point x="399.7475" y="143" type="line"/>
    </contour>
  </outline>
</glyph>
<glyph name="dollar" format="1">
  <advance width="664"/>
  <unicode hex="0024"/>
  <note>
    dollar
  </note>
  <outline>
    <contour>
      <point x="334" y="534" type="curve" smooth="yes"/>
      <point x="395" y="534"/>
      <point x="504" y="491"/>
      <point x="575" y="452" type="curve"/>
      <point x="659" y="628" type="line"/>
      <point x="593" y="670"/>
      <point x="502" y="700"/>
      <point x="409" y="708" type="curve"/>
      <point x="409" y="864" type="line"/>
      <point x="243" y="864" type="line"/>
      <point x="243" y="698" type="line"/>
      <point x="125" y="669"/>
      <point x="54" y="592"/>
      <point x="54" y="483" type="curve" smooth="yes"/>
      <point x="54" y="237"/>
      <point x="417" y="297"/>
      <point x="417" y="206" type="curve" smooth="yes"/>
      <point x="417" y="181"/>
      <point x="395" y="170"/>
      <point x="361" y="170" type="curve" smooth="yes"/>
      <point x="290" y="170"/>
      <point x="166" y="219"/>
      <point x="94" y="279" type="curve"/>
      <point x="8" y="105" type="line"/>
      <point x="72" y="56"/>
      <point x="157" y="21"/>
      <point x="243" y="5" type="curve"/>
      <point x="243" y="-165" type="line"/>
      <point x="409" y="-165" type="line"/>
      <point x="409" y="-5" type="line"/>
      <point x="545" y="9"/>
      <point x="654" y="79"/>
      <point x="654" y="218" type="curve" smooth="yes"/>
      <point x="654" y="472"/>
      <point x="291" y="417"/>
      <point x="291" y="505" type="curve" smooth="yes"/>
      <point x="291" y="526"/>
      <point x="308" y="534"/>
    </contour>
  </outline>
</glyph>
<glyph name="ampersand" format="1">
  <advance width="706"/>
  <unicode hex="0026"/>
  <outline>
    <contour>
      <point x="586.0" y="-40.0" type="curve"/>
      <point x="699.0" y="69" type="line"/>
      <point x="664.370199121" y="100.982937118"/>
      <point x="632.574377149" y="130.569763314"/>
      <point x="603.40864" y="158.00925" type="curve"/>
      <point x="625.780447314" y="191.503195838"/>
      <point x="644.561722246" y="229.369632475"/>
      <point x="659.0" y="271.0" type="curve"/>
      <point x="518" y="372.0" type="line"/>
      <point x="510.301021022" y="336.254740459"/>
      <point x="498.443770039" y="303.004444122"/>
      <point x="483.4261" y="273.59096" type="curve"/>
      <point x="454.209032628" y="302.693445414"/>
      <point x="429.323228676" y="328.504739612"/>
      <point x="408.24381" y="351.66166" type="curve"/>
      <point x="488.685883911" y="392.626214416"/>
      <point x="567.0" y="444.771552674"/>
      <point x="567.0" y="544.0" type="curve" smooth="yes"/>
      <point x="567" y="642"/>
      <point x="475" y="711"/>
      <point x="346" y="711" type="curve" smooth="yes"/>
      <point x="213" y="711"/>
      <point x="130" y="643"/>
      <point x="130" y="532" type="curve" smooth="yes"/>
      <point x="130.0" y="482.624489313"/>
      <point x="142.638286432" y="438.865994818"/>
      <point x="181.04243" y="381.9324" type="curve"/>
      <point x="112.154479441" y="342.418311301"/>
      <point x="53.0" y="290.229327506"/>
      <point x="53.0" y="200.0" type="curve" smooth="yes"/>
      <point x="53" y="77"/>
      <point x="160" y="-10"/>
      <point x="308" y="-10" type="curve" smooth="yes"/>
      <point x="375.665496327" y="-10.0"/>
      <point x="439.380014381" y="10.3193168338"/>
      <point x="494.73677" y="47.4581" type="curve"/>
      <point x="523.029805752" y="20.2037324453"/>
      <point x="553.404254363" y="-8.88192816511"/>
    </contour>
    <contour>
      <point x="304.0" y="533.0" type="curve" smooth="yes"/>
      <point x="304" y="565"/>
      <point x="320" y="587"/>
      <point x="348" y="587" type="curve" smooth="yes"/>
      <point x="374" y="587"/>
      <point x="392" y="569"/>
      <point x="392" y="542" type="curve" smooth="yes"/>
      <point x="392.0" y="506.069462203"/>
      <point x="365.287951524" y="480.382482818"/>
      <point x="326.86039" y="457.2425" type="curve"/>
      <point x="310.475000684" y="486.237899879"/>
      <point x="304.0" y="510.09857962"/>
    </contour>
    <contour>
      <point x="317.0" y="145.0" type="curve" smooth="yes"/>
      <point x="270" y="145"/>
      <point x="236" y="173"/>
      <point x="236" y="217" type="curve" smooth="yes"/>
      <point x="236.0" y="239.748055251"/>
      <point x="248.301342995" y="258.296558362"/>
      <point x="268.16112" y="274.87237" type="curve"/>
      <point x="298.569277428" y="241.614370342"/>
      <point x="335.153934933" y="203.969875872"/>
      <point x="378.98423" y="160.40644" type="curve"/>
      <point x="359.135533153" y="150.414283531"/>
      <point x="338.263127323" y="145.0"/>
    </contour>
  </outline>
</glyph>
<glyph name="quotesingle" format="1">
  <advance width="288"/>
  <unicode hex="0027"/>
  <outline>
    <contour>
      <point x="60" y="701" type="line"/>
      <point x="60" y="407" type="line"/>
      <point x="228" y="407" type="line"/>
      <point x="228" y="701" type="line"/>
    </contour>
  </outline>
</glyph>
<glyph name="parenleft" format="1">
  <advance width="370"/>
  <unicode hex="0028"/>
  <outline>
    <contour>
      <point x="180" y="742" type="line"/>
      <point x="94" y="623"/>
      <point x="47" y="470"/>
      <point x="47" y="309" type="curve" smooth="yes"/>
      <point x="47" y="148"/>
      <point x="94" y="-5"/>
      <point x="180" y="-124" type="curve"/>
      <point x="382" y="-124" type="line"/>
      <point x="309" y="-5"/>
      <point x="258" y="148"/>
      <point x="258" y="309" type="curve" smooth="yes"/>
      <point x="258" y="470"/>
      <point x="309" y="623"/>
      <point x="382" y="742" type="curve"/>
    </contour>
  </outline>
</glyph>
<glyph name="parenright" format="1">
  <advance width="345"/>
  <unicode hex="0029"/>
  <outline>
    <contour>
      <point x="40" y="742" type="line"/>
      <point x="113" y="623"/>
      <point x="164" y="470"/>
      <point x="164" y="309" type="curve" smooth="yes"/>
      <point x="164" y="148"/>
      <point x="113" y="-5"/>
      <point x="40" y="-124" type="curve"/>
      <point x="242" y="-124" type="line"/>
      <point x="328" y="-5"/>
      <point x="375" y="148"/>
      <point x="375" y="309" type="curve" smooth="yes"/>
      <point x="375" y="470"/>
      <point x="328" y="623"/>
      <point x="242" y="742" type="curve"/>
    </contour>
  </outline>
</glyph>
<glyph name="plus" format="1">
  <advance width="520"/>
  <unicode hex="002B"/>
  <outline>
    <contour>
      <point x="490.0" y="259" type="line"/>
      <point x="490.0" y="399.0" type="line"/>
      <point x="330" y="399.0" type="line"/>
      <point x="330" y="559" type="line"/>
      <point x="190.0" y="559" type="line"/>
      <point x="190.0" y="399.0" type="line"/>
      <point x="30.0" y="399.0" type="line"/>
      <point x="30.0" y="259" type="line"/>
      <point x="190.0" y="259" type="line"/>
      <point x="190.0" y="99.0" type="line"/>
      <point x="330" y="99.0" type="line"/>
      <point x="330" y="259" type="line"/>
    </contour>
  </outline>
</glyph>
<glyph name="comma" format="1">
  <advance width="265"/>
  <unicode hex="002C"/>
  <outline>
    <contour>
      <point x="122.0" y="-110.0" type="line"/>
      <point x="209.0" y="16" type="line" smooth="yes"/>
      <point x="225" y="39"/>
      <point x="236" y="65"/>
      <point x="236" y="96" type="curve" smooth="yes"/>
      <point x="236" y="162"/>
      <point x="188" y="197"/>
      <point x="134" y="197" type="curve" smooth="yes"/>
      <point x="74" y="197"/>
      <point x="31" y="155"/>
      <point x="31" y="95" type="curve" smooth="yes"/>
      <point x="31.0" y="63.863532005"/>
      <point x="43.2341228708" y="35.4126031768"/>
      <point x="69.65835" y="16.68595" type="curve"/>
      <point x="18" y="-110.0" type="line"/>
    </contour>
  </outline>
</glyph>
<glyph name="hyphen" format="1">
  <advance width="380"/>
  <unicode hex="002D"/>
  <outline>
    <contour>
      <point x="50" y="374" type="line"/>
      <point x="50" y="243" type="line"/>
      <point x="329" y="243" type="line"/>
      <point x="329" y="374" type="line"/>
    </contour>
  </outline>
</glyph>
<glyph name="period" format="1">
  <advance width="265"/>
  <unicode hex="002E"/>
  <outline>
    <contour>
      <point x="30" y="89" type="curve" smooth="yes"/>
      <point x="30" y="31"/>
      <point x="72" y="-8"/>
      <point x="131" y="-8" type="curve" smooth="yes"/>
      <point x="194" y="-8"/>
      <point x="235" y="31"/>
      <point x="235" y="89" type="curve" smooth="yes"/>
      <point x="235" y="146"/>
      <point x="194" y="185"/>
      <point x="131" y="185" type="curve" smooth="yes"/>
      <point x="72" y="185"/>
      <point x="30" y="146"/>
    </contour>
  </outline>
</glyph>
<glyph name="slash" format="1">
  <advance width="373"/>
  <unicode hex="002F"/>
  <outline>
    <contour>
      <point x="280" y="808" type="line"/>
      <point x="-50" y="-106" type="line"/>
      <point x="138" y="-106" type="line"/>
      <point x="467" y="808" type="line"/>
    </contour>
  </outline>
</glyph>
<glyph name="zero" format="1">
  <advance width="617"/>
  <unicode hex="0030"/>
  <note>
    zero
  </note>
  <outline>
    <contour>
      <point x="25" y="351" type="curve" smooth="yes"/>
      <point x="25" y="121"/>
      <point x="125" y="-6"/>
      <point x="309" y="-6" type="curve" smooth="yes"/>
      <point x="491" y="-6"/>
      <point x="592" y="121"/>
      <point x="592" y="351" type="curve" smooth="yes"/>
      <point x="592" y="581"/>
      <point x="491" y="708"/>
      <point x="309" y="708" type="curve" smooth="yes"/>
      <point x="125" y="708"/>
      <point x="25" y="581"/>
    </contour>
    <contour>
      <point x="373" y="351" type="curve" smooth="yes"/>
      <point x="373" y="204"/>
      <point x="358" y="150"/>
      <point x="309" y="150" type="curve" smooth="yes"/>
      <point x="259" y="150"/>
      <point x="244" y="204"/>
      <point x="244" y="351" type="curve" smooth="yes"/>
      <point x="244" y="499"/>
      <point x="259" y="552"/>
      <point x="309" y="552" type="curve" smooth="yes"/>
      <point x="358" y="552"/>
      <point x="373" y="499"/>
    </contour>
  </outline>
</glyph>
<glyph name="one" format="1">
  <advance width="617"/>
  <unicode hex="0031"/>
  <note>
    one
  </note>
  <outline>
    <contour>
      <point x="436" y="0" type="line"/>
      <point x="436" y="701" type="line"/>
      <point x="82" y="701" type="line"/>
      <point x="82" y="518" type="line"/>
      <point x="204" y="518" type="line"/>
      <point x="204" y="0" type="line"/>
    </contour>
  </outline>
</glyph>
<glyph name="two" format="1">
  <advance width="617"/>
  <unicode hex="0032"/>
  <note>
    two
  </note>
  <outline>
    <contour>
      <point x="13" y="602" type="curve"/>
      <point x="99" y="435" type="line"/>
      <point x="167" y="490"/>
      <point x="237" y="525"/>
      <point x="290" y="525" type="curve" smooth="yes"/>
      <point x="321" y="525"/>
      <point x="338" y="512"/>
      <point x="338" y="488" type="curve" smooth="yes"/>
      <point x="338" y="464"/>
      <point x="314" y="429"/>
      <point x="285" y="399" type="curve" smooth="yes"/>
      <point x="40" y="146" type="line"/>
      <point x="41" y="0" type="line"/>
      <point x="591" y="0" type="line"/>
      <point x="591" y="178" type="line"/>
      <point x="335" y="178" type="line"/>
      <point x="443" y="285" type="line" smooth="yes"/>
      <point x="522" y="363"/>
      <point x="581" y="441"/>
      <point x="581" y="522" type="curve" smooth="yes"/>
      <point x="581" y="636"/>
      <point x="471" y="712"/>
      <point x="326" y="712" type="curve" smooth="yes"/>
      <point x="216" y="712"/>
      <point x="113" y="671"/>
    </contour>
  </outline>
</glyph>
<glyph name="three" format="1">
  <advance width="617"/>
  <unicode hex="0033"/>
  <note>
    three
  </note>
  <outline>
    <contour>
      <point x="389" y="425" type="line"/>
      <point x="552" y="570" type="line"/>
      <point x="552" y="700" type="line"/>
      <point x="40" y="700" type="line"/>
      <point x="40" y="532" type="line"/>
      <point x="278" y="532" type="line"/>
      <point x="145" y="404" type="line"/>
      <point x="145" y="284" type="line"/>
      <point x="276" y="284" type="line" smooth="yes"/>
      <point x="331" y="284"/>
      <point x="359" y="263"/>
      <point x="359" y="222" type="curve" smooth="yes"/>
      <point x="359" y="181"/>
      <point x="331" y="161"/>
      <point x="276" y="161" type="curve" smooth="yes"/>
      <point x="211" y="161"/>
      <point x="150" y="194"/>
      <point x="94" y="259" type="curve"/>
      <point x="2" y="83" type="line"/>
      <point x="73" y="27"/>
      <point x="186" y="-10"/>
      <point x="295" y="-10" type="curve" smooth="yes"/>
      <point x="472" y="-10"/>
      <point x="586" y="86"/>
      <point x="586" y="223" type="curve" smooth="yes"/>
      <point x="586" y="328"/>
      <point x="517" y="397"/>
      <point x="421" y="418" type="curve" smooth="yes"/>
    </contour>
  </outline>
</glyph>
<glyph name="four" format="1">
  <advance width="617"/>
  <unicode hex="0034"/>
  <note>
    four
  </note>
  <outline>
    <contour>
      <point x="204" y="702" type="line"/>
      <point x="24" y="286" type="line"/>
      <point x="24" y="136" type="line"/>
      <point x="323" y="136" type="line"/>
      <point x="323" y="0" type="line"/>
      <point x="534" y="0" type="line"/>
      <point x="534" y="136" type="line"/>
      <point x="614" y="136" type="line"/>
      <point x="614" y="301" type="line"/>
      <point x="534" y="301" type="line"/>
      <point x="534" y="436" type="line"/>
      <point x="323" y="436" type="line"/>
      <point x="323" y="301" type="line"/>
      <point x="255" y="301" type="line"/>
      <point x="422" y="702" type="line"/>
    </contour>
  </outline>
</glyph>
<glyph name="five" format="1">
  <advance width="617"/>
  <unicode hex="0035"/>
  <note>
    five
  </note>
  <outline>
    <contour>
      <point x="69" y="702" type="line"/>
      <point x="69" y="281" type="line"/>
      <point x="267" y="281" type="line" smooth="yes"/>
      <point x="318" y="281"/>
      <point x="343" y="261"/>
      <point x="343" y="223" type="curve" smooth="yes"/>
      <point x="343" y="182"/>
      <point x="318" y="161"/>
      <point x="267" y="161" type="curve" smooth="yes"/>
      <point x="204" y="161"/>
      <point x="147" y="194"/>
      <point x="96" y="259" type="curve"/>
      <point x="4" y="83" type="line"/>
      <point x="82" y="27"/>
      <point x="195" y="-10"/>
      <point x="295" y="-10" type="curve" smooth="yes"/>
      <point x="476" y="-10"/>
      <point x="593" y="88"/>
      <point x="593" y="239" type="curve" smooth="yes"/>
      <point x="593" y="367"/>
      <point x="483" y="450"/>
      <point x="313" y="450" type="curve" smooth="yes"/>
      <point x="281" y="450" type="line"/>
      <point x="281" y="524" type="line"/>
      <point x="560" y="524" type="line"/>
      <point x="560" y="702" type="line"/>
    </contour>
  </outline>
</glyph>
<glyph name="seven" format="1">
  <advance width="617"/>
  <unicode hex="0037"/>
  <note>
    seven
  </note>
  <outline>
    <contour>
      <point x="608" y="701" type="line"/>
      <point x="29" y="701" type="line"/>
      <point x="29" y="425" type="line"/>
      <point x="233" y="425" type="line"/>
      <point x="233" y="523" type="line"/>
      <point x="353" y="523" type="line"/>
      <point x="122" y="0" type="line"/>
      <point x="367" y="0" type="line"/>
      <point x="608" y="546" type="line"/>
    </contour>
  </outline>
</glyph>
<glyph name="nine" format="1">
  <advance width="617"/>
  <unicode hex="0039"/>
  <note>
    nine
  </note>
  <outline>
    <contour>
      <point x="220" y="465" type="curve" smooth="yes"/>
      <point x="220" y="512"/>
      <point x="243" y="536"/>
      <point x="288" y="536" type="curve" smooth="yes"/>
      <point x="335" y="536"/>
      <point x="358" y="510"/>
      <point x="358" y="466" type="curve" smooth="yes"/>
      <point x="358" y="421"/>
      <point x="334" y="395"/>
      <point x="287" y="395" type="curve" smooth="yes"/>
      <point x="242" y="395"/>
      <point x="220" y="420"/>
    </contour>
    <contour>
      <point x="588" y="360" type="curve" smooth="yes"/>
      <point x="588" y="575"/>
      <point x="472" y="711"/>
      <point x="281" y="711" type="curve" smooth="yes"/>
      <point x="121" y="711"/>
      <point x="15" y="616"/>
      <point x="15" y="466" type="curve" smooth="yes"/>
      <point x="15" y="328"/>
      <point x="102" y="234"/>
      <point x="235" y="234" type="curve" smooth="yes"/>
      <point x="302" y="234"/>
      <point x="348" y="259"/>
      <point x="378" y="292" type="curve"/>
      <point x="378" y="206"/>
      <point x="333" y="160"/>
      <point x="243" y="160" type="curve" smooth="yes"/>
      <point x="190" y="160"/>
      <point x="144" y="175"/>
      <point x="107" y="206" type="curve"/>
      <point x="23" y="52" type="line"/>
      <point x="83" y="14"/>
      <point x="174" y="-10"/>
      <point x="256" y="-10" type="curve" smooth="yes"/>
      <point x="458" y="-10"/>
      <point x="588" y="136"/>
    </contour>
  </outline>
</glyph>
<glyph name="greater" format="1">
  <advance width="520"/>
  <unicode hex="003E"/>
  <outline>
    <contour>
      <point x="490" y="244" type="line"/>
      <point x="490" y="422" type="line"/>
      <point x="30" y="607" type="line"/>
      <point x="30" y="451" type="line"/>
      <point x="346" y="333" type="line"/>
      <point x="30" y="215" type="line"/>
      <point x="30" y="59" type="line"/>
    </contour>
  </outline>
</glyph>
<glyph name="question" format="1">
  <advance width="498"/>
  <unicode hex="003F"/>
  <outline>
    <contour>
      <point x="174" y="461" type="line"/>
      <point x="174" y="517"/>
      <point x="191" y="544"/>
      <point x="228" y="544" type="curve" smooth="yes"/>
      <point x="258" y="544"/>
      <point x="272" y="528"/>
      <point x="272" y="495" type="curve" smooth="yes"/>
      <point x="272" y="411"/>
      <point x="162" y="398"/>
      <point x="162" y="247" type="curve"/>
      <point x="329" y="247" type="line"/>
      <point x="329" y="357"/>
      <point x="479" y="382"/>
      <point x="479" y="529" type="curve" smooth="yes"/>
      <point x="479" y="643"/>
      <point x="394" y="709"/>
      <point x="249" y="709" type="curve" smooth="yes"/>
      <point x="94" y="709"/>
      <point x="2" y="617"/>
      <point x="2" y="462" type="curve"/>
    </contour>
    <contour>
      <point x="139" y="89" type="curve" smooth="yes"/>
      <point x="139" y="31"/>
      <point x="181" y="-8"/>
      <point x="240" y="-8" type="curve" smooth="yes"/>
      <point x="303" y="-8"/>
      <point x="344" y="31"/>
      <point x="344" y="89" type="curve" smooth="yes"/>
      <point x="344" y="146"/>
      <point x="303" y="185"/>
      <point x="240" y="185" type="curve" smooth="yes"/>
      <point x="181" y="185"/>
      <point x="139" y="146"/>
    </contour>
  </outline>
</glyph>
<glyph name="A" format="1">
  <advance width="799"/>
  <unicode hex="0041"/>
  <outline>
    <contour>
      <point x="809" y="10" type="move" name="ogonek"/>
    </contour>
    <contour>
      <point x="400" y="701" type="move" name="abvm"/>
    </contour>
    <contour>
      <point x="398.0" y="470.0" type="line"/>
      <point x="469.53191" y="265" type="line"/>
      <point x="323.85106" y="265" type="line"/>
    </contour>
    <contour>
      <point x="562" y="0" type="line"/>
      <point x="809.0" y="0" type="line"/>
      <point x="524" y="701.0" type="line"/>
      <point x="286" y="701.0" type="line"/>
      <point x="-10" y="0" type="line"/>
      <point x="228.0" y="0" type="line"/>
      <point x="263.80851" y="99.0" type="line"/>
      <point x="527.45532" y="99.0" type="line"/>
    </contour>
  </outline>
</glyph>
<glyph name="B" format="1">
  <advance width="724"/>
  <unicode hex="0042"/>
  <outline>
    <contour>
      <point x="50" y="701" type="line"/>
      <point x="50" y="0" type="line"/>
      <point x="422" y="0" type="line" smooth="yes"/>
      <point x="593" y="0"/>
      <point x="704" y="77"/>
      <point x="704" y="197" type="curve" smooth="yes"/>
      <point x="704" y="285"/>
      <point x="649" y="355"/>
      <point x="565" y="374" type="curve"/>
      <point x="637" y="396"/>
      <point x="683" y="455"/>
      <point x="683" y="524" type="curve" smooth="yes"/>
      <point x="683" y="631"/>
      <point x="574" y="701"/>
      <point x="405" y="701" type="curve" smooth="yes"/>
    </contour>
    <contour>
      <point x="445" y="482" type="curve" smooth="yes"/>
      <point x="445" y="451"/>
      <point x="424" y="431"/>
      <point x="392" y="431" type="curve" smooth="yes"/>
      <point x="281" y="431" type="line"/>
      <point x="281" y="531" type="line"/>
      <point x="392" y="531" type="line" smooth="yes"/>
      <point x="424" y="531"/>
      <point x="445" y="512"/>
    </contour>
    <contour>
      <point x="463" y="226" type="curve" smooth="yes"/>
      <point x="463" y="192"/>
      <point x="435" y="170"/>
      <point x="392" y="170" type="curve" smooth="yes"/>
      <point x="281" y="170" type="line"/>
      <point x="281" y="277" type="line"/>
      <point x="392" y="277" type="line" smooth="yes"/>
      <point x="435" y="277"/>
      <point x="463" y="257"/>
    </contour>
  </outline>
</glyph>
<glyph name="C" format="1">
  <advance width="688"/>
  <unicode hex="0043"/>
  <outline>
    <contour>
      <point x="368" y="0" type="move" name="blwm"/>
    </contour>
    <contour>
      <point x="394" y="701" type="move" name="abvm"/>
    </contour>
    <contour>
      <point x="15" y="352" type="curve" smooth="yes"/>
      <point x="15" y="143"/>
      <point x="171" y="-10"/>
      <point x="386" y="-10" type="curve" smooth="yes"/>
      <point x="494" y="-10"/>
      <point x="613" y="45"/>
      <point x="691" y="130" type="curve"/>
      <point x="557" y="273" type="line"/>
      <point x="511" y="224"/>
      <point x="448" y="193"/>
      <point x="398" y="193" type="curve" smooth="yes"/>
      <point x="314" y="193"/>
      <point x="253" y="261"/>
      <point x="253" y="355" type="curve" smooth="yes"/>
      <point x="253" y="448"/>
      <point x="314" y="515"/>
      <point x="398" y="515" type="curve" smooth="yes"/>
      <point x="452" y="515"/>
      <point x="515" y="478"/>
      <point x="557" y="421" type="curve"/>
      <point x="691" y="580" type="line"/>
      <point x="619" y="658"/>
      <point x="502" y="708"/>
      <point x="395" y="708" type="curve" smooth="yes"/>
      <point x="175" y="708"/>
      <point x="15" y="558"/>
    </contour>
  </outline>
</glyph>
<glyph name="E" format="1">
  <advance width="690"/>
  <unicode hex="0045"/>
  <outline>
    <contour>
      <point x="351" y="0" type="move" name="blwm"/>
    </contour>
    <contour>
      <point x="644" y="10" type="move" name="ogonek"/>
    </contour>
    <contour>
      <point x="348" y="701" type="move" name="abvm"/>
    </contour>
    <contour>
      <point x="50" y="701" type="line"/>
      <point x="50" y="0" type="line"/>
      <point x="652" y="0" type="line"/>
      <point x="652" y="176" type="line"/>
      <point x="282" y="176" type="line"/>
      <point x="282" y="263" type="line"/>
      <point x="610" y="263" type="line"/>
      <point x="610" y="439" type="line"/>
      <point x="282" y="439" type="line"/>
      <point x="282" y="525" type="line"/>
      <point x="643" y="525" type="line"/>
      <point x="643" y="701" type="line"/>
    </contour>
  </outline>
</glyph>
<glyph name="F" format="1">
  <advance width="631"/>
  <unicode hex="0046"/>
  <outline>
    <contour>
      <point x="50" y="701" type="line"/>
      <point x="50" y="0" type="line"/>
      <point x="282" y="0" type="line"/>
      <point x="282" y="228" type="line"/>
      <point x="593" y="228" type="line"/>
      <point x="593" y="404" type="line"/>
      <point x="282" y="404" type="line"/>
      <point x="282" y="525" type="line"/>
      <point x="614" y="525" type="line"/>
      <point x="614" y="701" type="line"/>
    </contour>
  </outline>
</glyph>
<glyph name="G" format="1">
  <advance width="738"/>
  <unicode hex="0047"/>
  <outline>
    <contour>
      <point x="396" y="0" type="move" name="blwm"/>
    </contour>
    <contour>
      <point x="396" y="701" type="move" name="abvm"/>
    </contour>
    <contour>
      <point x="702" y="80" type="curve"/>
      <point x="702.0" y="369.0" type="line"/>
      <point x="503.0" y="369.0" type="line"/>
      <point x="503.0" y="206.15076" type="line"/>
      <point x="468.957221908" y="191.748797489"/>
      <point x="435.25426031" y="183.0"/>
      <point x="411.0" y="183.0" type="curve" smooth="yes"/>
      <point x="320" y="183"/>
      <point x="253" y="253"/>
      <point x="253" y="350" type="curve" smooth="yes"/>
      <point x="253" y="445"/>
      <point x="319" y="515"/>
      <point x="409" y="515" type="curve" smooth="yes"/>
      <point x="467" y="515"/>
      <point x="535" y="486"/>
      <point x="582" y="441" type="curve"/>
      <point x="713.0" y="600" type="line"/>
      <point x="638" y="666"/>
      <point x="519" y="708"/>
      <point x="410" y="708" type="curve" smooth="yes"/>
      <point x="181" y="708"/>
      <point x="15" y="557"/>
      <point x="15" y="350" type="curve" smooth="yes"/>
      <point x="15" y="142"/>
      <point x="175" y="-10"/>
      <point x="395" y="-10" type="curve" smooth="yes"/>
      <point x="495" y="-10"/>
      <point x="624" y="28"/>
    </contour>
  </outline>
</glyph>
<glyph name="H" format="1">
  <advance width="781"/>
  <unicode hex="0048"/>
  <outline>
    <contour>
      <point x="391" y="351" type="move" name="center"/>
    </contour>
    <contour>
      <point x="401" y="701" type="move" name="abvm"/>
    </contour>
    <contour>
      <point x="499" y="701" type="line"/>
      <point x="499" y="429" type="line"/>
      <point x="282" y="429" type="line"/>
      <point x="282" y="701" type="line"/>
      <point x="50" y="701" type="line"/>
      <point x="50" y="0" type="line"/>
      <point x="282" y="0" type="line"/>
      <point x="282" y="253" type="line"/>
      <point x="499" y="253" type="line"/>
      <point x="499" y="0" type="line"/>
      <point x="731" y="0" type="line"/>
      <point x="731" y="701" type="line"/>
    </contour>
  </outline>
</glyph>
<glyph name="I" format="1">
  <advance width="332"/>
  <unicode hex="0049"/>
  <outline>
    <contour>
      <point x="299" y="10" type="move" name="ogonek"/>
    </contour>
    <contour>
      <point x="166" y="701" type="move" name="abvm"/>
    </contour>
    <contour>
      <point x="50" y="701" type="line"/>
      <point x="50" y="0" type="line"/>
      <point x="282" y="0" type="line"/>
      <point x="282" y="701" type="line"/>
    </contour>
  </outline>
</glyph>
<glyph name="K" format="1">
  <advance width="773"/>
  <unicode hex="004B"/>
  <outline>
    <contour>
      <point x="373" y="0" type="move" name="blwm"/>
    </contour>
    <contour>
      <point x="373" y="701" type="move" name="abvm"/>
    </contour>
    <contour>
      <point x="282" y="165" type="line"/>
      <point x="349.64208" y="241.16839" type="line"/>
      <point x="496.0" y="0" type="line"/>
      <point x="773.0" y="0" type="line"/>
      <point x="507.716" y="419.1676" type="line"/>
      <point x="758.0" y="701.0" type="line"/>
      <point x="491.0" y="701.0" type="line"/>
      <point x="282" y="458.0" type="line"/>
      <point x="282" y="701.0" type="line"/>
      <point x="50.0" y="701.0" type="line"/>
      <point x="50.0" y="0" type="line"/>
      <point x="282" y="0" type="line"/>
    </contour>
  </outline>
</glyph>
<glyph name="L" format="1">
  <advance width="584"/>
  <unicode hex="004C"/>
  <outline>
    <contour>
      <point x="292" y="0" type="move" name="blwm"/>
    </contour>
    <contour>
      <point x="159" y="701" type="move" name="abvm"/>
    </contour>
    <contour>
      <point x="50" y="701" type="line"/>
      <point x="50" y="0" type="line"/>
      <point x="574" y="0" type="line"/>
      <point x="574" y="193" type="line"/>
      <point x="282" y="193" type="line"/>
      <point x="282" y="701" type="line"/>
    </contour>
  </outline>
</glyph>
<glyph name="M" format="1">
  <advance width="896"/>
  <unicode hex="004D"/>
  <outline>
    <contour>
      <point x="601" y="701" type="line"/>
      <point x="448" y="335" type="line"/>
      <point x="295" y="701" type="line"/>
      <point x="50" y="701" type="line"/>
      <point x="50" y="0" type="line"/>
      <point x="252" y="0" type="line"/>
      <point x="252" y="384" type="line"/>
      <point x="372" y="68" type="line"/>
      <point x="524" y="68" type="line"/>
      <point x="644" y="384" type="line"/>
      <point x="644" y="0" type="line"/>
      <point x="846" y="0" type="line"/>
      <point x="846" y="701" type="line"/>
    </contour>
  </outline>
</glyph>
<glyph name="N" format="1">
  <advance width="781"/>
  <unicode hex="004E"/>
  <outline>
    <contour>
      <point x="391" y="0" type="move" name="blwm"/>
    </contour>
    <contour>
      <point x="391" y="701" type="move" name="abvm"/>
    </contour>
    <contour>
      <point x="521" y="701" type="line"/>
      <point x="521" y="341" type="line"/>
      <point x="244" y="701" type="line"/>
      <point x="50" y="701" type="line"/>
      <point x="50" y="0" type="line"/>
      <point x="261" y="0" type="line"/>
      <point x="261" y="358" type="line"/>
      <point x="537" y="0" type="line"/>
      <point x="731" y="0" type="line"/>
      <point x="731" y="701" type="line"/>
    </contour>
  </outline>
</glyph>
<glyph name="P" format="1">
  <advance width="686"/>
  <unicode hex="0050"/>
  <outline>
    <contour>
      <point x="50" y="701" type="line"/>
      <point x="50" y="0" type="line"/>
      <point x="282" y="0" type="line"/>
      <point x="282" y="182" type="line"/>
      <point x="379" y="182" type="line" smooth="yes"/>
      <point x="561" y="182"/>
      <point x="666" y="280"/>
      <point x="666" y="450" type="curve" smooth="yes"/>
      <point x="666" y="610"/>
      <point x="561" y="701"/>
      <point x="379" y="701" type="curve" smooth="yes"/>
    </contour>
    <contour>
      <point x="446" y="443" type="curve" smooth="yes"/>
      <point x="446" y="389"/>
      <point x="417" y="358"/>
      <point x="367" y="358" type="curve" smooth="yes"/>
      <point x="282" y="358" type="line"/>
      <point x="282" y="525" type="line"/>
      <point x="367" y="525" type="line" smooth="yes"/>
      <point x="417" y="525"/>
      <point x="446" y="495"/>
    </contour>
  </outline>
</glyph>
<glyph name="Q" format="1">
  <advance width="797"/>
  <unicode hex="0051"/>
  <outline>
    <contour>
      <point x="601.0" y="-177.0" type="curve" smooth="yes"/>
      <point x="674" y="-177"/>
      <point x="761" y="-146"/>
      <point x="815" y="-99" type="curve"/>
      <point x="738.0" y="38" type="line"/>
      <point x="698" y="9"/>
      <point x="654" y="-10"/>
      <point x="626" y="-10" type="curve" smooth="yes"/>
      <point x="603.019178675" y="-10.0"/>
      <point x="582.779455008" y="2.79178907028"/>
      <point x="567.75113" y="22.56388" type="curve"/>
      <point x="699.726423757" y="78.1343475991"/>
      <point x="785.0" y="200.091721042"/>
      <point x="785.0" y="351.0" type="curve" smooth="yes"/>
      <point x="785" y="558"/>
      <point x="623" y="708"/>
      <point x="400" y="708" type="curve" smooth="yes"/>
      <point x="177" y="708"/>
      <point x="15" y="559"/>
      <point x="15" y="351" type="curve" smooth="yes"/>
      <point x="15.0" y="150.693806067"/>
      <point x="163.802833158" y="2.7441645403"/>
      <point x="372.49542" y="-9.20976" type="curve"/>
      <point x="409.053395697" y="-111.133548109"/>
      <point x="495.480835256" y="-177.0"/>
    </contour>
    <contour>
      <point x="547" y="350" type="curve" smooth="yes"/>
      <point x="547" y="254"/>
      <point x="483" y="183"/>
      <point x="403" y="183" type="curve" smooth="yes"/>
      <point x="323" y="183"/>
      <point x="253" y="254"/>
      <point x="253" y="350" type="curve" smooth="yes"/>
      <point x="253" y="446"/>
      <point x="322" y="515"/>
      <point x="403" y="515" type="curve" smooth="yes"/>
      <point x="483" y="515"/>
      <point x="547" y="446"/>
    </contour>
  </outline>
</glyph>
<glyph name="R" format="1">
  <advance width="725"/>
  <unicode hex="0052"/>
  <outline>
    <contour>
      <point x="359" y="0" type="move" name="blwm"/>
    </contour>
    <contour>
      <point x="372" y="701" type="move" name="abvm"/>
    </contour>
    <contour>
      <point x="468" y="443" type="curve" smooth="yes"/>
      <point x="468" y="389"/>
      <point x="439" y="358"/>
      <point x="389" y="358" type="curve" smooth="yes"/>
      <point x="282" y="358" type="line"/>
      <point x="282" y="525" type="line"/>
      <point x="389" y="525" type="line" smooth="yes"/>
      <point x="439" y="525"/>
      <point x="468" y="495"/>
    </contour>
    <contour>
      <point x="282" y="0" type="line"/>
      <point x="282" y="182.0" type="line"/>
      <point x="368.52453" y="182.0" type="line"/>
      <point x="453.0" y="0" type="line"/>
      <point x="715.0" y="0" type="line"/>
      <point x="576.70741" y="227.62445" type="line"/>
      <point x="648.897020126" y="272.185971282"/>
      <point x="688.0" y="348.178239994"/>
      <point x="688.0" y="450.0" type="curve" smooth="yes"/>
      <point x="688" y="610"/>
      <point x="579" y="701"/>
      <point x="389" y="701" type="curve" smooth="yes"/>
      <point x="50.0" y="701.0" type="line"/>
      <point x="50.0" y="0" type="line"/>
    </contour>
  </outline>
</glyph>
<glyph name="T" format="1">
  <advance width="641"/>
  <unicode hex="0054"/>
  <outline>
    <contour>
      <point x="309" y="0" type="move" name="blwm"/>
    </contour>
    <contour>
      <point x="307" y="351" type="move" name="center"/>
    </contour>
    <contour>
      <point x="337" y="701" type="move" name="abvm"/>
    </contour>
    <contour>
      <point x="5" y="701" type="line"/>
      <point x="5" y="518" type="line"/>
      <point x="204" y="518" type="line"/>
      <point x="204" y="0" type="line"/>
      <point x="436" y="0" type="line"/>
      <point x="436" y="518" type="line"/>
      <point x="636" y="518" type="line"/>
      <point x="636" y="701" type="line"/>
    </contour>
  </outline>
</glyph>
<glyph name="Y" format="1">
  <advance width="719"/>
  <unicode hex="0059"/>
  <outline>
    <contour>
      <point x="360" y="701" type="move" name="abvm"/>
    </contour>
    <contour>
      <point x="478.0" y="0" type="line"/>
      <point x="478.0" y="218.14407" type="line"/>
      <point x="729.0" y="701.0" type="line"/>
      <point x="498.0" y="701.0" type="line"/>
      <point x="362.0" y="431.0" type="line"/>
      <point x="221.0" y="701.0" type="line"/>
      <point x="-10" y="701.0" type="line"/>
      <point x="246.0" y="212.66387" type="line"/>
      <point x="246.0" y="0" type="line"/>
    </contour>
  </outline>
</glyph>
<glyph name="bracketleft" format="1">
  <advance width="377"/>
  <unicode hex="005B"/>
  <outline>
    <contour>
      <point x="50" y="742" type="line"/>
      <point x="50" y="-124" type="line"/>
      <point x="367" y="-124" type="line"/>
      <point x="367" y="30" type="line"/>
      <point x="249" y="30" type="line"/>
      <point x="249" y="588" type="line"/>
      <point x="367" y="588" type="line"/>
      <point x="367" y="742" type="line"/>
    </contour>
  </outline>
</glyph>
<glyph name="backslash" format="1">
  <advance width="373"/>
  <unicode hex="005C"/>
  <outline>
    <contour>
      <point x="-94" y="808" type="line"/>
      <point x="235" y="-106" type="line"/>
      <point x="423" y="-106" type="line"/>
      <point x="93" y="808" type="line"/>
    </contour>
  </outline>
</glyph>
<glyph name="bracketright" format="1">
  <advance width="473"/>
  <unicode hex="005D"/>
  <outline>
    <contour>
      <point x="106" y="742" type="line"/>
      <point x="106" y="588" type="line"/>
      <point x="224" y="588" type="line"/>
      <point x="224" y="30" type="line"/>
      <point x="106" y="30" type="line"/>
      <point x="106" y="-124" type="line"/>
      <point x="423" y="-124" type="line"/>
      <point x="423" y="742" type="line"/>
    </contour>
  </outline>
</glyph>
<glyph name="asciicircum" format="1">
  <advance width="608"/>
  <unicode hex="005E"/>
  <outline>
    <contour>
      <point x="393" y="523" type="line"/>
      <point x="215" y="523" type="line"/>
      <point x="30" y="143" type="line"/>
      <point x="186" y="143" type="line"/>
      <point x="304" y="404" type="line"/>
      <point x="422" y="143" type="line"/>
      <point x="578" y="143" type="line"/>
    </contour>
  </outline>
</glyph>
<glyph name="underscore" format="1">
  <advance width="599"/>
  <unicode hex="005F"/>
  <outline>
    <contour>
      <point x="0" y="-92" type="line"/>
      <point x="0" y="-204" type="line"/>
      <point x="599" y="-204" type="line"/>
      <point x="599" y="-92" type="line"/>
    </contour>
  </outline>
</glyph>
<glyph name="a" format="1">
  <advance width="613"/>
  <unicode hex="0061"/>
  <outline>
    <contour>
      <point x="594" y="10" type="move" name="ogonek"/>
    </contour>
    <contour>
      <point x="308" y="547" type="move" name="abvm"/>
    </contour>
    <contour>
      <point x="276" y="133" type="curve" smooth="yes"/>
      <point x="244" y="133"/>
      <point x="226" y="151"/>
      <point x="226" y="181" type="curve" smooth="yes"/>
      <point x="226" y="210"/>
      <point x="243" y="225"/>
      <point x="274" y="225" type="curve" smooth="yes"/>
      <point x="352.0" y="225.0" type="line"/>
      <point x="352.0" y="175.0" type="line"/>
      <point x="334" y="148"/>
      <point x="305" y="133"/>
    </contour>
    <contour>
      <point x="352.0" y="0" type="line"/>
      <point x="573" y="0" type="line"/>
      <point x="573" y="354.0" type="line" smooth="yes"/>
      <point x="573" y="483"/>
      <point x="479" y="557"/>
      <point x="321" y="557" type="curve" smooth="yes"/>
      <point x="240" y="557"/>
      <point x="144" y="538"/>
      <point x="51" y="504" type="curve"/>
      <point x="101.0" y="354.0" type="line"/>
      <point x="163" y="377"/>
      <point x="226" y="389"/>
      <point x="267" y="389" type="curve" smooth="yes"/>
      <point x="321.956767681" y="389.0"/>
      <point x="350.910139164" y="366.848958795"/>
      <point x="351.96982" y="329" type="curve"/>
      <point x="227.0" y="329" type="line" smooth="yes"/>
      <point x="88" y="327"/>
      <point x="15" y="270"/>
      <point x="15" y="162" type="curve" smooth="yes"/>
      <point x="15" y="58"/>
      <point x="82" y="-10"/>
      <point x="198" y="-10" type="curve" smooth="yes"/>
      <point x="267.761184325" y="-10.0"/>
      <point x="319.516595632" y="14.7579378991"/>
      <point x="352.0" y="58.80454" type="curve"/>
    </contour>
  </outline>
</glyph>
<glyph name="b" format="1">
  <advance width="690"/>
  <unicode hex="0062"/>
  <outline>
    <contour>
      <point x="430.0" y="-8.0" type="curve" smooth="yes"/>
      <point x="579" y="-8"/>
      <point x="675" y="101"/>
      <point x="675" y="270" type="curve" smooth="yes"/>
      <point x="675" y="443"/>
      <point x="576" y="555"/>
      <point x="424" y="555" type="curve" smooth="yes"/>
      <point x="367.55842699" y="555.0"/>
      <point x="320.14647746" y="532.526270449"/>
      <point x="285" y="492.23641" type="curve"/>
      <point x="285" y="742.0" type="line"/>
      <point x="60.0" y="742.0" type="line"/>
      <point x="60.0" y="0" type="line"/>
      <point x="285" y="0" type="line"/>
      <point x="285" y="56.13569" type="line"/>
      <point x="321.439669319" y="14.9977529961"/>
      <point x="371.015748819" y="-8.0"/>
    </contour>
    <contour>
      <point x="448" y="276" type="curve" smooth="yes"/>
      <point x="448" y="212"/>
      <point x="416" y="170"/>
      <point x="366" y="170" type="curve" smooth="yes"/>
      <point x="317" y="170"/>
      <point x="285" y="212"/>
      <point x="285" y="276" type="curve" smooth="yes"/>
      <point x="285" y="340"/>
      <point x="317" y="382"/>
      <point x="366" y="382" type="curve" smooth="yes"/>
      <point x="416" y="382"/>
      <point x="448" y="340"/>
    </contour>
  </outline>
</glyph>
<glyph name="d" format="1">
  <advance width="690"/>
  <unicode hex="0064"/>
  <outline>
    <contour>
      <point x="-17" y="0" type="move" name="center"/>
    </contour>
    <contour>
      <point x="405" y="271" type="curve" smooth="yes"/>
      <point x="405" y="207"/>
      <point x="373" y="165"/>
      <point x="324" y="165" type="curve" smooth="yes"/>
      <point x="274" y="165"/>
      <point x="242" y="207"/>
      <point x="242" y="271" type="curve" smooth="yes"/>
      <point x="242" y="335"/>
      <point x="274" y="377"/>
      <point x="324" y="377" type="curve" smooth="yes"/>
      <point x="373" y="377"/>
      <point x="405" y="335"/>
    </contour>
    <contour>
      <point x="405.0" y="0" type="line"/>
      <point x="630" y="0" type="line"/>
      <point x="630" y="742.0" type="line"/>
      <point x="405.0" y="742.0" type="line"/>
      <point x="405.0" y="490.86431" type="line"/>
      <point x="368.560330681" y="532.002247004"/>
      <point x="318.984251181" y="555.0"/>
      <point x="260.0" y="555.0" type="curve" smooth="yes"/>
      <point x="111" y="555"/>
      <point x="15" y="446"/>
      <point x="15" y="277" type="curve" smooth="yes"/>
      <point x="15" y="104"/>
      <point x="114" y="-8"/>
      <point x="266" y="-8" type="curve" smooth="yes"/>
      <point x="322.44157301" y="-8.0"/>
      <point x="369.85352254" y="14.4737295513"/>
      <point x="405.0" y="54.76359" type="curve"/>
    </contour>
  </outline>
</glyph>
<glyph name="e" format="1">
  <advance width="614"/>
  <unicode hex="0065"/>
  <outline>
    <contour>
      <point x="307" y="0" type="move" name="blwm"/>
    </contour>
    <contour>
      <point x="552" y="10" type="move" name="ogonek"/>
    </contour>
    <contour>
      <point x="303" y="547" type="move" name="abvm"/>
    </contour>
    <contour>
      <point x="309.0" y="405.0" type="curve" smooth="yes"/>
      <point x="348" y="405"/>
      <point x="376" y="372"/>
      <point x="373" y="327" type="curve"/>
      <point x="236.90929" y="327" type="line"/>
      <point x="245.884871997" y="373.127444495"/>
      <point x="270.226008337" y="405.0"/>
    </contour>
    <contour>
      <point x="561" y="92" type="curve"/>
      <point x="444.0" y="207.0" type="line"/>
      <point x="410" y="175"/>
      <point x="371" y="158"/>
      <point x="333" y="158" type="curve" smooth="yes"/>
      <point x="289.51271121" y="158.0"/>
      <point x="257.206603366" y="180.362361891"/>
      <point x="242.24119" y="223.0" type="curve"/>
      <point x="598" y="223.0" type="line"/>
      <point x="610" y="425"/>
      <point x="498" y="555"/>
      <point x="307" y="555" type="curve" smooth="yes"/>
      <point x="131" y="555"/>
      <point x="15" y="444"/>
      <point x="15" y="271" type="curve" smooth="yes"/>
      <point x="15" y="102"/>
      <point x="126" y="-8"/>
      <point x="313" y="-8" type="curve" smooth="yes"/>
      <point x="419" y="-8"/>
      <point x="503" y="28"/>
    </contour>
  </outline>
</glyph>
<glyph name="h" format="1">
  <advance width="687"/>
  <unicode hex="0068"/>
  <outline>
    <contour>
      <point x="680" y="0" type="move" name="blwm"/>
    </contour>
    <contour>
      <point x="339" y="274" type="move" name="center"/>
    </contour>
    <contour>
      <point x="166" y="742" type="move" name="abvm"/>
    </contour>
    <contour>
      <point x="315" y="547" type="move" name="topright"/>
    </contour>
    <contour>
      <point x="285" y="271" type="line"/>
      <point x="285" y="324"/>
      <point x="313" y="359"/>
      <point x="357" y="359" type="curve" smooth="yes"/>
      <point x="396" y="359"/>
      <point x="422" y="330"/>
      <point x="422" y="284" type="curve" smooth="yes"/>
      <point x="422.0" y="0" type="line"/>
      <point x="647" y="0" type="line"/>
      <point x="647" y="349.0" type="line" smooth="yes"/>
      <point x="647" y="475"/>
      <point x="566" y="557"/>
      <point x="451" y="557" type="curve" smooth="yes"/>
      <point x="378.88630881" y="557.0"/>
      <point x="322.18116416" y="525.041533104"/>
      <point x="285" y="468.72237" type="curve"/>
      <point x="285" y="742.0" type="line"/>
      <point x="60.0" y="742.0" type="line"/>
      <point x="60.0" y="0" type="line"/>
      <point x="285" y="0" type="line"/>
    </contour>
  </outline>
</glyph>
<glyph name="i" format="1">
  <advance width="335"/>
  <unicode hex="0069"/>
  <outline>
    <contour>
      <point x="168" y="547" type="move" name="_abvm"/>
    </contour>
    <contour>
      <point x="291" y="10" type="move" name="ogonek"/>
    </contour>
    <contour>
      <point x="168" y="547" type="move" name="abvm"/>
    </contour>
    <contour>
      <point x="54" y="703" type="curve" smooth="yes"/>
      <point x="54" y="636"/>
      <point x="101" y="589"/>
      <point x="168" y="589" type="curve" smooth="yes"/>
      <point x="235" y="589"/>
      <point x="282" y="636"/>
      <point x="282" y="703" type="curve" smooth="yes"/>
      <point x="282" y="770"/>
      <point x="235" y="817"/>
      <point x="168" y="817" type="curve" smooth="yes"/>
      <point x="101" y="817"/>
      <point x="54" y="770"/>
    </contour>
    <contour>
      <point x="55" y="547" type="line"/>
      <point x="55" y="0" type="line"/>
      <point x="280" y="0" type="line"/>
      <point x="280" y="547" type="line"/>
    </contour>
  </outline>
</glyph>
<glyph name="k" format="1">
  <advance width="662"/>
  <unicode hex="006B"/>
  <outline>
    <contour>
      <point x="143" y="0" type="move" name="blwm"/>
    </contour>
    <contour>
      <point x="173" y="742" type="move" name="abvm"/>
    </contour>
    <contour>
      <point x="315" y="547" type="move" name="topright"/>
    </contour>
    <contour>
      <point x="396.0" y="0" type="line"/>
      <point x="663" y="0" type="line"/>
      <point x="466.89394" y="336.18182" type="line"/>
      <point x="666" y="547" type="line"/>
      <point x="412.0" y="547" type="line"/>
      <point x="285" y="405.16788" type="line"/>
      <point x="285" y="742.0" type="line"/>
      <point x="60.0" y="742.0" type="line"/>
      <point x="60.0" y="0" type="line"/>
      <point x="285" y="0" type="line"/>
      <point x="285" y="143.58824" type="line"/>
      <point x="312.14367" y="172.3286" type="line"/>
    </contour>
  </outline>
</glyph>
<glyph name="l" format="1">
  <advance width="345"/>
  <unicode hex="006C"/>
  <outline>
    <contour>
      <point x="173" y="0" type="move" name="blwm"/>
    </contour>
    <contour>
      <point x="173" y="742" type="move" name="abvm"/>
    </contour>
    <contour>
      <point x="315" y="547" type="move" name="topright"/>
    </contour>
    <contour>
      <point x="60" y="742" type="line"/>
      <point x="60" y="0" type="line"/>
      <point x="285" y="0" type="line"/>
      <point x="285" y="742" type="line"/>
    </contour>
  </outline>
</glyph>
<glyph name="m" format="1">
  <advance width="1032"/>
  <unicode hex="006D"/>
  <outline>
    <contour>
      <point x="280" y="271" type="line"/>
      <point x="280" y="324"/>
      <point x="307" y="359"/>
      <point x="349" y="359" type="curve" smooth="yes"/>
      <point x="386" y="359"/>
      <point x="411" y="330"/>
      <point x="411" y="284" type="curve" smooth="yes"/>
      <point x="411.0" y="0" type="line"/>
      <point x="636" y="0" type="line"/>
      <point x="636" y="271" type="line"/>
      <point x="636" y="324"/>
      <point x="663" y="359"/>
      <point x="705" y="359" type="curve" smooth="yes"/>
      <point x="742" y="359"/>
      <point x="767" y="330"/>
      <point x="767" y="284" type="curve" smooth="yes"/>
      <point x="767.0" y="0" type="line"/>
      <point x="992.0" y="0" type="line"/>
      <point x="992.0" y="349.0" type="line" smooth="yes"/>
      <point x="992" y="475"/>
      <point x="912" y="557"/>
      <point x="799" y="557" type="curve" smooth="yes"/>
      <point x="716.804534715" y="557.0"/>
      <point x="654.851763149" y="514.222986856"/>
      <point x="619.51481" y="440.44679" type="curve"/>
      <point x="590.522167685" y="513.216057247"/>
      <point x="525.571267445" y="557.0"/>
      <point x="443.0" y="557.0" type="curve" smooth="yes"/>
      <point x="372.373616355" y="557.0"/>
      <point x="316.692597712" y="525.41734188"/>
      <point x="280" y="469.72743" type="curve"/>
      <point x="280" y="547" type="line"/>
      <point x="55.0" y="547" type="line"/>
      <point x="55.0" y="0" type="line"/>
      <point x="280" y="0" type="line"/>
    </contour>
  </outline>
</glyph>
<glyph name="r" format="1">
  <advance width="457"/>
  <unicode hex="0072"/>
  <outline>
    <contour>
      <point x="161" y="0" type="move" name="blwm"/>
    </contour>
    <contour>
      <point x="245" y="547" type="move" name="abvm"/>
    </contour>
    <contour>
      <point x="280" y="261" type="line"/>
      <point x="280" y="333"/>
      <point x="346" y="369"/>
      <point x="447" y="354" type="curve"/>
      <point x="447.0" y="557" type="line"/>
      <point x="375.55723071" y="557.0"/>
      <point x="317.882325077" y="524.191473842"/>
      <point x="280" y="466.49129" type="curve"/>
      <point x="280" y="547" type="line"/>
      <point x="55.0" y="547" type="line"/>
      <point x="55.0" y="0" type="line"/>
      <point x="280" y="0" type="line"/>
    </contour>
  </outline>
</glyph>
<glyph name="v" format="1">
  <advance width="612"/>
  <unicode hex="0076"/>
  <outline>
    <contour>
      <point x="397" y="547" type="line"/>
      <point x="308" y="204" type="line"/>
      <point x="221" y="547" type="line"/>
      <point x="-10" y="547" type="line"/>
      <point x="190" y="0" type="line"/>
      <point x="420" y="0" type="line"/>
      <point x="622" y="547" type="line"/>
    </contour>
  </outline>
</glyph>
<glyph name="bar" format="1">
  <advance width="326"/>
  <unicode hex="007C"/>
  <outline>
    <contour>
      <point x="80" y="796" type="line"/>
      <point x="80" y="-103" type="line"/>
      <point x="246" y="-103" type="line"/>
      <point x="246" y="796" type="line"/>
    </contour>
  </outline>
</glyph>
<glyph name="exclamdown" format="1">
  <advance width="293"/>
  <unicode hex="00A1"/>
  <outline>
    <contour>
      <point x="254" y="457" type="curve" smooth="yes"/>
      <point x="254" y="515"/>
      <point x="212" y="554"/>
      <point x="153" y="554" type="curve" smooth="yes"/>
      <point x="90" y="554"/>
      <point x="49" y="515"/>
      <point x="49" y="457" type="curve" smooth="yes"/>
      <point x="49" y="400"/>
      <point x="90" y="361"/>
      <point x="153" y="361" type="curve" smooth="yes"/>
      <point x="212" y="361"/>
      <point x="254" y="400"/>
    </contour>
    <contour>
      <point x="254" y="-154" type="line"/>
      <point x="254" y="28" type="line"/>
      <point x="214" y="293" type="line"/>
      <point x="81" y="293" type="line"/>
      <point x="40" y="28" type="line"/>
      <point x="40" y="-154" type="line"/>
    </contour>
  </outline>
</glyph>
<glyph name="cent" format="1">
  <advance width="561"/>
  <unicode hex="00A2"/>
  <note>
    cent
  </note>
  <outline>
    <contour>
      <point x="242" y="272" type="curve" smooth="yes"/>
      <point x="242" y="333"/>
      <point x="270" y="373"/>
      <point x="314" y="373" type="curve" smooth="yes"/>
      <point x="346" y="373"/>
      <point x="370" y="354"/>
      <point x="384" y="321" type="curve"/>
      <point x="563" y="397" type="line"/>
      <point x="530" y="470"/>
      <point x="471" y="520"/>
      <point x="396" y="542" type="curve"/>
      <point x="396" y="714" type="line"/>
      <point x="230" y="714" type="line"/>
      <point x="230" y="548" type="line"/>
      <point x="98" y="520"/>
      <point x="15" y="417"/>
      <point x="15" y="271" type="curve" smooth="yes"/>
      <point x="15" y="127"/>
      <point x="97" y="25"/>
      <point x="230" y="-1" type="curve"/>
      <point x="230" y="-165" type="line"/>
      <point x="396" y="-165" type="line"/>
      <point x="396" y="4" type="line"/>
      <point x="475" y="25"/>
      <point x="534" y="74"/>
      <point x="563" y="145" type="curve"/>
      <point x="381" y="229" type="line"/>
      <point x="369" y="188"/>
      <point x="346" y="170"/>
      <point x="314" y="170" type="curve" smooth="yes"/>
      <point x="270" y="170"/>
      <point x="242" y="210"/>
    </contour>
  </outline>
</glyph>
<glyph name="sterling" format="1">
  <advance width="566"/>
  <unicode hex="00A3"/>
  <note>
    sterling
  </note>
  <outline>
    <contour>
      <point x="561" y="173" type="line"/>
      <point x="323" y="173" type="line"/>
      <point x="323" y="264" type="line"/>
      <point x="482.0" y="264" type="line"/>
      <point x="482.0" y="416.0" type="line"/>
      <point x="323" y="416.0" type="line"/>
      <point x="323" y="459.0" type="line" smooth="yes"/>
      <point x="323" y="499"/>
      <point x="341" y="518"/>
      <point x="376" y="518" type="curve" smooth="yes"/>
      <point x="410" y="518"/>
      <point x="449" y="498"/>
      <point x="492" y="459" type="curve"/>
      <point x="576" y="629" type="line"/>
      <point x="518" y="682"/>
      <point x="436" y="711"/>
      <point x="351" y="711" type="curve" smooth="yes"/>
      <point x="185" y="711"/>
      <point x="90" y="621"/>
      <point x="90" y="464" type="curve" smooth="yes"/>
      <point x="90.0" y="416.0" type="line"/>
      <point x="20" y="416.0" type="line"/>
      <point x="20" y="264" type="line"/>
      <point x="90.0" y="264" type="line"/>
      <point x="90.0" y="173" type="line"/>
      <point x="20" y="173" type="line"/>
      <point x="20" y="0" type="line"/>
      <point x="561" y="0" type="line"/>
    </contour>
  </outline>
</glyph>
<glyph name="currency" format="1">
  <advance width="693"/>
  <unicode hex="00A4"/>
  <note>
    currency
  </note>
  <outline>
    <contour>
      <point x="579" y="425" type="curve"/>
      <point x="678" y="524" type="line"/>
      <point x="553" y="649" type="line"/>
      <point x="456" y="552" type="line"/>
      <point x="423" y="568"/>
      <point x="386" y="577"/>
      <point x="346" y="577" type="curve" smooth="yes"/>
      <point x="307" y="577"/>
      <point x="270" y="568"/>
      <point x="237" y="552" type="curve"/>
      <point x="140" y="649" type="line"/>
      <point x="15" y="524" type="line"/>
      <point x="114" y="425" type="line"/>
      <point x="100" y="394"/>
      <point x="92" y="359"/>
      <point x="92" y="323" type="curve" smooth="yes"/>
      <point x="92" y="284"/>
      <point x="101" y="246"/>
      <point x="117" y="213" type="curve"/>
      <point x="15" y="111" type="line"/>
      <point x="140" y="-14" type="line"/>
      <point x="244" y="90" type="line"/>
      <point x="275" y="77"/>
      <point x="310" y="69"/>
      <point x="346" y="69" type="curve" smooth="yes"/>
      <point x="382" y="69"/>
      <point x="417" y="77"/>
      <point x="448" y="91" type="curve"/>
      <point x="553" y="-14" type="line"/>
      <point x="678" y="111" type="line"/>
      <point x="575" y="214" type="line"/>
      <point x="591" y="247"/>
      <point x="600" y="284"/>
      <point x="600" y="323" type="curve" smooth="yes"/>
      <point x="600" y="359"/>
      <point x="592" y="394"/>
    </contour>
    <contour>
      <point x="267" y="323" type="curve" smooth="yes"/>
      <point x="267" y="367"/>
      <point x="302" y="403"/>
      <point x="346" y="403" type="curve" smooth="yes"/>
      <point x="390" y="403"/>
      <point x="426" y="367"/>
      <point x="426" y="323" type="curve" smooth="yes"/>
      <point x="426" y="279"/>
      <point x="390" y="244"/>
      <point x="346" y="244" type="curve" smooth="yes"/>
      <point x="302" y="244"/>
      <point x="267" y="279"/>
    </contour>
  </outline>
</glyph>
<glyph name="yen" format="1">
  <advance width="699"/>
  <unicode hex="00A5"/>
  <note>
    yen
  </note>
  <outline>
    <contour>
      <point x="729" y="701" type="line"/>
      <point x="498" y="701" type="line"/>
      <point x="362" y="431" type="line"/>
      <point x="221" y="701" type="line"/>
      <point x="-10" y="701" type="line"/>
      <point x="170" y="357" type="line"/>
      <point x="64" y="357" type="line"/>
      <point x="64" y="276" type="line"/>
      <point x="213" y="276" type="line"/>
      <point x="237" y="230" type="line"/>
      <point x="64" y="230" type="line"/>
      <point x="64" y="148" type="line"/>
      <point x="246" y="148" type="line"/>
      <point x="246" y="0" type="line"/>
      <point x="478" y="0" type="line"/>
      <point x="478" y="148" type="line"/>
      <point x="635" y="148" type="line"/>
      <point x="635" y="230" type="line"/>
      <point x="484" y="230" type="line"/>
      <point x="508" y="276" type="line"/>
      <point x="635" y="276" type="line"/>
      <point x="635" y="357" type="line"/>
      <point x="550" y="357" type="line"/>
    </contour>
  </outline>
</glyph>
<glyph name="dieresis" format="1">
  <advance width="350"/>
  <unicode hex="00A8"/>
  <outline>
    <contour>
      <point x="175" y="547" type="move" name="_abvm"/>
    </contour>
    <contour>
      <point x="-20.2" y="698.4" type="curve" smooth="yes"/>
      <point x="-20.2" y="644.8"/>
      <point x="17.4" y="607.2"/>
      <point x="71.0" y="607.2" type="curve" smooth="yes"/>
      <point x="124.6" y="607.2"/>
      <point x="162.2" y="644.8"/>
      <point x="162.2" y="698.4" type="curve" smooth="yes"/>
      <point x="162.2" y="752.0"/>
      <point x="124.6" y="789.6"/>
      <point x="71.0" y="789.6" type="curve" smooth="yes"/>
      <point x="17.4" y="789.6"/>
      <point x="-20.2" y="752.0"/>
    </contour>
    <contour>
      <point x="187.8" y="698.4" type="curve" smooth="yes"/>
      <point x="187.8" y="644.8"/>
      <point x="225.4" y="607.2"/>
      <point x="279.0" y="607.2" type="curve" smooth="yes"/>
      <point x="332.6" y="607.2"/>
      <point x="370.2" y="644.8"/>
      <point x="370.2" y="698.4" type="curve" smooth="yes"/>
      <point x="370.2" y="752.0"/>
      <point x="332.6" y="789.6"/>
      <point x="279.0" y="789.6" type="curve" smooth="yes"/>
      <point x="225.4" y="789.6"/>
      <point x="187.8" y="752.0"/>
    </contour>
  </outline>
</glyph>
<glyph name="logicalnot" format="1">
  <advance width="593"/>
  <unicode hex="00AC"/>
  <outline>
    <contour>
      <point x="540" y="129" type="line"/>
      <point x="540" y="449.0" type="line"/>
      <point x="30.0" y="449.0" type="line"/>
      <point x="30.0" y="309" type="line"/>
      <point x="380.0" y="309" type="line"/>
      <point x="380.0" y="129" type="line"/>
    </contour>
  </outline>
</glyph>
<glyph name="registered" format="1">
  <advance width="707"/>
  <unicode hex="00AE"/>
  <outline>
    <contour>
      <point x="15" y="348" type="curve" smooth="yes"/>
      <point x="15" y="163"/>
      <point x="162" y="9"/>
      <point x="352" y="9" type="curve" smooth="yes"/>
      <point x="543" y="9"/>
      <point x="692" y="165"/>
      <point x="692" y="350" type="curve" smooth="yes"/>
      <point x="692" y="536"/>
      <point x="544" y="689"/>
      <point x="354" y="689" type="curve" smooth="yes"/>
      <point x="163" y="689"/>
      <point x="15" y="533"/>
    </contour>
    <contour>
      <point x="592" y="350" type="curve" smooth="yes"/>
      <point x="592" y="219"/>
      <point x="488" y="109"/>
      <point x="352" y="109" type="curve" smooth="yes"/>
      <point x="218" y="109"/>
      <point x="115" y="217"/>
      <point x="115" y="348" type="curve" smooth="yes"/>
      <point x="115" y="479"/>
      <point x="219" y="589"/>
      <point x="354" y="589" type="curve" smooth="yes"/>
      <point x="488" y="589"/>
      <point x="592" y="481"/>
    </contour>
    <contour>
      <point x="399" y="401" type="curve" smooth="yes"/>
      <point x="399" y="378"/>
      <point x="387" y="365"/>
      <point x="365" y="365" type="curve" smooth="yes"/>
      <point x="324" y="365" type="line"/>
      <point x="324" y="437" type="line"/>
      <point x="365" y="437" type="line" smooth="yes"/>
      <point x="387" y="437"/>
      <point x="399" y="424"/>
    </contour>
    <contour>
      <point x="324" y="211.0" type="line"/>
      <point x="324" y="289" type="line"/>
      <point x="356.73684" y="289" type="line"/>
      <point x="393.0" y="211.0" type="line"/>
      <point x="506.0" y="211.0" type="line"/>
      <point x="446.03601" y="308.65564" type="line"/>
      <point x="477.153637512" y="327.863307711"/>
      <point x="494.0" y="360.696721945"/>
      <point x="494.0" y="405.0" type="curve" smooth="yes"/>
      <point x="494" y="473"/>
      <point x="447" y="512"/>
      <point x="365" y="512" type="curve" smooth="yes"/>
      <point x="224.0" y="512" type="line"/>
      <point x="224.0" y="211.0" type="line"/>
    </contour>
  </outline>
</glyph>
<glyph name="mu" format="1">
  <advance width="692"/>
  <unicode hex="00B5"/>
  <outline>
    <contour>
      <point x="412.0" y="0" type="line"/>
      <point x="637" y="0" type="line"/>
      <point x="637" y="547" type="line"/>
      <point x="412.0" y="547" type="line"/>
      <point x="412.0" y="276" type="line"/>
      <point x="412" y="223"/>
      <point x="386" y="188"/>
      <point x="345" y="188" type="curve" smooth="yes"/>
      <point x="309" y="188"/>
      <point x="285" y="217"/>
      <point x="285" y="263" type="curve" smooth="yes"/>
      <point x="285" y="547" type="line"/>
      <point x="60.0" y="547" type="line"/>
      <point x="60.0" y="-194.0" type="line"/>
      <point x="285" y="-194.0" type="line"/>
      <point x="285" y="-7.35574" type="line"/>
      <point x="338.739368156" y="1.222767779"/>
      <point x="381.807078637" y="30.5616287762"/>
      <point x="412.0" y="76.42764" type="curve"/>
    </contour>
  </outline>
</glyph>
<glyph name="paragraph" format="1">
  <advance width="682"/>
  <unicode hex="00B6"/>
  <outline>
    <contour>
      <point x="249" y="742" type="line" smooth="yes"/>
      <point x="61" y="742"/>
      <point x="-10" y="629"/>
      <point x="-10" y="513" type="curve" smooth="yes"/>
      <point x="-10" y="427"/>
      <point x="34" y="293"/>
      <point x="206" y="293" type="curve" smooth="yes"/>
      <point x="228" y="293" type="line"/>
      <point x="228" y="-105" type="line"/>
      <point x="394" y="-105" type="line"/>
      <point x="394" y="618" type="line"/>
      <point x="466" y="618" type="line"/>
      <point x="466" y="-105" type="line"/>
      <point x="632" y="-105" type="line"/>
      <point x="632" y="742" type="line"/>
    </contour>
  </outline>
</glyph>
<glyph name="periodcentered" format="1">
  <advance width="265"/>
  <unicode hex="00B7"/>
  <outline>
    <contour>
      <point x="30" y="290" type="curve" smooth="yes"/>
      <point x="30" y="232"/>
      <point x="72" y="193"/>
      <point x="131" y="193" type="curve" smooth="yes"/>
      <point x="194" y="193"/>
      <point x="235" y="232"/>
      <point x="235" y="290" type="curve" smooth="yes"/>
      <point x="235" y="347"/>
      <point x="194" y="386"/>
      <point x="131" y="386" type="curve" smooth="yes"/>
      <point x="72" y="386"/>
      <point x="30" y="347"/>
    </contour>
  </outline>
</glyph>
<glyph name="onesuperior" format="1">
  <advance width="286"/>
  <unicode hex="00B9"/>
  <outline>
    <contour>
      <point x="236" y="701" type="line"/>
      <point x="4" y="701" type="line"/>
      <point x="4" y="582" type="line"/>
      <point x="80" y="582" type="line"/>
      <point x="80" y="280" type="line"/>
      <point x="236" y="280" type="line"/>
    </contour>
  </outline>
</glyph>
<glyph name="questiondown" format="1">
  <advance width="498"/>
  <unicode hex="00BF"/>
  <outline>
    <contour>
      <point x="359" y="458" type="curve" smooth="yes"/>
      <point x="359" y="516"/>
      <point x="317" y="555"/>
      <point x="258" y="555" type="curve" smooth="yes"/>
      <point x="195" y="555"/>
      <point x="154" y="516"/>
      <point x="154" y="458" type="curve" smooth="yes"/>
      <point x="154" y="401"/>
      <point x="195" y="362"/>
      <point x="258" y="362" type="curve" smooth="yes"/>
      <point x="317" y="362"/>
      <point x="359" y="401"/>
    </contour>
    <contour>
      <point x="324" y="86" type="line"/>
      <point x="324" y="30"/>
      <point x="307" y="3"/>
      <point x="270" y="3" type="curve" smooth="yes"/>
      <point x="240" y="3"/>
      <point x="226" y="19"/>
      <point x="226" y="52" type="curve" smooth="yes"/>
      <point x="226" y="136"/>
      <point x="336" y="149"/>
      <point x="336" y="300" type="curve"/>
      <point x="169" y="300" type="line"/>
      <point x="169" y="190"/>
      <point x="19" y="165"/>
      <point x="19" y="18" type="curve" smooth="yes"/>
      <point x="19" y="-96"/>
      <point x="104" y="-162"/>
      <point x="249" y="-162" type="curve" smooth="yes"/>
      <point x="404" y="-162"/>
      <point x="496" y="-70"/>
      <point x="496" y="85" type="curve"/>
    </contour>
  </outline>
</glyph>
<glyph name="Aring" format="1">
  <advance width="799"/>
  <unicode hex="00C5"/>
  <outline>
    <contour>
      <point x="446" y="761" type="curve" smooth="yes"/>
      <point x="446" y="737"/>
      <point x="428" y="719"/>
      <point x="404" y="719" type="curve" smooth="yes"/>
      <point x="380" y="719"/>
      <point x="362" y="737"/>
      <point x="362" y="761" type="curve" smooth="yes"/>
      <point x="362" y="785"/>
      <point x="380" y="803"/>
      <point x="404" y="803" type="curve" smooth="yes"/>
      <point x="428" y="803"/>
      <point x="446" y="785"/>
    </contour>
    <contour>
      <point x="398.0" y="470.0" type="line"/>
      <point x="469.53191" y="265" type="line"/>
      <point x="323.85106" y="265" type="line"/>
    </contour>
    <contour>
      <point x="562" y="0" type="line"/>
      <point x="809.0" y="0" type="line"/>
      <point x="524.10169" y="700.74989" type="line"/>
      <point x="533.015235252" y="718.751690433"/>
      <point x="538.0" y="739.199944912"/>
      <point x="538.0" y="761.0" type="curve" smooth="yes"/>
      <point x="538" y="836"/>
      <point x="479" y="895"/>
      <point x="404" y="895" type="curve" smooth="yes"/>
      <point x="329" y="895"/>
      <point x="270" y="836"/>
      <point x="270" y="761" type="curve" smooth="yes"/>
      <point x="270.0" y="738.335084231"/>
      <point x="275.388125512" y="717.131355041"/>
      <point x="284.97766" y="698.57886" type="curve"/>
      <point x="-10" y="0" type="line"/>
      <point x="228.0" y="0" type="line"/>
      <point x="263.80851" y="99.0" type="line"/>
      <point x="527.45532" y="99.0" type="line"/>
    </contour>
  </outline>
</glyph>
<glyph name="AE" format="1">
  <advance width="1147"/>
  <unicode hex="00C6"/>
  <outline>
    <contour>
      <point x="808" y="0" type="move" name="blwm"/>
    </contour>
    <contour>
      <point x="1101" y="10" type="move" name="ogonek"/>
    </contour>
    <contour>
      <point x="658" y="701" type="move" name="abvm"/>
    </contour>
    <contour>
      <point x="490.0" y="525" type="line"/>
      <point x="507.0" y="525" type="line"/>
      <point x="507.0" y="288" type="line"/>
      <point x="372.62857" y="288" type="line"/>
    </contour>
    <contour>
      <point x="507.0" y="0" type="line"/>
      <point x="1109" y="0" type="line"/>
      <point x="1109" y="176.0" type="line"/>
      <point x="739.0" y="176.0" type="line"/>
      <point x="739.0" y="263" type="line"/>
      <point x="1067" y="263" type="line"/>
      <point x="1067" y="439.0" type="line"/>
      <point x="739.0" y="439.0" type="line"/>
      <point x="739.0" y="525" type="line"/>
      <point x="1100" y="525" type="line"/>
      <point x="1100" y="701.0" type="line"/>
      <point x="380.0" y="701.0" type="line"/>
      <point x="-10" y="0" type="line"/>
      <point x="230.0" y="0" type="line"/>
      <point x="290.41905" y="122.0" type="line"/>
      <point x="507.0" y="122.0" type="line"/>
    </contour>
  </outline>
</glyph>
<glyph name="Eth" format="1">
  <advance width="802"/>
  <unicode hex="00D0"/>
  <outline>
    <contour>
      <point x="397.0" y="0" type="line" smooth="yes"/>
      <point x="634" y="0"/>
      <point x="787" y="138"/>
      <point x="787" y="351" type="curve" smooth="yes"/>
      <point x="787" y="564"/>
      <point x="637" y="701"/>
      <point x="406" y="701" type="curve" smooth="yes"/>
      <point x="93.0" y="701.0" type="line"/>
      <point x="93.0" y="410.0" type="line"/>
      <point x="0" y="410.0" type="line"/>
      <point x="0" y="291" type="line"/>
      <point x="93.0" y="291" type="line"/>
      <point x="93.0" y="0" type="line"/>
    </contour>
    <contour>
      <point x="325" y="180.0" type="line"/>
      <point x="325" y="291" type="line"/>
      <point x="448.0" y="291" type="line"/>
      <point x="448.0" y="410.0" type="line"/>
      <point x="325" y="410.0" type="line"/>
      <point x="325" y="521" type="line"/>
      <point x="401.0" y="521" type="line" smooth="yes"/>
      <point x="491" y="521"/>
      <point x="550" y="453"/>
      <point x="550" y="349" type="curve" smooth="yes"/>
      <point x="550" y="246"/>
      <point x="496" y="180"/>
      <point x="412" y="180" type="curve" smooth="yes"/>
    </contour>
  </outline>
</glyph>
<glyph name="multiply" format="1">
  <advance width="520"/>
  <unicode hex="00D7"/>
  <outline>
    <contour>
      <point x="373.0" y="117.0" type="line"/>
      <point x="472.0" y="216.0" type="line"/>
      <point x="359.0" y="329" type="line"/>
      <point x="472.0" y="442.0" type="line"/>
      <point x="373.0" y="541" type="line"/>
      <point x="260" y="428.0" type="line"/>
      <point x="147" y="541" type="line"/>
      <point x="48.0" y="442.0" type="line"/>
      <point x="161" y="329" type="line"/>
      <point x="48.0" y="216.0" type="line"/>
      <point x="147" y="117.0" type="line"/>
      <point x="260" y="230.0" type="line"/>
    </contour>
  </outline>
</glyph>
<glyph name="Oslash" format="1">
  <advance width="800"/>
  <unicode hex="00D8"/>
  <outline>
    <contour>
      <point x="382" y="701" type="move" name="abvm"/>
    </contour>
    <contour>
      <point x="253.0" y="350.0" type="curve" smooth="yes"/>
      <point x="253.0" y="442.032432845"/>
      <point x="316.414479165" y="509.250504278"/>
      <point x="393.02261" y="514.63699" type="curve"/>
      <point x="292.5469" y="236.72546" type="line"/>
      <point x="268.207510225" y="265.939860856"/>
      <point x="253.0" y="305.254303602"/>
    </contour>
    <contour>
      <point x="403" y="183" type="curve" smooth="yes"/>
      <point x="400.14255" y="183.05387" type="line"/>
      <point x="503.80996" y="469.79352" type="line"/>
      <point x="530.51092031" y="440.499864289"/>
      <point x="547.0" y="398.728097391"/>
      <point x="547.0" y="350.0" type="curve" smooth="yes"/>
      <point x="547" y="254"/>
      <point x="483" y="183"/>
    </contour>
    <contour>
      <point x="400.0" y="-10.0" type="curve" smooth="yes"/>
      <point x="623" y="-10"/>
      <point x="785" y="143"/>
      <point x="785" y="351" type="curve" smooth="yes"/>
      <point x="785.0" y="497.66820232"/>
      <point x="703.670844719" y="615.720590745"/>
      <point x="576.93931" y="672.06617" type="curve"/>
      <point x="625" y="805.0" type="line"/>
      <point x="498.0" y="805.0" type="line"/>
      <point x="461.50353" y="704.05232" type="line"/>
      <point x="441.603974542" y="706.660350278"/>
      <point x="421.074382714" y="708.0"/>
      <point x="400.0" y="708.0" type="curve" smooth="yes"/>
      <point x="177" y="708"/>
      <point x="15" y="559"/>
      <point x="15" y="351" type="curve" smooth="yes"/>
      <point x="15.0" y="205.116305594"/>
      <point x="93.9288814715" y="87.0038842983"/>
      <point x="217.43854" y="28.97895" type="curve"/>
      <point x="169" y="-105.0" type="line"/>
      <point x="296" y="-105.0" type="line"/>
      <point x="332.11498" y="-5.1075" type="line"/>
      <point x="353.998242687" y="-8.33565397999"/>
      <point x="376.665157175" y="-10.0"/>
    </contour>
  </outline>
</glyph>
<glyph name="Thorn" format="1">
  <advance width="698"/>
  <unicode hex="00DE"/>
  <outline>
    <contour>
      <point x="372.0" y="439.0" type="line" smooth="yes"/>
      <point x="413" y="439"/>
      <point x="440" y="408"/>
      <point x="440" y="360" type="curve" smooth="yes"/>
      <point x="440" y="310"/>
      <point x="413" y="278"/>
      <point x="372" y="278" type="curve" smooth="yes"/>
      <point x="282" y="278" type="line"/>
      <point x="282" y="439.0" type="line"/>
    </contour>
    <contour>
      <point x="382.0" y="102.0" type="line" smooth="yes"/>
      <point x="562" y="102"/>
      <point x="678" y="206"/>
      <point x="678" y="367" type="curve" smooth="yes"/>
      <point x="678" y="518"/>
      <point x="562" y="615"/>
      <point x="382" y="615" type="curve" smooth="yes"/>
      <point x="282" y="615" type="line"/>
      <point x="282" y="701.0" type="line"/>
      <point x="50.0" y="701.0" type="line"/>
      <point x="50.0" y="0" type="line"/>
      <point x="282" y="0" type="line"/>
      <point x="282" y="102.0" type="line"/>
    </contour>
  </outline>
</glyph>
<glyph name="ae" format="1">
  <advance width="958"/>
  <unicode hex="00E6"/>
  <outline>
    <contour>
      <point x="481" y="547" type="move" name="abvm"/>
    </contour>
    <contour>
      <point x="652.0" y="405.0" type="curve" smooth="yes"/>
      <point x="692" y="405"/>
      <point x="720" y="372"/>
      <point x="717" y="327" type="curve"/>
      <point x="579.90929" y="327" type="line"/>
      <point x="588.884871997" y="373.127444495"/>
      <point x="613.226008337" y="405.0"/>
    </contour>
    <contour>
      <point x="277" y="133" type="curve" smooth="yes"/>
      <point x="245" y="133"/>
      <point x="226" y="151"/>
      <point x="226" y="181" type="curve" smooth="yes"/>
      <point x="226" y="210"/>
      <point x="244" y="225"/>
      <point x="275" y="225" type="curve" smooth="yes"/>
      <point x="355.0" y="225.0" type="line"/>
      <point x="355.0" y="175.0" type="line"/>
      <point x="336" y="148"/>
      <point x="306" y="133"/>
    </contour>
    <contour>
      <point x="656.0" y="-8.0" type="curve" smooth="yes"/>
      <point x="763" y="-8"/>
      <point x="847" y="28"/>
      <point x="905" y="92" type="curve"/>
      <point x="788.0" y="207.0" type="line"/>
      <point x="754" y="175"/>
      <point x="715" y="158"/>
      <point x="676" y="158" type="curve" smooth="yes"/>
      <point x="632.51271121" y="158.0"/>
      <point x="600.206603366" y="180.362361891"/>
      <point x="585.24119" y="223.0" type="curve"/>
      <point x="942.0" y="223.0" type="line"/>
      <point x="954" y="425"/>
      <point x="842" y="555"/>
      <point x="650" y="555" type="curve" smooth="yes"/>
      <point x="589.321485617" y="555.0"/>
      <point x="537.839224066" y="539.988469644"/>
      <point x="496.9955" y="512.38856" type="curve"/>
      <point x="454.018797837" y="541.529756903"/>
      <point x="394.699233771" y="557.0"/>
      <point x="322.0" y="557.0" type="curve" smooth="yes"/>
      <point x="241" y="557"/>
      <point x="145" y="538"/>
      <point x="51" y="504" type="curve"/>
      <point x="101.0" y="354.0" type="line"/>
      <point x="163" y="377"/>
      <point x="227" y="389"/>
      <point x="269" y="389" type="curve" smooth="yes"/>
      <point x="323.811646753" y="389.0"/>
      <point x="353.715056225" y="366.965790097"/>
      <point x="354.95951" y="329" type="curve"/>
      <point x="228.0" y="329" type="line" smooth="yes"/>
      <point x="89" y="327"/>
      <point x="15" y="270"/>
      <point x="15" y="162" type="curve" smooth="yes"/>
      <point x="15" y="58"/>
      <point x="91" y="-11"/>
      <point x="220" y="-11" type="curve" smooth="yes"/>
      <point x="322.272159556" y="-11.0"/>
      <point x="394.99952815" y="27.4082282504"/>
      <point x="436.27773" y="92.8052" type="curve"/>
      <point x="480.303288416" y="28.9009964824"/>
      <point x="554.062172824" y="-8.0"/>
    </contour>
  </outline>
</glyph>
<glyph name="eth" format="1">
  <advance width="617"/>
  <unicode hex="00F0"/>
  <outline>
    <contour>
      <point x="284" y="-10" type="curve" smooth="yes"/>
      <point x="477" y="-10"/>
      <point x="602" y="113"/>
      <point x="602" y="303" type="curve" smooth="yes"/>
      <point x="602.0" y="405.143313888"/>
      <point x="563.677661811" y="501.431826107"/>
      <point x="495.95674" y="581.01123" type="curve"/>
      <point x="592" y="614" type="line"/>
      <point x="558" y="715.0" type="line"/>
      <point x="407.69116" y="663.04542" type="line"/>
      <point x="357.850048353" y="699.925638695"/>
      <point x="299.755794119" y="730.221145476"/>
      <point x="235.0" y="752.0" type="curve"/>
      <point x="84" y="663" type="line"/>
      <point x="129.49404385" y="643.728217536"/>
      <point x="172.293155375" y="620.563755046"/>
      <point x="210.69451" y="594.9531" type="curve"/>
      <point x="98.0" y="556" type="line"/>
      <point x="132" y="456.0" type="line"/>
      <point x="307.19108" y="516.17433" type="line"/>
      <point x="341.62483333" y="481.146802762"/>
      <point x="367.234203073" y="444.561642062"/>
      <point x="381.0" y="409.0" type="curve"/>
      <point x="349" y="433"/>
      <point x="292" y="448"/>
      <point x="236" y="448" type="curve" smooth="yes"/>
      <point x="98" y="448"/>
      <point x="9" y="361"/>
      <point x="9" y="227" type="curve" smooth="yes"/>
      <point x="9" y="83"/>
      <point x="117" y="-10"/>
    </contour>
    <contour>
      <point x="361" y="237" type="curve" smooth="yes"/>
      <point x="361" y="199"/>
      <point x="334" y="174"/>
      <point x="292" y="174" type="curve" smooth="yes"/>
      <point x="251" y="174"/>
      <point x="224" y="199"/>
      <point x="224" y="238" type="curve" smooth="yes"/>
      <point x="224" y="276"/>
      <point x="250" y="300"/>
      <point x="291" y="300" type="curve" smooth="yes"/>
      <point x="334" y="300"/>
      <point x="361" y="275"/>
    </contour>
  </outline>
</glyph>
<glyph name="divide" format="1">
  <advance width="520"/>
  <unicode hex="00F7"/>
  <outline>
    <contour>
      <point x="159.8" y="508.4" type="curve" smooth="yes"/>
      <point x="159.8" y="454.8"/>
      <point x="197.4" y="417.2"/>
      <point x="251.0" y="417.2" type="curve" smooth="yes"/>
      <point x="304.6" y="417.2"/>
      <point x="342.2" y="454.8"/>
      <point x="342.2" y="508.4" type="curve" smooth="yes"/>
      <point x="342.2" y="562.0"/>
      <point x="304.6" y="599.6"/>
      <point x="251.0" y="599.6" type="curve" smooth="yes"/>
      <point x="197.4" y="599.6"/>
      <point x="159.8" y="562.0"/>
    </contour>
    <contour>
      <point x="30" y="399" type="line"/>
      <point x="30" y="259" type="line"/>
      <point x="490" y="259" type="line"/>
      <point x="490" y="399" type="line"/>
    </contour>
    <contour>
      <point x="159.8" y="148.4" type="curve" smooth="yes"/>
      <point x="159.8" y="94.8"/>
      <point x="197.4" y="57.2"/>
      <point x="251.0" y="57.2" type="curve" smooth="yes"/>
      <point x="304.6" y="57.2"/>
      <point x="342.2" y="94.8"/>
      <point x="342.2" y="148.4" type="curve" smooth="yes"/>
      <point x="342.2" y="202.0"/>
      <point x="304.6" y="239.6"/>
      <point x="251.0" y="239.6" type="curve" smooth="yes"/>
      <point x="197.4" y="239.6"/>
      <point x="159.8" y="202.0"/>
    </contour>
  </outline>
</glyph>
<glyph name="oslash" format="1">
  <advance width="648"/>
  <unicode hex="00F8"/>
  <outline>
    <contour>
      <point x="324" y="547" type="move" name="abvm"/>
    </contour>
    <contour>
      <point x="227.0" y="271.0" type="curve" smooth="yes"/>
      <point x="227.0" y="345.721026169"/>
      <point x="263.73178784" y="394.343150451"/>
      <point x="321.03926" y="395.95144" type="curve"/>
      <point x="251.30236" y="182.82295" type="line"/>
      <point x="235.724143095" y="204.368251985"/>
      <point x="227.0" y="234.584759367"/>
    </contour>
    <contour>
      <point x="421.0" y="271.0" type="curve" smooth="yes"/>
      <point x="421.0" y="196.415547411"/>
      <point x="384.402364685" y="147.83467781"/>
      <point x="327.27477" y="146.06447" type="curve"/>
      <point x="396.90976" y="358.8815" type="line"/>
      <point x="412.355029877" y="337.356775256"/>
      <point x="421.0" y="307.249627014"/>
    </contour>
    <contour>
      <point x="324.0" y="-8.0" type="curve" smooth="yes"/>
      <point x="512" y="-8"/>
      <point x="633" y="103"/>
      <point x="633" y="274" type="curve" smooth="yes"/>
      <point x="633.0" y="401.235165364"/>
      <point x="566.010387335" y="494.698707815"/>
      <point x="454.27588" y="534.20269" type="curve"/>
      <point x="501.0" y="677" type="line"/>
      <point x="413.0" y="677" type="line"/>
      <point x="372.24745" y="552.45287" type="line"/>
      <point x="356.713360219" y="554.140476598"/>
      <point x="340.618444055" y="555.0"/>
      <point x="324.0" y="555.0" type="curve" smooth="yes"/>
      <point x="136" y="555"/>
      <point x="15" y="445"/>
      <point x="15" y="274" type="curve" smooth="yes"/>
      <point x="15.0" y="146.085304817"/>
      <point x="82.7070715262" y="51.7443641097"/>
      <point x="195.51818" y="12.33647" type="curve"/>
      <point x="146" y="-139" type="line"/>
      <point x="234.0" y="-139" type="line"/>
      <point x="277.64097" y="-5.62534" type="line"/>
      <point x="292.589994253" y="-7.20143283904"/>
      <point x="308.053988118" y="-8.0"/>
    </contour>
  </outline>
</glyph>
<glyph name="thorn" format="1">
  <advance width="690"/>
  <unicode hex="00FE"/>
  <outline>
    <contour>
      <point x="173" y="0" type="move" name="blwm"/>
    </contour>
    <contour>
      <point x="173" y="742" type="move" name="abvm"/>
    </contour>
    <contour>
      <point x="315" y="547" type="move" name="topright"/>
    </contour>
    <contour>
      <point x="448" y="276" type="curve" smooth="yes"/>
      <point x="448" y="212"/>
      <point x="416" y="170"/>
      <point x="366" y="170" type="curve" smooth="yes"/>
      <point x="317" y="170"/>
      <point x="285" y="212"/>
      <point x="285" y="276" type="curve" smooth="yes"/>
      <point x="285" y="340"/>
      <point x="317" y="382"/>
      <point x="366" y="382" type="curve" smooth="yes"/>
      <point x="416" y="382"/>
      <point x="448" y="340"/>
    </contour>
    <contour>
      <point x="285" y="-194.0" type="line"/>
      <point x="285" y="56.13569" type="line"/>
      <point x="321.439669319" y="14.9977529961"/>
      <point x="371.015748819" y="-8.0"/>
      <point x="430.0" y="-8.0" type="curve" smooth="yes"/>
      <point x="579" y="-8"/>
      <point x="675" y="101"/>
      <point x="675" y="270" type="curve" smooth="yes"/>
      <point x="675" y="443"/>
      <point x="576" y="555"/>
      <point x="424" y="555" type="curve" smooth="yes"/>
      <point x="367.55842699" y="555.0"/>
      <point x="320.14647746" y="532.526270449"/>
      <point x="285" y="492.23641" type="curve"/>
      <point x="285" y="742.0" type="line"/>
      <point x="60.0" y="742.0" type="line"/>
      <point x="60.0" y="-194.0" type="line"/>
    </contour>
  </outline>
</glyph>
<glyph name="gcommaaccent" format="1">
  <advance width="654"/>
  <unicode hex="0123"/>
  <outline>
    <contour>
      <point x="320" y="580" type="curve" smooth="yes"/>
      <point x="380" y="580"/>
      <point x="423" y="622"/>
      <point x="423" y="682" type="curve" smooth="yes"/>
      <point x="423.0" y="713.136467995"/>
      <point x="410.765877129" y="741.587396823"/>
      <point x="384.34165" y="760.31405" type="curve"/>
      <point x="436.0" y="887.0" type="line"/>
      <point x="332" y="887.0" type="line"/>
      <point x="245.0" y="761.0" type="line" smooth="yes"/>
      <point x="229" y="738"/>
      <point x="218" y="712"/>
      <point x="218" y="681" type="curve" smooth="yes"/>
      <point x="218" y="615"/>
      <point x="266" y="580"/>
    </contour>
    <contour>
      <point x="377" y="291" type="curve" smooth="yes"/>
      <point x="377" y="232"/>
      <point x="347" y="193"/>
      <point x="301" y="193" type="curve" smooth="yes"/>
      <point x="255" y="193"/>
      <point x="225" y="232"/>
      <point x="225" y="291" type="curve" smooth="yes"/>
      <point x="225" y="351"/>
      <point x="255" y="390"/>
      <point x="301" y="390" type="curve" smooth="yes"/>
      <point x="347" y="390"/>
      <point x="377" y="351"/>
    </contour>
    <contour>
      <point x="295" y="-204" type="curve" smooth="yes"/>
      <point x="476" y="-204"/>
      <point x="601" y="-107"/>
      <point x="601" y="45" type="curve" smooth="yes"/>
      <point x="601" y="547" type="line"/>
      <point x="377.0" y="547" type="line"/>
      <point x="377.0" y="495.59653" type="line"/>
      <point x="342.60862077" y="533.70612889"/>
      <point x="294.940923326" y="555.0"/>
      <point x="236.0" y="555.0" type="curve" smooth="yes"/>
      <point x="107" y="555"/>
      <point x="15" y="454"/>
      <point x="15" y="297" type="curve" smooth="yes"/>
      <point x="15" y="136"/>
      <point x="111" y="33"/>
      <point x="240" y="33" type="curve" smooth="yes"/>
      <point x="297.415467249" y="33.0"/>
      <point x="343.563477879" y="53.7240719958"/>
      <point x="377.0" y="91.04384" type="curve"/>
      <point x="377.0" y="39" type="line" smooth="yes"/>
      <point x="377" y="-3"/>
      <point x="341" y="-30"/>
      <point x="275" y="-30" type="curve" smooth="yes"/>
      <point x="222" y="-30"/>
      <point x="156" y="-12"/>
      <point x="108" y="18" type="curve"/>
      <point x="37" y="-133" type="line"/>
      <point x="94" y="-171"/>
      <point x="190" y="-204"/>
    </contour>
  </outline>
</glyph>
<glyph name="Hbar" format="1">
  <advance width="881"/>
  <unicode hex="0126"/>
  <outline>
    <contour>
      <point x="332" y="429.0" type="line"/>
      <point x="332" y="508.0" type="line"/>
      <point x="549" y="508.0" type="line"/>
      <point x="549" y="429.0" type="line"/>
    </contour>
    <contour>
      <point x="332" y="253.0" type="line"/>
      <point x="549" y="253.0" type="line"/>
      <point x="549" y="0" type="line"/>
      <point x="781.0" y="0" type="line"/>
      <point x="781.0" y="508.0" type="line"/>
      <point x="861.0" y="508.0" type="line"/>
      <point x="861.0" y="627" type="line"/>
      <point x="781.0" y="627" type="line"/>
      <point x="781.0" y="701.0" type="line"/>
      <point x="549" y="701.0" type="line"/>
      <point x="549" y="627" type="line"/>
      <point x="332" y="627" type="line"/>
      <point x="332" y="701.0" type="line"/>
      <point x="100.0" y="701.0" type="line"/>
      <point x="100.0" y="627" type="line"/>
      <point x="20" y="627" type="line"/>
      <point x="20" y="508.0" type="line"/>
      <point x="100.0" y="508.0" type="line"/>
      <point x="100.0" y="0" type="line"/>
      <point x="332" y="0" type="line"/>
    </contour>
  </outline>
</glyph>
<glyph name="hbar" format="1">
  <advance width="677"/>
  <unicode hex="0127"/>
  <outline>
    <contour>
      <point x="285" y="271" type="line"/>
      <point x="285" y="324"/>
      <point x="313" y="359"/>
      <point x="357" y="359" type="curve" smooth="yes"/>
      <point x="396" y="359"/>
      <point x="422" y="330"/>
      <point x="422" y="284" type="curve" smooth="yes"/>
      <point x="422.0" y="0" type="line"/>
      <point x="647" y="0" type="line"/>
      <point x="647" y="349.0" type="line" smooth="yes"/>
      <point x="647" y="475"/>
      <point x="566" y="557"/>
      <point x="451" y="557" type="curve" smooth="yes"/>
      <point x="378.88630881" y="557.0"/>
      <point x="322.18116416" y="525.041533104"/>
      <point x="285" y="468.72237" type="curve"/>
      <point x="285" y="563" type="line"/>
      <point x="382.0" y="563" type="line"/>
      <point x="382.0" y="682" type="line"/>
      <point x="285" y="682" type="line"/>
      <point x="285" y="742.0" type="line"/>
      <point x="60.0" y="742.0" type="line"/>
      <point x="60.0" y="682" type="line"/>
      <point x="-16" y="682" type="line"/>
      <point x="-16" y="563" type="line"/>
      <point x="60.0" y="563" type="line"/>
      <point x="60.0" y="0" type="line"/>
      <point x="285" y="0" type="line"/>
    </contour>
  </outline>
</glyph>
<glyph name="idotless" format="1">
  <advance width="335"/>
  <unicode hex="0131"/>
  <outline>
    <contour>
      <point x="291" y="10" type="move" name="ogonek"/>
    </contour>
    <contour>
      <point x="168" y="547" type="move" name="abvm"/>
    </contour>
    <contour>
      <point x="55" y="547" type="line"/>
      <point x="55" y="0" type="line"/>
      <point x="280" y="0" type="line"/>
      <point x="280" y="547" type="line"/>
    </contour>
  </outline>
</glyph>
<glyph name="kgreenlandic" format="1">
  <advance width="655"/>
  <unicode hex="0138"/>
  <outline>
    <contour>
      <point x="324" y="0" type="move" name="blwm"/>
    </contour>
    <contour>
      <point x="291" y="10" type="move" name="ogonek"/>
    </contour>
    <contour>
      <point x="168" y="547" type="move" name="abvm"/>
    </contour>
    <contour>
      <point x="389.0" y="0" type="line"/>
      <point x="656" y="0" type="line"/>
      <point x="459.89394" y="336.18182" type="line"/>
      <point x="659" y="547" type="line"/>
      <point x="405.0" y="547" type="line"/>
      <point x="280" y="407.40146" type="line"/>
      <point x="280" y="547" type="line"/>
      <point x="55.0" y="547" type="line"/>
      <point x="55.0" y="0" type="line"/>
      <point x="280" y="0" type="line"/>
      <point x="280" y="145.70588" type="line"/>
      <point x="305.14367" y="172.3286" type="line"/>
    </contour>
  </outline>
</glyph>
<glyph name="ldot" format="1">
  <advance width="457"/>
  <unicode hex="0140"/>
  <outline>
    <contour>
      <point x="60" y="742" type="line"/>
      <point x="60" y="0" type="line"/>
      <point x="285" y="0" type="line"/>
      <point x="285" y="742" type="line"/>
    </contour>
    <contour>
      <point x="298" y="314" type="curve" smooth="yes"/>
      <point x="298" y="254"/>
      <point x="340" y="212"/>
      <point x="401" y="212" type="curve" smooth="yes"/>
      <point x="461" y="212"/>
      <point x="503" y="254"/>
      <point x="503" y="314" type="curve" smooth="yes"/>
      <point x="503" y="375"/>
      <point x="461" y="417"/>
      <point x="401" y="417" type="curve" smooth="yes"/>
      <point x="340" y="417"/>
      <point x="298" y="375"/>
    </contour>
  </outline>
</glyph>
<glyph name="Lslash" format="1">
  <advance width="606"/>
  <unicode hex="0141"/>
  <outline>
    <contour>
      <point x="596" y="0" type="line"/>
      <point x="596" y="193.0" type="line"/>
      <point x="304" y="193.0" type="line"/>
      <point x="304" y="363.48276" type="line"/>
      <point x="472.0" y="412.0" type="line"/>
      <point x="434.0" y="547" type="line"/>
      <point x="304" y="509.17672" type="line"/>
      <point x="304" y="701.0" type="line"/>
      <point x="72" y="701.0" type="line"/>
      <point x="72" y="441.67672" type="line"/>
      <point x="-30.0" y="412.0" type="line"/>
      <point x="8" y="278" type="line"/>
      <point x="72" y="296.48276" type="line"/>
      <point x="72" y="0" type="line"/>
    </contour>
  </outline>
</glyph>
<glyph name="lslash" format="1">
  <advance width="373"/>
  <unicode hex="0142"/>
  <outline>
    <contour>
      <point x="309" y="0" type="line"/>
      <point x="309" y="380.71059" type="line"/>
      <point x="418.0" y="412.0" type="line"/>
      <point x="380.0" y="547" type="line"/>
      <point x="309" y="526.45176" type="line"/>
      <point x="309" y="742.0" type="line"/>
      <point x="84" y="742.0" type="line"/>
      <point x="84" y="461.33412" type="line"/>
      <point x="-45.0" y="424.0" type="line"/>
      <point x="-7.0" y="290" type="line"/>
      <point x="84" y="316.12235" type="line"/>
      <point x="84" y="0" type="line"/>
    </contour>
  </outline>
</glyph>
<glyph name="Eng" format="1">
  <advance width="781"/>
  <unicode hex="014A"/>
  <outline>
    <contour>
      <point x="391" y="0" type="move" name="blwm"/>
    </contour>
    <contour>
      <point x="391" y="701" type="move" name="abvm"/>
    </contour>
    <contour>
      <point x="467" y="-225" type="curve" smooth="yes"/>
      <point x="620" y="-225"/>
      <point x="722" y="-143"/>
      <point x="731" y="0" type="curve"/>
      <point x="731.0" y="701.0" type="line"/>
      <point x="521" y="701.0" type="line"/>
      <point x="521" y="341" type="line"/>
      <point x="244.0" y="701.0" type="line"/>
      <point x="50.0" y="701.0" type="line"/>
      <point x="50.0" y="0" type="line"/>
      <point x="261" y="0" type="line"/>
      <point x="261" y="358.0" type="line"/>
      <point x="524.014" y="16.84416" type="line"/>
      <point x="519.761737883" y="-16.2676101761"/>
      <point x="501.621644564" y="-32.0"/>
      <point x="467.0" y="-32.0" type="curve" smooth="yes"/>
      <point x="444" y="-32"/>
      <point x="412" y="-25"/>
      <point x="373" y="-10" type="curve"/>
      <point x="298" y="-185.0" type="line"/>
      <point x="348" y="-211"/>
      <point x="403" y="-225"/>
    </contour>
  </outline>
</glyph>
<glyph name="eng" format="1">
  <advance width="682"/>
  <unicode hex="014B"/>
  <outline>
    <contour>
      <point x="347" y="0" type="move" name="blwm"/>
    </contour>
    <contour>
      <point x="360" y="547" type="move" name="abvm"/>
    </contour>
    <contour>
      <point x="425" y="-203" type="curve" smooth="yes"/>
      <point x="557" y="-204"/>
      <point x="642" y="-132"/>
      <point x="642" y="-23" type="curve" smooth="yes"/>
      <point x="642" y="349.0" type="line" smooth="yes"/>
      <point x="642" y="475"/>
      <point x="561" y="557"/>
      <point x="446" y="557" type="curve" smooth="yes"/>
      <point x="373.88630881" y="557.0"/>
      <point x="317.18116416" y="525.041533104"/>
      <point x="280" y="468.72237" type="curve"/>
      <point x="280" y="547" type="line"/>
      <point x="55.0" y="547" type="line"/>
      <point x="55.0" y="0" type="line"/>
      <point x="280" y="0" type="line"/>
      <point x="280" y="271" type="line"/>
      <point x="280" y="324"/>
      <point x="308" y="359"/>
      <point x="352" y="359" type="curve" smooth="yes"/>
      <point x="391" y="359"/>
      <point x="417" y="330"/>
      <point x="417" y="284" type="curve" smooth="yes"/>
      <point x="417.0" y="17" type="line" smooth="yes"/>
      <point x="417" y="-14"/>
      <point x="401" y="-30"/>
      <point x="373" y="-29" type="curve"/>
      <point x="355" y="-29"/>
      <point x="337" y="-24"/>
      <point x="318" y="-15" type="curve"/>
      <point x="268" y="-169" type="line"/>
      <point x="311" y="-191"/>
      <point x="365" y="-203"/>
    </contour>
  </outline>
</glyph>
<glyph name="OE" format="1">
  <advance width="1127"/>
  <unicode hex="0152"/>
  <outline>
    <contour>
      <point x="788" y="0" type="move" name="blwm"/>
    </contour>
    <contour>
      <point x="1081" y="10" type="move" name="ogonek"/>
    </contour>
    <contour>
      <point x="557" y="701" type="move" name="abvm"/>
    </contour>
    <contour>
      <point x="399.0" y="183.0" type="line"/>
      <point x="314" y="183"/>
      <point x="253" y="253"/>
      <point x="253" y="348" type="curve" smooth="yes"/>
      <point x="253" y="444"/>
      <point x="314" y="514"/>
      <point x="399" y="514" type="curve"/>
      <point x="487.0" y="514" type="line"/>
      <point x="487.0" y="184.1" type="line"/>
    </contour>
    <contour>
      <point x="399" y="0" type="curve"/>
      <point x="1089" y="0" type="line"/>
      <point x="1089" y="176.0" type="line"/>
      <point x="719.0" y="176.0" type="line"/>
      <point x="719.0" y="263" type="line"/>
      <point x="1047" y="263" type="line"/>
      <point x="1047" y="439.0" type="line"/>
      <point x="719.0" y="439.0" type="line"/>
      <point x="719.0" y="525" type="line"/>
      <point x="1080" y="525" type="line"/>
      <point x="1080" y="701.0" type="line"/>
      <point x="399.0" y="701.0" type="line"/>
      <point x="176" y="701"/>
      <point x="15" y="551"/>
      <point x="15" y="349" type="curve" smooth="yes"/>
      <point x="15" y="146"/>
      <point x="178" y="0"/>
    </contour>
  </outline>
</glyph>
<glyph name="oe" format="1">
  <advance width="999"/>
  <unicode hex="0153"/>
  <outline>
    <contour>
      <point x="505" y="547" type="move" name="abvm"/>
    </contour>
    <contour>
      <point x="692.0" y="405.0" type="curve" smooth="yes"/>
      <point x="732" y="405"/>
      <point x="761" y="372"/>
      <point x="758" y="327" type="curve"/>
      <point x="618.04597" y="327" type="line"/>
      <point x="627.328086246" y="373.120050619"/>
      <point x="652.445941377" y="405.0"/>
    </contour>
    <contour>
      <point x="406" y="271" type="curve" smooth="yes"/>
      <point x="406" y="207"/>
      <point x="374" y="165"/>
      <point x="324" y="165" type="curve" smooth="yes"/>
      <point x="274" y="165"/>
      <point x="242" y="207"/>
      <point x="242" y="271" type="curve" smooth="yes"/>
      <point x="242" y="335"/>
      <point x="274" y="377"/>
      <point x="324" y="377" type="curve" smooth="yes"/>
      <point x="374" y="377"/>
      <point x="406" y="335"/>
    </contour>
    <contour>
      <point x="946" y="92" type="curve"/>
      <point x="829.0" y="207.0" type="line"/>
      <point x="794" y="175"/>
      <point x="755" y="158"/>
      <point x="716" y="158" type="curve" smooth="yes"/>
      <point x="671.796038189" y="158.0"/>
      <point x="638.775163078" y="180.3661734"/>
      <point x="623.46088" y="223.0" type="curve"/>
      <point x="983.0" y="223.0" type="line"/>
      <point x="995" y="425"/>
      <point x="882" y="555"/>
      <point x="690" y="555" type="curve" smooth="yes"/>
      <point x="613.435320544" y="555.0"/>
      <point x="554.029737263" y="529.261355739"/>
      <point x="513.0115" y="483.23482" type="curve"/>
      <point x="469.587934066" y="529.230753145"/>
      <point x="406.281735193" y="555.0"/>
      <point x="324.0" y="555.0" type="curve" smooth="yes"/>
      <point x="136" y="555"/>
      <point x="15" y="445"/>
      <point x="15" y="274" type="curve" smooth="yes"/>
      <point x="15" y="103"/>
      <point x="136" y="-8"/>
      <point x="324" y="-8" type="curve" smooth="yes"/>
      <point x="405.518516513" y="-8.0"/>
      <point x="468.411885922" y="17.5233497342"/>
      <point x="511.79802" y="62.96316" type="curve"/>
      <point x="553.039362432" y="17.5513681424"/>
      <point x="614.066848794" y="-8.0"/>
      <point x="696.0" y="-8.0" type="curve" smooth="yes"/>
      <point x="803" y="-8"/>
      <point x="887" y="28"/>
    </contour>
  </outline>
</glyph>
<glyph name="tbar" format="1">
  <advance width="460"/>
  <unicode hex="0167"/>
  <outline>
    <contour>
      <point x="272" y="0" type="move" name="blwm"/>
    </contour>
    <contour>
      <point x="230" y="274" type="move" name="center"/>
    </contour>
    <contour>
      <point x="289" y="-10" type="curve"/>
      <point x="347" y="-10"/>
      <point x="409" y="3"/>
      <point x="445" y="24" type="curve"/>
      <point x="407.0" y="178.0" type="line"/>
      <point x="386" y="170"/>
      <point x="364" y="164"/>
      <point x="351" y="164" type="curve"/>
      <point x="324" y="163"/>
      <point x="307" y="181"/>
      <point x="307" y="210" type="curve"/>
      <point x="307" y="232.0" type="line"/>
      <point x="435.0" y="232.0" type="line"/>
      <point x="435.0" y="349.0" type="line"/>
      <point x="307" y="349.0" type="line"/>
      <point x="307" y="400.0" type="line"/>
      <point x="435.0" y="400.0" type="line"/>
      <point x="435.0" y="517" type="line"/>
      <point x="307" y="517" type="line"/>
      <point x="307" y="670" type="line"/>
      <point x="83" y="670" type="line"/>
      <point x="83" y="517" type="line"/>
      <point x="8" y="517" type="line"/>
      <point x="8" y="400.0" type="line"/>
      <point x="83" y="400.0" type="line"/>
      <point x="83" y="349.0" type="line"/>
      <point x="8" y="349.0" type="line"/>
      <point x="8" y="232.0" type="line"/>
      <point x="83" y="232.0" type="line"/>
      <point x="83" y="176.0" type="line"/>
      <point x="83" y="62"/>
      <point x="164" y="-11"/>
    </contour>
  </outline>
</glyph>
<glyph name="Uogonek" format="1">
  <advance width="753"/>
  <unicode hex="0172"/>
  <outline>
    <contour>
      <point x="462" y="-204" type="curve" smooth="yes"/>
      <point x="511" y="-204"/>
      <point x="554" y="-179"/>
      <point x="582" y="-128" type="curve"/>
      <point x="527" y="-64" type="line"/>
      <point x="516" y="-83"/>
      <point x="503" y="-94"/>
      <point x="490" y="-94" type="curve" smooth="yes"/>
      <point x="482" y="-94"/>
      <point x="476" y="-89"/>
      <point x="476" y="-79" type="curve" smooth="yes"/>
      <point x="476.0" y="-60.4785392566"/>
      <point x="496.582670484" y="-24.8048531097"/>
      <point x="524.24643" y="14.50848" type="curve"/>
      <point x="642.281651675" y="58.7680393719"/>
      <point x="713.0" y="160.339391285"/>
      <point x="713.0" y="297.0" type="curve" smooth="yes"/>
      <point x="713.0" y="701.0" type="line"/>
      <point x="481.0" y="701.0" type="line"/>
      <point x="481.0" y="297" type="line" smooth="yes"/>
      <point x="481" y="227"/>
      <point x="437" y="183"/>
      <point x="380" y="183" type="curve" smooth="yes"/>
      <point x="322" y="183"/>
      <point x="272" y="228"/>
      <point x="272" y="297" type="curve" smooth="yes"/>
      <point x="272" y="701.0" type="line"/>
      <point x="40" y="701.0" type="line"/>
      <point x="40" y="297" type="line" smooth="yes"/>
      <point x="40" y="111"/>
      <point x="175" y="-10"/>
      <point x="379" y="-10" type="curve" smooth="yes"/>
      <point x="387.027928679" y="-10.0"/>
      <point x="394.943255014" y="-9.81076550501"/>
      <point x="402.74233" y="-9.42976" type="curve"/>
      <point x="381.9018515" y="-42.4983763776"/>
      <point x="366.0" y="-78.9750183354"/>
      <point x="366.0" y="-116.0" type="curve" smooth="yes"/>
      <point x="366" y="-185"/>
      <point x="420" y="-204"/>
    </contour>
  </outline>
</glyph>
<glyph name="Delta" format="1">
  <advance width="799"/>
  <unicode hex="0394"/>
  <outline>
    <contour>
      <point x="398.0" y="470.0" type="line"/>
      <point x="504.0766" y="166" type="line"/>
      <point x="288.04255" y="166" type="line"/>
    </contour>
    <contour>
      <point x="-10" y="0" type="line"/>
      <point x="809.0" y="0" type="line"/>
      <point x="524" y="701.0" type="line"/>
      <point x="286" y="701.0" type="line"/>
    </contour>
  </outline>
</glyph>
<glyph name="uni0964" format="1">
  <advance width="365"/>
  <unicode hex="0964"/>
  <outline>
    <contour>
      <point x="332" y="-55" type="line"/>
      <point x="332" y="680" type="line"/>
      <point x="120" y="680" type="line"/>
      <point x="120" y="-55" type="line"/>
    </contour>
  </outline>
</glyph>
<glyph name="uni0A01" format="1">
  <advance width="0"/>
  <unicode hex="0A01"/>
  <outline>
    <contour>
      <point x="0" y="692" type="move" name="_abvm_candra"/>
    </contour>
    <contour>
      <point x="0" y="960" type="move" name="abvm_bindu"/>
    </contour>
    <contour>
      <point x="74" y="934" type="curve" smooth="yes"/>
      <point x="74" y="977"/>
      <point x="43" y="1006"/>
      <point x="-2" y="1006" type="curve" smooth="yes"/>
      <point x="-46" y="1006"/>
      <point x="-76" y="977"/>
      <point x="-76" y="934" type="curve" smooth="yes"/>
      <point x="-76" y="891"/>
      <point x="-46" y="863"/>
      <point x="-2" y="863" type="curve" smooth="yes"/>
      <point x="43" y="863"/>
      <point x="74" y="891"/>
    </contour>
    <contour>
      <point x="226" y="933" type="curve"/>
      <point x="107" y="956" type="line"/>
      <point x="99" y="894"/>
      <point x="85" y="835"/>
      <point x="-2" y="835" type="curve" smooth="yes"/>
      <point x="-88" y="835"/>
      <point x="-100" y="893"/>
      <point x="-107" y="955" type="curve"/>
      <point x="-227" y="933" type="line"/>
      <point x="-224" y="819"/>
      <point x="-136" y="719"/>
      <point x="2" y="719" type="curve" smooth="yes"/>
      <point x="140" y="719"/>
      <point x="223" y="819"/>
    </contour>
  </outline>
</glyph>
<glyph name="uni0A02" format="1">
  <advance width="0"/>
  <unicode hex="0A02"/>
  <outline>
    <contour>
      <point x="0" y="682" type="move" name="_abvm_bindu"/>
    </contour>
    <component base="uni0A3C" yOffset="940"/>
  </outline>
</glyph>
<glyph name="uni0A03" format="1">
  <advance width="533"/>
  <unicode hex="0A03"/>
  <outline>
    <contour>
      <point x="433" y="519" type="curve" smooth="yes"/>
      <point x="433" y="607"/>
      <point x="357" y="680"/>
      <point x="268" y="680" type="curve" smooth="yes"/>
      <point x="176" y="680"/>
      <point x="100" y="607"/>
      <point x="100" y="519" type="curve" smooth="yes"/>
      <point x="100" y="433"/>
      <point x="176" y="358"/>
      <point x="268" y="358" type="curve" smooth="yes"/>
      <point x="357" y="358"/>
      <point x="433" y="433"/>
    </contour>
    <contour>
      <point x="229" y="519" type="curve" smooth="yes"/>
      <point x="229" y="541"/>
      <point x="246" y="558"/>
      <point x="266" y="558" type="curve" smooth="yes"/>
      <point x="286" y="558"/>
      <point x="302" y="541"/>
      <point x="302" y="519" type="curve" smooth="yes"/>
      <point x="302" y="497"/>
      <point x="286" y="479"/>
      <point x="266" y="479" type="curve" smooth="yes"/>
      <point x="246" y="479"/>
      <point x="229" y="497"/>
    </contour>
    <contour>
      <point x="433" y="162" type="curve" smooth="yes"/>
      <point x="433" y="248"/>
      <point x="357" y="322"/>
      <point x="268" y="322" type="curve" smooth="yes"/>
      <point x="176" y="322"/>
      <point x="100" y="248"/>
      <point x="100" y="162" type="curve" smooth="yes"/>
      <point x="100" y="74"/>
      <point x="176" y="0"/>
      <point x="268" y="0" type="curve" smooth="yes"/>
      <point x="357" y="0"/>
      <point x="433" y="74"/>
    </contour>
    <contour>
      <point x="229" y="162" type="curve" smooth="yes"/>
      <point x="229" y="183"/>
      <point x="246" y="201"/>
      <point x="266" y="201" type="curve" smooth="yes"/>
      <point x="286" y="201"/>
      <point x="302" y="183"/>
      <point x="302" y="162" type="curve" smooth="yes"/>
      <point x="302" y="139"/>
      <point x="286" y="122"/>
      <point x="266" y="122" type="curve" smooth="yes"/>
      <point x="246" y="122"/>
      <point x="229" y="139"/>
    </contour>
  </outline>
</glyph>
<glyph name="uni0A06" format="1">
  <advance width="1261"/>
  <unicode hex="0A06"/>
  <outline>
    <contour>
      <point x="1062" y="694" type="move" name="abvm_bindu"/>
    </contour>
    <contour>
      <point x="1062" y="704" type="move" name="abvm_candra"/>
    </contour>
    <contour>
      <point x="1062" y="684" type="move" name="abvm"/>
    </contour>
    <component base="uni0A05"/>
    <component base="uni0A3E" xOffset="921"/>
  </outline>
</glyph>
<glyph name="uni0A0F" format="1">
  <advance width="653"/>
  <unicode hex="0A0F"/>
  <outline>
    <contour>
      <point x="453" y="670" type="move" name="_abvm"/>
    </contour>
    <contour>
      <point x="656" y="680" type="move" name="abvm_bindu"/>
    </contour>
    <contour>
      <point x="410" y="2" type="move" name="blwm"/>
    </contour>
    <contour>
      <point x="778" y="690" type="move" name="abvm_candra"/>
    </contour>
    <contour>
      <point x="412" y="30" type="move" name="blwm_caret_1"/>
    </contour>
    <contour>
      <point x="113" y="-65" type="move" name="blwm_nukta"/>
    </contour>
    <contour>
      <point x="422" y="670" type="move" name="abvm"/>
    </contour>
    <contour>
      <point x="377.0" y="432.69562" type="line"/>
      <point x="300.1583941" y="438.275489791"/>
      <point x="261.211630901" y="478.306325687"/>
      <point x="249.00844" y="530" type="curve"/>
      <point x="377.0" y="530" type="line"/>
    </contour>
    <contour>
      <point x="620" y="27" type="curve"/>
      <point x="577" y="182.0" type="line"/>
      <point x="523" y="164"/>
      <point x="449" y="146"/>
      <point x="380" y="146" type="curve" smooth="yes"/>
      <point x="322.628391134" y="146.0"/>
      <point x="269.287192272" y="158.762965015"/>
      <point x="234.29071" y="193.12995" type="curve"/>
      <point x="291.714534629" y="249.836975413"/>
      <point x="391.777262089" y="274.0"/>
      <point x="536.0" y="274.0" type="curve" smooth="yes"/>
      <point x="599" y="274" type="line"/>
      <point x="599" y="530" type="line"/>
      <point x="653" y="530" type="line"/>
      <point x="653" y="694" type="line"/>
      <point x="532.4686" y="694" type="line"/>
      <point x="508.493974933" y="863.927476495"/>
      <point x="390.385481966" y="965.0"/>
      <point x="202.0" y="965.0" type="curve" smooth="yes"/>
      <point x="155" y="965"/>
      <point x="109" y="958"/>
      <point x="66" y="942" type="curve"/>
      <point x="108.0" y="790.0" type="line"/>
      <point x="152" y="798"/>
      <point x="191" y="803"/>
      <point x="225" y="803" type="curve" smooth="yes"/>
      <point x="310.675045741" y="803.0"/>
      <point x="347.89360686" y="769.017530265"/>
      <point x="364.61199" y="694" type="curve"/>
      <point x="-26.0" y="694" type="line"/>
      <point x="-26.0" y="530" type="line"/>
      <point x="27.86732" y="530" type="line"/>
      <point x="40.905351524" y="469.18955011"/>
      <point x="86.4823789696" y="411.231811993"/>
      <point x="158.0891" y="370.41805" type="curve"/>
      <point x="106.976166003" y="332.926243839"/>
      <point x="54.0211143296" y="293.303439025"/>
      <point x="16.0" y="238.0" type="curve"/>
      <point x="72" y="50"/>
      <point x="262" y="-18"/>
      <point x="411" y="-18" type="curve" smooth="yes"/>
      <point x="481" y="-18"/>
      <point x="554" y="-3"/>
    </contour>
  </outline>
</glyph>
<glyph name="uni0A10" format="1">
  <advance width="921"/>
  <unicode hex="0A10"/>
  <outline>
    <contour>
      <point x="724" y="684" type="move" name="_abvm"/>
    </contour>
    <contour>
      <point x="944" y="680" type="move" name="abvm_bindu"/>
    </contour>
    <contour>
      <point x="1066" y="690" type="move" name="abvm_candra"/>
    </contour>
    <contour>
      <point x="695" y="684" type="move" name="abvm"/>
    </contour>
    <contour>
      <point x="867.0" y="0" type="line"/>
      <point x="867.0" y="530" type="line"/>
      <point x="921.0" y="530" type="line"/>
      <point x="921.0" y="694" type="line"/>
      <point x="807.01323" y="694" type="line"/>
      <point x="794.101492803" y="970.445591145"/>
      <point x="665.93925647" y="1126.0"/>
      <point x="435.0" y="1126.0" type="curve"/>
      <point x="443.0" y="988.0" type="line"/>
      <point x="567.957341379" y="988.0"/>
      <point x="647.717268046" y="935.954492149"/>
      <point x="682.27978" y="819.35754" type="curve"/>
      <point x="615.131683034" y="902.380910594"/>
      <point x="502.689659398" y="948.0"/>
      <point x="372.0" y="948.0" type="curve" smooth="yes"/>
      <point x="314" y="948"/>
      <point x="257" y="937"/>
      <point x="206" y="915" type="curve"/>
      <point x="249.0" y="774.0" type="line"/>
      <point x="288" y="788"/>
      <point x="345" y="796"/>
      <point x="402" y="796" type="curve" smooth="yes"/>
      <point x="535" y="796"/>
      <point x="645" y="772"/>
      <point x="645" y="661" type="curve"/>
      <point x="645" y="447.0" type="line"/>
      <point x="605.31328" y="447.0" type="line"/>
      <point x="572.606600647" y="581.85303801"/>
      <point x="462.247104574" y="641.0"/>
      <point x="354.0" y="641.0" type="curve" smooth="yes"/>
      <point x="312.197423874" y="641.0"/>
      <point x="271.041096035" y="631.952523968"/>
      <point x="234.16763" y="614.36477" type="curve"/>
      <point x="173.298178921" y="672.90902953"/>
      <point x="85.525713933" y="694.0"/>
      <point x="-3.0" y="694.0" type="curve" smooth="yes"/>
      <point x="-26.0" y="694" type="line"/>
      <point x="-26.0" y="530" type="line"/>
      <point x="12.0" y="530" type="line" smooth="yes"/>
      <point x="50.0441548489" y="530.0"/>
      <point x="104.468546436" y="525.413533713"/>
      <point x="120.1158" y="489.02637" type="curve"/>
      <point x="68.9607198389" y="412.533063877"/>
      <point x="43.0" y="323.766531939"/>
      <point x="43.0" y="235.0" type="curve" smooth="yes"/>
      <point x="43" y="218"/>
      <point x="44" y="204"/>
      <point x="45" y="190" type="curve"/>
      <point x="224.0" y="149" type="line"/>
      <point x="278.552888963" y="239.325275169"/>
      <point x="307.51250563" y="308.856016596"/>
      <point x="310.87885" y="386.32329" type="curve"/>
      <point x="321.085965838" y="436.781174365"/>
      <point x="344.518769852" y="464.0"/>
      <point x="382.0" y="464.0" type="curve" smooth="yes"/>
      <point x="412.772755578" y="464.0"/>
      <point x="431.786298402" y="445.323603274"/>
      <point x="437.31473" y="409.52237" type="curve"/>
      <point x="354.902120628" y="327.533483489"/>
      <point x="324.0" y="219.991643677"/>
      <point x="324.0" y="135.0" type="curve" smooth="yes"/>
      <point x="324" y="113"/>
      <point x="326" y="92"/>
      <point x="330" y="74" type="curve"/>
      <point x="508.0" y="53.0" type="line"/>
      <point x="561.365501543" y="142.917214928"/>
      <point x="593.888970164" y="213.061219136"/>
      <point x="607.52377" y="283" type="curve"/>
      <point x="645" y="283" type="line"/>
      <point x="645" y="0" type="line"/>
    </contour>
  </outline>
</glyph>
<glyph name="uni0A13" format="1">
  <advance width="694"/>
  <unicode hex="0A13"/>
  <outline>
    <contour>
      <point x="675" y="680" type="move" name="abvm_bindu"/>
    </contour>
    <contour>
      <point x="420" y="2" type="move" name="blwm"/>
    </contour>
    <contour>
      <point x="796" y="650" type="move" name="abvm_candra"/>
    </contour>
    <contour>
      <point x="423" y="30" type="move" name="blwm_caret_1"/>
    </contour>
    <contour>
      <point x="92" y="-24" type="move" name="blwm_nukta"/>
    </contour>
    <contour>
      <point x="529" y="670" type="move" name="abvm"/>
    </contour>
    <contour>
      <point x="245.0" y="528.0" type="curve" smooth="yes"/>
      <point x="245.00089" y="530" type="line"/>
      <point x="450.87098" y="530" type="line"/>
      <point x="436.537990593" y="462.395079069"/>
      <point x="392.164074366" y="423.0"/>
      <point x="269.0" y="423.0" type="curve" smooth="yes"/>
      <point x="247.96553" y="423.0" type="line"/>
      <point x="245.582308546" y="460.093403507"/>
      <point x="245.0" y="496.278884514"/>
    </contour>
    <contour>
      <point x="665" y="155" type="curve" smooth="yes"/>
      <point x="665.0" y="212.303642387"/>
      <point x="627.47841232" y="276.429391626"/>
      <point x="552.86389" y="322.08062" type="curve"/>
      <point x="636.708458161" y="379.445931499"/>
      <point x="663.51336337" y="448.052219123"/>
      <point x="669.54607" y="530" type="curve"/>
      <point x="720.0" y="530" type="line"/>
      <point x="720.0" y="694" type="line"/>
      <point x="260.4082" y="694" type="line"/>
      <point x="278.562117369" y="755.486544627"/>
      <point x="318.069196444" y="801.0"/>
      <point x="404.0" y="801.0" type="curve" smooth="yes"/>
      <point x="426" y="801"/>
      <point x="466" y="797"/>
      <point x="505" y="788" type="curve"/>
      <point x="548" y="940.0" type="line"/>
      <point x="497" y="955"/>
      <point x="442" y="962"/>
      <point x="387" y="962" type="curve" smooth="yes"/>
      <point x="165.473385162" y="962.0"/>
      <point x="77.4753114543" y="845.162526511"/>
      <point x="47.90272" y="694" type="curve"/>
      <point x="-26.0" y="694" type="line"/>
      <point x="-26.0" y="530" type="line"/>
      <point x="35.07062" y="530" type="line"/>
      <point x="38.1206056753" y="267.110806101"/>
      <point x="140.38730838" y="-18.0"/>
      <point x="424.0" y="-18.0" type="curve" smooth="yes"/>
      <point x="578" y="-18"/>
      <point x="665" y="66"/>
    </contour>
    <contour>
      <point x="395" y="148" type="curve" smooth="yes"/>
      <point x="327.209749634" y="148.0"/>
      <point x="289.824628108" y="204.949288939"/>
      <point x="269.33109" y="280" type="curve"/>
      <point x="340" y="280" type="line" smooth="yes"/>
      <point x="400" y="280"/>
      <point x="447" y="231"/>
      <point x="447" y="192" type="curve" smooth="yes"/>
      <point x="447" y="172"/>
      <point x="437" y="148"/>
    </contour>
  </outline>
</glyph>
<glyph name="uni0A15" format="1">
  <advance width="750"/>
  <unicode hex="0A15"/>
  <outline>
    <contour>
      <point x="582" y="682" type="move" name="abvm_bindu"/>
    </contour>
    <contour>
      <point x="608" y="0" type="move" name="blwm"/>
    </contour>
    <contour>
      <point x="582" y="692" type="move" name="abvm_candra"/>
    </contour>
    <contour>
      <point x="386" y="-6" type="move" name="blwm_caret_1"/>
    </contour>
    <contour>
      <point x="123" y="-48" type="move" name="blwm_nukta"/>
    </contour>
    <contour>
      <point x="590" y="672" type="move" name="abvm"/>
    </contour>
    <contour>
      <point x="717.0" y="0" type="line"/>
      <point x="717.0" y="5" type="line" smooth="yes"/>
      <point x="717.0" y="74.7166363358"/>
      <point x="686.642413459" y="173.991975356"/>
      <point x="627.35533" y="267.12237" type="curve"/>
      <point x="673.134571575" y="358.543084246"/>
      <point x="693.499542711" y="457.800745945"/>
      <point x="694.9198" y="530" type="curve"/>
      <point x="750.0" y="530" type="line"/>
      <point x="750.0" y="694" type="line"/>
      <point x="0" y="694" type="line"/>
      <point x="0" y="530" type="line"/>
      <point x="489.74236" y="530" type="line"/>
      <point x="488.682635994" y="499.307354243"/>
      <point x="484.125769554" y="465.44583888"/>
      <point x="471.92795" y="430.87263" type="curve"/>
      <point x="412.432862739" y="474.76003277"/>
      <point x="339.503096822" y="496.0"/>
      <point x="265.0" y="496.0" type="curve" smooth="yes"/>
      <point x="99" y="496"/>
      <point x="18" y="393"/>
      <point x="18" y="284" type="curve" smooth="yes"/>
      <point x="18" y="164"/>
      <point x="117" y="38"/>
      <point x="307" y="38" type="curve" smooth="yes"/>
      <point x="387.907658437" y="38.0"/>
      <point x="439.69335323" y="60.7293374785"/>
      <point x="488.09798" y="100.80322" type="curve"/>
      <point x="494.369225327" y="65.1567627897"/>
      <point x="495.0" y="32.0321840088"/>
      <point x="495.0" y="9.0" type="curve" smooth="yes"/>
      <point x="495.0" y="0" type="line"/>
    </contour>
    <contour>
      <point x="314.0" y="204.0" type="curve" smooth="yes"/>
      <point x="268" y="204"/>
      <point x="242" y="233"/>
      <point x="242" y="267" type="curve" smooth="yes"/>
      <point x="242" y="299"/>
      <point x="264" y="330"/>
      <point x="313" y="330" type="curve" smooth="yes"/>
      <point x="354.20647345" y="330.0"/>
      <point x="391.336878938" y="308.45506934"/>
      <point x="419.94782" y="273.78894" type="curve"/>
      <point x="394.134360493" y="231.764460309"/>
      <point x="358.484253478" y="204.0"/>
    </contour>
  </outline>
</glyph>
<glyph name="uni0A16" format="1">
  <advance width="732"/>
  <unicode hex="0A16"/>
  <outline>
    <contour>
      <point x="535" y="680" type="move" name="abvm_bindu"/>
    </contour>
    <contour>
      <point x="569" y="0" type="move" name="blwm"/>
    </contour>
    <contour>
      <point x="535" y="690" type="move" name="abvm_candra"/>
    </contour>
    <contour>
      <point x="344" y="30" type="move" name="blwm_caret_1"/>
    </contour>
    <contour>
      <point x="85" y="-16" type="move" name="blwm_nukta"/>
    </contour>
    <contour>
      <point x="535" y="670" type="move" name="abvm"/>
    </contour>
    <contour>
      <point x="678" y="0" type="line"/>
      <point x="678" y="530" type="line"/>
      <point x="732.0" y="530" type="line"/>
      <point x="732.0" y="694" type="line"/>
      <point x="456.0" y="694" type="line"/>
      <point x="456.0" y="503.0" type="line"/>
      <point x="327.79661" y="503.0" type="line"/>
      <point x="291.984093086" y="600.528015113"/>
      <point x="189.408176258" y="694.0"/>
      <point x="31.0" y="694.0" type="curve" smooth="yes"/>
      <point x="0" y="694" type="line"/>
      <point x="0" y="530" type="line"/>
      <point x="39" y="530" type="line" smooth="yes"/>
      <point x="101" y="530"/>
      <point x="125" y="492"/>
      <point x="125" y="444" type="curve" smooth="yes"/>
      <point x="125" y="387"/>
      <point x="91" y="361"/>
      <point x="34" y="324" type="curve"/>
      <point x="61" y="151"/>
      <point x="206" y="67"/>
      <point x="347" y="67" type="curve" smooth="yes"/>
      <point x="384.541314303" y="67.0"/>
      <point x="421.691142417" y="72.8722928317"/>
      <point x="456.0" y="84.62731" type="curve"/>
      <point x="456.0" y="0" type="line"/>
    </contour>
    <contour>
      <point x="316.0" y="231.0" type="curve" smooth="yes"/>
      <point x="289.166297856" y="231.0"/>
      <point x="265.266243579" y="239.474982725"/>
      <point x="249.69676" y="257.23433" type="curve"/>
      <point x="278.355116456" y="276.602327892"/>
      <point x="305.589127375" y="302.899239219"/>
      <point x="322.94713" y="339" type="curve"/>
      <point x="456.0" y="339" type="line"/>
      <point x="456.0" y="313.15831" type="line"/>
      <point x="423.13727033" y="259.692279597"/>
      <point x="364.660745234" y="231.0"/>
    </contour>
  </outline>
</glyph>
<glyph name="uni0A17" format="1">
  <advance width="923"/>
  <unicode hex="0A17"/>
  <outline>
    <contour>
      <point x="726" y="682" type="move" name="abvm_bindu"/>
    </contour>
    <contour>
      <point x="760" y="0" type="move" name="blwm"/>
    </contour>
    <contour>
      <point x="726" y="690" type="move" name="abvm_candra"/>
    </contour>
    <contour>
      <point x="474" y="30" type="move" name="blwm_caret_1"/>
    </contour>
    <contour>
      <point x="53" y="-37" type="move" name="blwm_nukta"/>
    </contour>
    <contour>
      <point x="756" y="672" type="move" name="abvm"/>
    </contour>
    <contour>
      <point x="578" y="179" type="curve" smooth="yes"/>
      <point x="577.19495" y="530" type="line"/>
      <point x="647" y="530" type="line"/>
      <point x="647" y="0" type="line"/>
      <point x="869.0" y="0" type="line"/>
      <point x="869.0" y="530" type="line"/>
      <point x="923.0" y="530" type="line"/>
      <point x="923.0" y="694" type="line"/>
      <point x="0" y="694" type="line"/>
      <point x="0" y="530" type="line"/>
      <point x="356.0" y="530" type="line"/>
      <point x="356.0" y="452.0" type="line"/>
      <point x="242.0" y="452.0" type="line" smooth="yes"/>
      <point x="103" y="452"/>
      <point x="16" y="379"/>
      <point x="16" y="266" type="curve" smooth="yes"/>
      <point x="16" y="108"/>
      <point x="187" y="-18"/>
      <point x="349" y="-18" type="curve" smooth="yes"/>
      <point x="463" y="-18"/>
      <point x="578" y="44"/>
    </contour>
    <contour>
      <point x="318" y="147" type="curve" smooth="yes"/>
      <point x="274" y="147"/>
      <point x="240" y="194"/>
      <point x="240" y="238" type="curve" smooth="yes"/>
      <point x="240" y="268"/>
      <point x="256" y="288"/>
      <point x="289" y="288" type="curve" smooth="yes"/>
      <point x="357.0" y="288" type="line"/>
      <point x="357.0" y="201.0" type="line" smooth="yes"/>
      <point x="357" y="177"/>
      <point x="353" y="147"/>
    </contour>
  </outline>
</glyph>
<glyph name="uni0A1B" format="1">
  <advance width="711"/>
  <unicode hex="0A1B"/>
  <outline>
    <contour>
      <point x="481" y="680" type="move" name="abvm_bindu"/>
    </contour>
    <contour>
      <point x="361" y="2" type="move" name="blwm"/>
    </contour>
    <contour>
      <point x="481" y="690" type="move" name="abvm_candra"/>
    </contour>
    <contour>
      <point x="361" y="30" type="move" name="blwm_caret_1"/>
    </contour>
    <contour>
      <point x="93" y="-110" type="move" name="blwm_nukta"/>
    </contour>
    <contour>
      <point x="511" y="670" type="move" name="abvm"/>
    </contour>
    <contour>
      <point x="697" y="159" type="curve" smooth="yes"/>
      <point x="697" y="293"/>
      <point x="510" y="329"/>
      <point x="351" y="331" type="curve"/>
      <point x="288" y="331" type="line"/>
      <point x="276" y="331"/>
      <point x="269" y="337"/>
      <point x="269" y="344" type="curve" smooth="yes"/>
      <point x="269" y="350"/>
      <point x="274" y="356"/>
      <point x="286" y="356" type="curve"/>
      <point x="625" y="354.0" type="line"/>
      <point x="625" y="530" type="line"/>
      <point x="711.0" y="530" type="line"/>
      <point x="711.0" y="694" type="line"/>
      <point x="0" y="694" type="line"/>
      <point x="0" y="530" type="line"/>
      <point x="404.0" y="530" type="line"/>
      <point x="404.0" y="507.0" type="line"/>
      <point x="223.0" y="507.0" type="line" smooth="yes"/>
      <point x="122" y="507"/>
      <point x="53" y="467"/>
      <point x="53" y="400" type="curve" smooth="yes"/>
      <point x="53" y="353"/>
      <point x="85" y="319"/>
      <point x="122" y="296" type="curve"/>
      <point x="60" y="269"/>
      <point x="16" y="225"/>
      <point x="16" y="161" type="curve" smooth="yes"/>
      <point x="16" y="35"/>
      <point x="192" y="-18"/>
      <point x="364" y="-18" type="curve" smooth="yes"/>
      <point x="532" y="-18"/>
      <point x="697" y="33"/>
    </contour>
    <contour>
      <point x="301" y="126.0" type="line"/>
      <point x="256" y="126"/>
      <point x="218" y="130"/>
      <point x="218" y="158" type="curve" smooth="yes"/>
      <point x="218" y="182"/>
      <point x="251" y="186"/>
      <point x="290" y="186" type="curve"/>
      <point x="314" y="186.0" type="line"/>
      <point x="314" y="126.0" type="line"/>
    </contour>
    <contour>
      <point x="423.0" y="186.0" type="line"/>
      <point x="465" y="186"/>
      <point x="494" y="183"/>
      <point x="494" y="160" type="curve" smooth="yes"/>
      <point x="494" y="130"/>
      <point x="457" y="126"/>
      <point x="412" y="126" type="curve"/>
      <point x="400.0" y="126.0" type="line"/>
      <point x="400.0" y="186.0" type="line"/>
    </contour>
  </outline>
</glyph>
<glyph name="uni0A1C" format="1">
  <advance width="788"/>
  <unicode hex="0A1C"/>
  <outline>
    <contour>
      <point x="591" y="680" type="move" name="abvm_bindu"/>
    </contour>
    <contour>
      <point x="625" y="0" type="move" name="blwm"/>
    </contour>
    <contour>
      <point x="591" y="690" type="move" name="abvm_candra"/>
    </contour>
    <contour>
      <point x="440" y="30" type="move" name="blwm_caret_1"/>
    </contour>
    <contour>
      <point x="440" y="-149" type="move" name="blwm_nukta"/>
    </contour>
    <contour>
      <point x="621" y="670" type="move" name="abvm"/>
    </contour>
    <contour>
      <point x="357.0" y="0" type="line"/>
      <point x="375.0" y="227.0" type="line"/>
      <point x="512" y="227.0" type="line"/>
      <point x="512" y="0" type="line"/>
      <point x="734.0" y="0" type="line"/>
      <point x="734.0" y="530" type="line"/>
      <point x="788.0" y="530" type="line"/>
      <point x="788.0" y="694" type="line"/>
      <point x="0" y="694" type="line"/>
      <point x="0" y="530" type="line"/>
      <point x="512" y="530" type="line"/>
      <point x="512" y="391.0" type="line"/>
      <point x="313" y="391.0" type="line"/>
      <point x="256" y="432"/>
      <point x="163" y="450"/>
      <point x="84" y="459" type="curve"/>
      <point x="16" y="311" type="line"/>
      <point x="51" y="280"/>
      <point x="108" y="254"/>
      <point x="166" y="239" type="curve"/>
      <point x="135" y="19" type="line"/>
      <point x="136" y="0" type="line"/>
    </contour>
  </outline>
</glyph>
<glyph name="uni0A1E" format="1">
  <advance width="662"/>
  <unicode hex="0A1E"/>
  <outline>
    <contour>
      <point x="465" y="680" type="move" name="abvm_bindu"/>
    </contour>
    <contour>
      <point x="419" y="0" type="move" name="blwm"/>
    </contour>
    <contour>
      <point x="465" y="690" type="move" name="abvm_candra"/>
    </contour>
    <contour>
      <point x="418" y="30" type="move" name="blwm_caret_1"/>
    </contour>
    <contour>
      <point x="102" y="-53" type="move" name="blwm_nukta"/>
    </contour>
    <contour>
      <point x="495" y="670" type="move" name="abvm"/>
    </contour>
    <contour>
      <point x="304" y="492.0" type="line"/>
      <point x="276.668420068" y="492.0"/>
      <point x="262.409607214" y="509.741612462"/>
      <point x="255.48125" y="530" type="curve"/>
      <point x="386.0" y="530" type="line"/>
      <point x="386.0" y="492.0" type="line"/>
    </contour>
    <contour>
      <point x="618" y="7" type="curve"/>
      <point x="574" y="161" type="line"/>
      <point x="523" y="153"/>
      <point x="470" y="146"/>
      <point x="412" y="146" type="curve" smooth="yes"/>
      <point x="332" y="146"/>
      <point x="301" y="160"/>
      <point x="301" y="186" type="curve" smooth="yes"/>
      <point x="300.99915" y="191.0" type="line"/>
      <point x="559" y="191.0" type="line"/>
      <point x="564" y="323" type="line"/>
      <point x="244.0" y="323" type="line"/>
      <point x="232" y="323"/>
      <point x="226" y="331"/>
      <point x="226" y="338" type="curve" smooth="yes"/>
      <point x="226" y="346"/>
      <point x="231" y="353"/>
      <point x="243" y="353" type="curve"/>
      <point x="607" y="353.0" type="line"/>
      <point x="607" y="530" type="line"/>
      <point x="662" y="530" type="line"/>
      <point x="662" y="694" type="line"/>
      <point x="0" y="694" type="line"/>
      <point x="0" y="530" type="line"/>
      <point x="38.42529" y="530" type="line"/>
      <point x="50.1161457245" y="510.97099941"/>
      <point x="70.5288904493" y="492.014455714"/>
      <point x="98.5042" y="475.81283" type="curve"/>
      <point x="49.2494706553" y="454.305577787"/>
      <point x="24.0" y="413.718654674"/>
      <point x="24.0" y="369.0" type="curve" smooth="yes"/>
      <point x="24.0" y="323.58182769"/>
      <point x="48.8379850183" y="273.133177401"/>
      <point x="98.16137" y="237.59547" type="curve"/>
      <point x="99" y="231"/>
      <point x="100" y="219"/>
      <point x="100" y="207" type="curve" smooth="yes"/>
      <point x="100" y="75"/>
      <point x="223" y="-18"/>
      <point x="436" y="-18" type="curve" smooth="yes"/>
      <point x="506" y="-18"/>
      <point x="569" y="-8"/>
    </contour>
  </outline>
</glyph>
<glyph name="uni0A1F" format="1">
  <advance width="642"/>
  <unicode hex="0A1F"/>
  <outline>
    <contour>
      <point x="504" y="680" type="move" name="abvm_bindu"/>
    </contour>
    <contour>
      <point x="393" y="0" type="move" name="blwm"/>
    </contour>
    <contour>
      <point x="504" y="690" type="move" name="abvm_candra"/>
    </contour>
    <contour>
      <point x="395" y="30" type="move" name="blwm_caret_1"/>
    </contour>
    <contour>
      <point x="79" y="-48" type="move" name="blwm_nukta"/>
    </contour>
    <contour>
      <point x="474" y="670" type="move" name="abvm"/>
    </contour>
    <contour>
      <point x="620" y="27" type="curve"/>
      <point x="577" y="182.0" type="line"/>
      <point x="516" y="162"/>
      <point x="450" y="148"/>
      <point x="387" y="148" type="curve" smooth="yes"/>
      <point x="339.330891205" y="148.0"/>
      <point x="274.099076623" y="149.350977368"/>
      <point x="231.2769" y="207.01696" type="curve"/>
      <point x="286.261987432" y="268.610123474"/>
      <point x="382.899864339" y="296.150657002"/>
      <point x="512.0" y="297.0" type="curve"/>
      <point x="587" y="297" type="line"/>
      <point x="587" y="530" type="line"/>
      <point x="642" y="530" type="line"/>
      <point x="642" y="694" type="line"/>
      <point x="0" y="694" type="line"/>
      <point x="0" y="530" type="line"/>
      <point x="366.0" y="530" type="line"/>
      <point x="366.0" y="456.34539" type="line"/>
      <point x="211.23922537" y="433.886580464"/>
      <point x="80.4200598236" y="358.354227456"/>
      <point x="16.0" y="257.0" type="curve"/>
      <point x="74" y="48"/>
      <point x="269" y="-18"/>
      <point x="412" y="-18" type="curve" smooth="yes"/>
      <point x="481" y="-18"/>
      <point x="554" y="-3"/>
    </contour>
  </outline>
</glyph>
<glyph name="uni0A21" format="1">
  <advance width="629"/>
  <unicode hex="0A21"/>
  <outline>
    <contour>
      <point x="494" y="680" type="move" name="abvm_bindu"/>
    </contour>
    <contour>
      <point x="332" y="2" type="move" name="blwm"/>
    </contour>
    <contour>
      <point x="494" y="690" type="move" name="abvm_candra"/>
    </contour>
    <contour>
      <point x="306" y="30" type="move" name="blwm_caret_1"/>
    </contour>
    <contour>
      <point x="79" y="-91" type="move" name="blwm_nukta"/>
    </contour>
    <contour>
      <point x="464" y="670" type="move" name="abvm"/>
    </contour>
    <contour>
      <point x="309" y="-18" type="curve" smooth="yes"/>
      <point x="507" y="-18"/>
      <point x="605" y="97"/>
      <point x="605" y="210" type="curve" smooth="yes"/>
      <point x="605.0" y="275.955693311"/>
      <point x="574.838935871" y="340.364665384"/>
      <point x="517.91731" y="393.02455" type="curve"/>
      <point x="554.108989778" y="429.97038382"/>
      <point x="571.065082044" y="474.281055853"/>
      <point x="576.72648" y="530" type="curve"/>
      <point x="629" y="530" type="line"/>
      <point x="629" y="694" type="line"/>
      <point x="0" y="694" type="line"/>
      <point x="0" y="530" type="line"/>
      <point x="356.27495" y="530" type="line"/>
      <point x="354.12605629" y="512.828857986"/>
      <point x="349.300287027" y="500.311735572"/>
      <point x="338.46306" y="491.29146" type="curve"/>
      <point x="301.850867048" y="502.27470232"/>
      <point x="260.475499675" y="507.0"/>
      <point x="217.0" y="507.0" type="curve" smooth="yes"/>
      <point x="168" y="507"/>
      <point x="117" y="501"/>
      <point x="83" y="490" type="curve"/>
      <point x="96.0" y="339" type="line"/>
      <point x="135" y="328"/>
      <point x="180" y="322"/>
      <point x="230" y="322" type="curve" smooth="yes"/>
      <point x="273.358600203" y="322.0"/>
      <point x="317.295830203" y="326.050408581"/>
      <point x="361.81169" y="332.39173" type="curve"/>
      <point x="393.049918292" y="312.961181435"/>
      <point x="409.0" y="278.860354568"/>
      <point x="409.0" y="244.0" type="curve" smooth="yes"/>
      <point x="409.0" y="236.931295276"/>
      <point x="408.425836409" y="229.819528283"/>
      <point x="407.27235" y="222.90449" type="curve"/>
      <point x="353.946511999" y="271.779121565"/>
      <point x="258.862384851" y="306.0"/>
      <point x="176.0" y="306.0" type="curve" smooth="yes"/>
      <point x="82" y="306"/>
      <point x="9" y="263"/>
      <point x="9" y="179" type="curve" smooth="yes"/>
      <point x="9" y="69"/>
      <point x="136" y="-18"/>
    </contour>
    <contour>
      <point x="286.0" y="123.0" type="curve" smooth="yes"/>
      <point x="257" y="123"/>
      <point x="196" y="132"/>
      <point x="196" y="164" type="curve" smooth="yes"/>
      <point x="196" y="179"/>
      <point x="210" y="187"/>
      <point x="231" y="187" type="curve" smooth="yes"/>
      <point x="265.652763035" y="187.0"/>
      <point x="316.909373777" y="166.838184927"/>
      <point x="347.32517" y="137.01339" type="curve"/>
      <point x="330.435752757" y="128.191808226"/>
      <point x="310.018261489" y="123.0"/>
    </contour>
  </outline>
</glyph>
<glyph name="uni0A26" format="1">
  <advance width="715"/>
  <unicode hex="0A26"/>
  <outline>
    <contour>
      <point x="576" y="680" type="move" name="abvm_bindu"/>
    </contour>
    <contour>
      <point x="480" y="0" type="move" name="blwm"/>
    </contour>
    <contour>
      <point x="576" y="690" type="move" name="abvm_candra"/>
    </contour>
    <contour>
      <point x="490" y="30" type="move" name="blwm_caret_1"/>
    </contour>
    <contour>
      <point x="112" y="0" type="move" name="blwm_nukta"/>
    </contour>
    <contour>
      <point x="546" y="670" type="move" name="abvm"/>
    </contour>
    <contour>
      <point x="692" y="27" type="curve"/>
      <point x="649" y="182.0" type="line"/>
      <point x="595" y="164"/>
      <point x="528" y="149"/>
      <point x="469" y="149" type="curve" smooth="yes"/>
      <point x="393" y="149"/>
      <point x="331" y="175"/>
      <point x="331" y="256" type="curve" smooth="yes"/>
      <point x="331" y="279" type="line"/>
      <point x="661" y="279" type="line"/>
      <point x="661" y="530" type="line"/>
      <point x="715.0" y="530" type="line"/>
      <point x="715.0" y="694" type="line"/>
      <point x="0" y="694" type="line"/>
      <point x="0" y="530" type="line"/>
      <point x="439.0" y="530" type="line"/>
      <point x="439.0" y="443.0" type="line"/>
      <point x="291.88145" y="443.0" type="line"/>
      <point x="239.870627061" y="467.99305214"/>
      <point x="154.856551131" y="483.833516151"/>
      <point x="49.0" y="483.0" type="curve"/>
      <point x="15.0" y="327" type="line"/>
      <point x="45" y="310"/>
      <point x="85" y="300"/>
      <point x="123" y="293" type="curve"/>
      <point x="123.0" y="276" type="line" smooth="yes"/>
      <point x="123" y="104"/>
      <point x="308" y="-18"/>
      <point x="495" y="-18" type="curve" smooth="yes"/>
      <point x="563" y="-18"/>
      <point x="634" y="-2"/>
    </contour>
  </outline>
</glyph>
<glyph name="uni0A2B" format="1">
  <advance width="672"/>
  <unicode hex="0A2B"/>
  <outline>
    <contour>
      <point x="503" y="680" type="move" name="abvm_bindu"/>
    </contour>
    <contour>
      <point x="395" y="0" type="move" name="blwm"/>
    </contour>
    <contour>
      <point x="503" y="690" type="move" name="abvm_candra"/>
    </contour>
    <contour>
      <point x="370" y="30" type="move" name="blwm_caret_1"/>
    </contour>
    <contour>
      <point x="56" y="-48" type="move" name="blwm_nukta"/>
    </contour>
    <contour>
      <point x="473" y="670" type="move" name="abvm"/>
    </contour>
    <contour>
      <point x="661" y="157" type="curve" smooth="yes"/>
      <point x="661" y="250"/>
      <point x="563" y="303"/>
      <point x="453" y="303" type="curve" smooth="yes"/>
      <point x="362.370838767" y="303.0"/>
      <point x="256.957116774" y="266.85996259"/>
      <point x="212.6872" y="186.3559" type="curve"/>
      <point x="205.296598171" y="197.841700911"/>
      <point x="201.0" y="211.057101339"/>
      <point x="201.0" y="226.0" type="curve" smooth="yes"/>
      <point x="201" y="275"/>
      <point x="249" y="322"/>
      <point x="335" y="322" type="curve" smooth="yes"/>
      <point x="587" y="322" type="line"/>
      <point x="587" y="530" type="line"/>
      <point x="672" y="530" type="line"/>
      <point x="672" y="694" type="line"/>
      <point x="0" y="694" type="line"/>
      <point x="0" y="530" type="line"/>
      <point x="366.0" y="530" type="line"/>
      <point x="366.0" y="486.0" type="line"/>
      <point x="320" y="486.0" type="line" smooth="yes"/>
      <point x="118" y="486"/>
      <point x="17" y="373"/>
      <point x="17" y="256" type="curve" smooth="yes"/>
      <point x="17" y="126"/>
      <point x="141" y="-17"/>
      <point x="383" y="-17" type="curve" smooth="yes"/>
      <point x="568" y="-17"/>
      <point x="661" y="67"/>
    </contour>
    <contour>
      <point x="363" y="123" type="curve" smooth="yes"/>
      <point x="347.458867422" y="123.0"/>
      <point x="330.088419421" y="124.829315422"/>
      <point x="312.65184" y="128.59947" type="curve"/>
      <point x="343.887125826" y="168.232076543"/>
      <point x="400.006353799" y="193.0"/>
      <point x="435.0" y="193.0" type="curve" smooth="yes"/>
      <point x="453" y="193"/>
      <point x="465" y="186"/>
      <point x="465" y="172" type="curve" smooth="yes"/>
      <point x="465" y="144"/>
      <point x="415" y="123"/>
    </contour>
  </outline>
</glyph>
<glyph name="uni0A2C" format="1">
  <advance width="736"/>
  <unicode hex="0A2C"/>
  <outline>
    <contour>
      <point x="540" y="680" type="move" name="abvm_bindu"/>
    </contour>
    <contour>
      <point x="573" y="0" type="move" name="blwm"/>
    </contour>
    <contour>
      <point x="540" y="690" type="move" name="abvm_candra"/>
    </contour>
    <contour>
      <point x="358" y="30" type="move" name="blwm_caret_1"/>
    </contour>
    <contour>
      <point x="109" y="-60" type="move" name="blwm_nukta"/>
    </contour>
    <contour>
      <point x="570" y="670" type="move" name="abvm"/>
    </contour>
    <contour>
      <point x="736.0" y="530" type="line"/>
      <point x="736.0" y="694" type="line"/>
      <point x="0" y="694" type="line"/>
      <point x="0" y="530" type="line"/>
      <point x="69.35525" y="530" type="line"/>
      <point x="83.6761160025" y="475.912145489"/>
      <point x="121.841392912" y="424.499764023"/>
      <point x="180.20267" y="386.33997" type="curve"/>
      <point x="126.182041665" y="351.26373641"/>
      <point x="71.1814620505" y="312.076884494"/>
      <point x="30.0" y="256.0" type="curve"/>
      <point x="85" y="93"/>
      <point x="219" y="26"/>
      <point x="351" y="26" type="curve" smooth="yes"/>
      <point x="390.188049488" y="26.0"/>
      <point x="426.280703214" y="32.190791525"/>
      <point x="460.0" y="43.61977" type="curve"/>
      <point x="460.0" y="0" type="line"/>
      <point x="682" y="0" type="line"/>
      <point x="682" y="530" type="line"/>
    </contour>
    <contour>
      <point x="432.0" y="437.0" type="line" smooth="yes"/>
      <point x="350.297378599" y="437.808936846"/>
      <point x="306.548728763" y="476.571845257"/>
      <point x="291.22573" y="530" type="curve"/>
      <point x="460.0" y="530" type="line"/>
      <point x="460.0" y="437.0" type="line"/>
    </contour>
    <contour>
      <point x="315.0" y="191.0" type="curve" smooth="yes"/>
      <point x="268.618846922" y="191.0"/>
      <point x="252.530600738" y="200.544340529"/>
      <point x="243.74597" y="208.67617" type="curve"/>
      <point x="288.424769294" y="257.60626529"/>
      <point x="359.258208101" y="284.571862371"/>
      <point x="460.0" y="292.49079" type="curve"/>
      <point x="460.0" y="245.08221" type="line"/>
      <point x="418.252506404" y="202.548122492"/>
      <point x="367.234049123" y="191.0"/>
    </contour>
  </outline>
</glyph>
<glyph name="uni0A2F" format="1">
  <advance width="881"/>
  <unicode hex="0A2F"/>
  <outline>
    <contour>
      <point x="685" y="680" type="move" name="abvm_bindu"/>
    </contour>
    <contour>
      <point x="719" y="0" type="move" name="blwm"/>
    </contour>
    <contour>
      <point x="685" y="690" type="move" name="abvm_candra"/>
    </contour>
    <contour>
      <point x="429" y="30" type="move" name="blwm_caret_1"/>
    </contour>
    <contour>
      <point x="123" y="-12" type="move" name="blwm_nukta"/>
    </contour>
    <contour>
      <point x="715" y="670" type="move" name="abvm"/>
    </contour>
    <contour>
      <point x="881.0" y="530" type="line"/>
      <point x="881.0" y="694" type="line"/>
      <point x="0" y="694" type="line"/>
      <point x="0" y="530" type="line"/>
      <point x="40" y="530" type="line" smooth="yes"/>
      <point x="101" y="530"/>
      <point x="125" y="492"/>
      <point x="125" y="444" type="curve" smooth="yes"/>
      <point x="125" y="387"/>
      <point x="91" y="361"/>
      <point x="34" y="324" type="curve"/>
      <point x="61" y="154"/>
      <point x="210" y="67"/>
      <point x="326" y="67" type="curve" smooth="yes"/>
      <point x="475.110119883" y="67.0"/>
      <point x="568.907546089" y="133.562733069"/>
      <point x="574.71381" y="256" type="curve"/>
      <point x="605" y="256" type="line"/>
      <point x="605" y="0" type="line"/>
      <point x="827.0" y="0" type="line"/>
      <point x="827.0" y="530" type="line"/>
    </contour>
    <contour>
      <point x="315" y="233" type="curve" smooth="yes"/>
      <point x="278.861816913" y="233.0"/>
      <point x="260.856085934" y="244.656576355"/>
      <point x="250.20341" y="257.78844" type="curve"/>
      <point x="296.017398978" y="289.71454772"/>
      <point x="343.0" y="339.073370455"/>
      <point x="343.0" y="427.0" type="curve" smooth="yes"/>
      <point x="343.0" y="460.218295758"/>
      <point x="334.124175568" y="495.893292922"/>
      <point x="316.90795" y="530" type="curve"/>
      <point x="605" y="530" type="line"/>
      <point x="605" y="420.0" type="line"/>
      <point x="373.0" y="420.0" type="line"/>
      <point x="373.0" y="298" type="line"/>
      <point x="373" y="245"/>
      <point x="341" y="233"/>
    </contour>
  </outline>
</glyph>
<glyph name="uni0A32" format="1">
  <advance width="759"/>
  <unicode hex="0A32"/>
  <outline>
    <contour>
      <point x="593" y="680" type="move" name="abvm_bindu"/>
    </contour>
    <contour>
      <point x="572" y="21" type="move" name="blwm"/>
    </contour>
    <contour>
      <point x="379" y="690" type="move" name="abvm_candra"/>
    </contour>
    <contour>
      <point x="378" y="30" type="move" name="blwm_caret_1"/>
    </contour>
    <contour>
      <point x="380" y="-51" type="move" name="blwm_nukta"/>
    </contour>
    <contour>
      <point x="573" y="670" type="move" name="abvm"/>
    </contour>
    <contour>
      <point x="361.41817" y="419.996" type="curve"/>
      <point x="326.195720185" y="437.940521067"/>
      <point x="299.874366556" y="468.261228383"/>
      <point x="297.72803" y="530" type="curve"/>
      <point x="459.88087" y="530" type="line"/>
      <point x="454.216719288" y="478.120611207"/>
      <point x="409.583846961" y="439.234497244"/>
    </contour>
    <contour>
      <point x="736" y="215" type="curve" smooth="yes"/>
      <point x="736" y="289"/>
      <point x="696" y="353"/>
      <point x="639" y="395" type="curve"/>
      <point x="667.420335908" y="431.413555382"/>
      <point x="682.431332574" y="474.926172714"/>
      <point x="684.03299" y="530" type="curve"/>
      <point x="759.0" y="530" type="line"/>
      <point x="759.0" y="694" type="line"/>
      <point x="0" y="694" type="line"/>
      <point x="0" y="530" type="line"/>
      <point x="74.30571" y="530" type="line"/>
      <point x="77.2910719993" y="483.467427151"/>
      <point x="94.8999080944" y="443.486336832"/>
      <point x="120.0" y="408.0" type="curve"/>
      <point x="59" y="366"/>
      <point x="23" y="305"/>
      <point x="23" y="230" type="curve" smooth="yes"/>
      <point x="23" y="86"/>
      <point x="156" y="9"/>
      <point x="298" y="-14" type="curve"/>
      <point x="318" y="153" type="line"/>
      <point x="278" y="163"/>
      <point x="247" y="187"/>
      <point x="247" y="226" type="curve" smooth="yes"/>
      <point x="247" y="252"/>
      <point x="260" y="272"/>
      <point x="280" y="286" type="curve"/>
      <point x="322" y="266"/>
      <point x="363" y="248"/>
      <point x="400" y="233" type="curve"/>
      <point x="435" y="251"/>
      <point x="464" y="265"/>
      <point x="492" y="278" type="curve"/>
      <point x="504" y="266"/>
      <point x="512" y="248"/>
      <point x="512" y="228" type="curve" smooth="yes"/>
      <point x="512" y="187"/>
      <point x="479" y="163"/>
      <point x="439" y="153" type="curve"/>
      <point x="459.0" y="-14.0" type="line"/>
      <point x="611" y="3"/>
      <point x="736" y="84"/>
    </contour>
  </outline>
</glyph>
<glyph name="uni0A33" format="1">
  <advance width="759"/>
  <unicode hex="0A33"/>
  <outline>
    <contour>
      <point x="593" y="680" type="move" name="abvm_bindu"/>
    </contour>
    <contour>
      <point x="345" y="-108" type="move" name="blwm"/>
    </contour>
    <contour>
      <point x="379" y="690" type="move" name="abvm_candra"/>
    </contour>
    <contour>
      <point x="380" y="-42" type="move" name="blwm_caret_1"/>
    </contour>
    <contour>
      <point x="380" y="-51" type="move" name="blwm_nukta"/>
    </contour>
    <contour>
      <point x="573" y="670" type="move" name="abvm"/>
    </contour>
    <component base="uni0A32"/>
    <component base="uni0A3C" xOffset="380" yOffset="73"/>
  </outline>
</glyph>
<glyph name="uni0A35" format="1">
  <advance width="662"/>
  <unicode hex="0A35"/>
  <outline>
    <contour>
      <point x="465" y="680" type="move" name="abvm_bindu"/>
    </contour>
    <contour>
      <point x="436" y="0" type="move" name="blwm"/>
    </contour>
    <contour>
      <point x="465" y="690" type="move" name="abvm_candra"/>
    </contour>
    <contour>
      <point x="418" y="30" type="move" name="blwm_caret_1"/>
    </contour>
    <contour>
      <point x="102" y="-53" type="move" name="blwm_nukta"/>
    </contour>
    <contour>
      <point x="495" y="670" type="move" name="abvm"/>
    </contour>
    <contour>
      <point x="618" y="7" type="curve"/>
      <point x="574" y="161" type="line"/>
      <point x="523" y="153"/>
      <point x="470" y="146"/>
      <point x="412" y="146" type="curve" smooth="yes"/>
      <point x="332" y="146"/>
      <point x="301" y="160"/>
      <point x="301" y="186" type="curve" smooth="yes"/>
      <point x="300.99915" y="191.0" type="line"/>
      <point x="559" y="191.0" type="line"/>
      <point x="564" y="323" type="line"/>
      <point x="244.0" y="323" type="line"/>
      <point x="232" y="323"/>
      <point x="226" y="331"/>
      <point x="226" y="338" type="curve" smooth="yes"/>
      <point x="226" y="346"/>
      <point x="231" y="353"/>
      <point x="243" y="353" type="curve"/>
      <point x="607" y="353.0" type="line"/>
      <point x="607" y="530" type="line"/>
      <point x="662" y="530" type="line"/>
      <point x="662" y="694" type="line"/>
      <point x="0" y="694" type="line"/>
      <point x="0" y="530" type="line"/>
      <point x="386.0" y="530" type="line"/>
      <point x="386.0" y="492.0" type="line"/>
      <point x="185.0" y="492.0" type="line"/>
      <point x="79" y="492"/>
      <point x="24" y="435"/>
      <point x="24" y="369" type="curve" smooth="yes"/>
      <point x="24.0" y="323.58182769"/>
      <point x="48.8379850183" y="273.133177401"/>
      <point x="98.16137" y="237.59547" type="curve"/>
      <point x="99" y="231"/>
      <point x="100" y="219"/>
      <point x="100" y="207" type="curve" smooth="yes"/>
      <point x="100" y="75"/>
      <point x="223" y="-18"/>
      <point x="436" y="-18" type="curve" smooth="yes"/>
      <point x="506" y="-18"/>
      <point x="569" y="-8"/>
    </contour>
  </outline>
</glyph>
<glyph name="uni0A36" format="1">
  <advance width="748"/>
  <unicode hex="0A36"/>
  <outline>
    <contour>
      <point x="553" y="680" type="move" name="abvm_bindu"/>
    </contour>
    <contour>
      <point x="584" y="0" type="move" name="blwm"/>
    </contour>
    <contour>
      <point x="553" y="690" type="move" name="abvm_candra"/>
    </contour>
    <contour>
      <point x="363" y="30" type="move" name="blwm_caret_1"/>
    </contour>
    <contour>
      <point x="363" y="40" type="move" name="blwm_nukta"/>
    </contour>
    <contour>
      <point x="583" y="670" type="move" name="abvm"/>
    </contour>
    <component base="uni0A38"/>
    <component base="uni0A3C" xOffset="364" yOffset="164"/>
  </outline>
</glyph>
<glyph name="uni0A38" format="1">
  <advance width="748"/>
  <unicode hex="0A38"/>
  <outline>
    <contour>
      <point x="554" y="680" type="move" name="abvm_bindu"/>
    </contour>
    <contour>
      <point x="585" y="0" type="move" name="blwm"/>
    </contour>
    <contour>
      <point x="554" y="690" type="move" name="abvm_candra"/>
    </contour>
    <contour>
      <point x="364" y="30" type="move" name="blwm_caret_1"/>
    </contour>
    <contour>
      <point x="364" y="40" type="move" name="blwm_nukta"/>
    </contour>
    <contour>
      <point x="584" y="670" type="move" name="abvm"/>
    </contour>
    <contour>
      <point x="748.0" y="530" type="line"/>
      <point x="748.0" y="694" type="line"/>
      <point x="0" y="694" type="line"/>
      <point x="0" y="530" type="line"/>
      <point x="36" y="530" type="line" smooth="yes"/>
      <point x="116" y="530"/>
      <point x="144" y="472"/>
      <point x="144" y="406" type="curve" smooth="yes"/>
      <point x="144.0" y="386.255207019"/>
      <point x="141.513668049" y="366.013147647"/>
      <point x="137.24232" y="346.37158" type="curve"/>
      <point x="58.6112313768" y="291.203851873"/>
      <point x="38.0" y="199.570899087"/>
      <point x="38.0" y="123.0" type="curve" smooth="yes"/>
      <point x="38" y="99"/>
      <point x="40" y="76"/>
      <point x="43" y="56" type="curve"/>
      <point x="223.0" y="25.0" type="line"/>
      <point x="259.080923502" y="68.7781871823"/>
      <point x="290.533107303" y="131.302770151"/>
      <point x="313.45967" y="197.0" type="curve"/>
      <point x="472.0" y="197.0" type="line"/>
      <point x="472.0" y="0" type="line"/>
      <point x="694" y="0" type="line"/>
      <point x="694" y="530" type="line"/>
    </contour>
    <contour>
      <point x="353.0" y="401.0" type="curve" smooth="yes"/>
      <point x="353.0" y="449.560220459"/>
      <point x="343.321150088" y="492.735728642"/>
      <point x="325.6362" y="530" type="curve"/>
      <point x="472.0" y="530" type="line"/>
      <point x="472.0" y="361.0" type="line"/>
      <point x="350.97325" y="361.0" type="line"/>
      <point x="352.307949871" y="374.906573657"/>
      <point x="353.0" y="388.324477352"/>
    </contour>
  </outline>
</glyph>
<glyph name="uni0A39" format="1">
  <advance width="661"/>
  <unicode hex="0A39"/>
  <outline>
    <contour>
      <point x="461" y="680" type="move" name="abvm_bindu"/>
    </contour>
    <contour>
      <point x="372" y="0" type="move" name="blwm"/>
    </contour>
    <contour>
      <point x="461" y="690" type="move" name="abvm_candra"/>
    </contour>
    <contour>
      <point x="399" y="30" type="move" name="blwm_caret_1"/>
    </contour>
    <contour>
      <point x="44" y="-36" type="move" name="blwm_nukta"/>
    </contour>
    <contour>
      <point x="491" y="670" type="move" name="abvm"/>
    </contour>
    <contour>
      <point x="374" y="-18" type="curve" smooth="yes"/>
      <point x="496" y="-18"/>
      <point x="606" y="46"/>
      <point x="606" y="179" type="curve"/>
      <point x="606" y="530" type="line"/>
      <point x="661" y="530" type="line"/>
      <point x="661" y="694" type="line"/>
      <point x="0" y="694" type="line"/>
      <point x="0" y="530" type="line"/>
      <point x="385.20339" y="530" type="line"/>
      <point x="386.0" y="201.0" type="line"/>
      <point x="386" y="168"/>
      <point x="381" y="146"/>
      <point x="342" y="146" type="curve" smooth="yes"/>
      <point x="298" y="146"/>
      <point x="240" y="175"/>
      <point x="240" y="236" type="curve" smooth="yes"/>
      <point x="240" y="270"/>
      <point x="258" y="288"/>
      <point x="340" y="288" type="curve"/>
      <point x="319" y="452.0" type="line"/>
      <point x="113" y="452"/>
      <point x="16" y="390"/>
      <point x="16" y="270" type="curve" smooth="yes"/>
      <point x="16" y="102"/>
      <point x="207" y="-18"/>
    </contour>
  </outline>
</glyph>
<glyph name="uni0A3C" format="1">
  <advance width="0"/>
  <unicode hex="0A3C"/>
  <outline>
    <contour>
      <point x="0" y="-124" type="move" name="_blwm_nukta"/>
    </contour>
    <contour>
      <point x="75" y="-124" type="curve" smooth="yes"/>
      <point x="75" y="-81"/>
      <point x="45" y="-52"/>
      <point x="0" y="-52" type="curve" smooth="yes"/>
      <point x="-44" y="-52"/>
      <point x="-74" y="-81"/>
      <point x="-74" y="-124" type="curve" smooth="yes"/>
      <point x="-74" y="-166"/>
      <point x="-44" y="-195"/>
      <point x="0" y="-195" type="curve" smooth="yes"/>
      <point x="45" y="-195"/>
      <point x="75" y="-166"/>
    </contour>
  </outline>
</glyph>
<glyph name="uni0A3E" format="1">
  <advance width="340"/>
  <unicode hex="0A3E"/>
  <outline>
    <contour>
      <point x="172" y="680" type="move" name="abvm_bindu"/>
    </contour>
    <contour>
      <point x="172" y="690" type="move" name="abvm_candra"/>
    </contour>
    <contour>
      <point x="172" y="670" type="move" name="abvm"/>
    </contour>
    <contour>
      <point x="284" y="248" type="line"/>
      <point x="284" y="530" type="line"/>
      <point x="340" y="530" type="line"/>
      <point x="340" y="694" type="line"/>
      <point x="0" y="694" type="line"/>
      <point x="0" y="530" type="line"/>
      <point x="62" y="530" type="line"/>
      <point x="62" y="248" type="line"/>
    </contour>
  </outline>
</glyph>
<glyph name="uni0A3F" format="1">
  <advance width="354"/>
  <unicode hex="0A3F"/>
  <outline>
    <contour>
      <point x="690" y="670" type="move" name="abvm_bindu"/>
    </contour>
    <contour>
      <point x="765" y="690" type="move" name="abvm_candra"/>
    </contour>
    <contour>
      <point x="300" y="530" type="line"/>
      <point x="354.0" y="530" type="line"/>
      <point x="354.0" y="694" type="line"/>
      <point x="300" y="694" type="line"/>
      <point x="300" y="730.0" type="line" smooth="yes"/>
      <point x="300" y="776"/>
      <point x="331" y="797"/>
      <point x="355" y="797" type="curve" smooth="yes"/>
      <point x="369" y="797"/>
      <point x="385" y="797"/>
      <point x="413" y="750" type="curve"/>
      <point x="555" y="822.0" type="line"/>
      <point x="508" y="925"/>
      <point x="413" y="957"/>
      <point x="324" y="957" type="curve" smooth="yes"/>
      <point x="210" y="957"/>
      <point x="87" y="885"/>
      <point x="87" y="749" type="curve" smooth="yes"/>
      <point x="87.0" y="694" type="line"/>
      <point x="0" y="694" type="line"/>
      <point x="0" y="530" type="line"/>
      <point x="78" y="530" type="line"/>
      <point x="78" y="0" type="line"/>
      <point x="300" y="0" type="line"/>
    </contour>
  </outline>
</glyph>
<glyph name="uni0A40" format="1">
  <advance width="318"/>
  <unicode hex="0A40"/>
  <outline>
    <contour>
      <point x="370" y="670" type="move" name="abvm_bindu"/>
    </contour>
    <contour>
      <point x="466" y="690" type="move" name="abvm_candra"/>
    </contour>
    <contour>
      <point x="318" y="530" type="line"/>
      <point x="318" y="694" type="line"/>
      <point x="263" y="694" type="line"/>
      <point x="263" y="700.0" type="line" smooth="yes"/>
      <point x="263" y="841"/>
      <point x="137" y="957"/>
      <point x="-29" y="957" type="curve" smooth="yes"/>
      <point x="-158" y="957"/>
      <point x="-233" y="906"/>
      <point x="-259" y="828" type="curve"/>
      <point x="-76" y="753.0" type="line"/>
      <point x="-60" y="774"/>
      <point x="-42" y="797"/>
      <point x="-10" y="797" type="curve" smooth="yes"/>
      <point x="40" y="797"/>
      <point x="51" y="758"/>
      <point x="51" y="715" type="curve" smooth="yes"/>
      <point x="51.0" y="694" type="line"/>
      <point x="-81" y="694" type="line"/>
      <point x="-81" y="530" type="line"/>
      <point x="42" y="530" type="line"/>
      <point x="42" y="0" type="line"/>
      <point x="264" y="0" type="line"/>
      <point x="264" y="530" type="line"/>
    </contour>
  </outline>
</glyph>
<glyph name="uni0A42" format="1">
  <advance width="0"/>
  <unicode hex="0A42"/>
  <outline>
    <contour>
      <point x="0" y="30" type="move" name="_blwm_caret_1"/>
    </contour>
    <contour>
      <point x="225" y="-142" type="curve"/>
      <point x="195" y="-35" type="line"/>
      <point x="133" y="-62"/>
      <point x="68" y="-76"/>
      <point x="0" y="-76" type="curve" smooth="yes"/>
      <point x="-67" y="-76"/>
      <point x="-132" y="-62"/>
      <point x="-194" y="-35" type="curve"/>
      <point x="-224" y="-142" type="line"/>
      <point x="-156" y="-176"/>
      <point x="-79" y="-190"/>
      <point x="0" y="-190" type="curve" smooth="yes"/>
      <point x="79" y="-190"/>
      <point x="156" y="-176"/>
    </contour>
    <contour>
      <point x="229" y="-288" type="curve"/>
      <point x="199" y="-181" type="line"/>
      <point x="137" y="-208"/>
      <point x="72" y="-222"/>
      <point x="4" y="-222" type="curve" smooth="yes"/>
      <point x="-63" y="-222"/>
      <point x="-128" y="-208"/>
      <point x="-190" y="-181" type="curve"/>
      <point x="-220" y="-288" type="line"/>
      <point x="-152" y="-322"/>
      <point x="-75" y="-336"/>
      <point x="4" y="-336" type="curve" smooth="yes"/>
      <point x="83" y="-336"/>
      <point x="160" y="-322"/>
    </contour>
  </outline>
</glyph>
<glyph name="uni0A47" format="1">
  <advance width="0"/>
  <unicode hex="0A47"/>
  <outline>
    <contour>
      <point x="0" y="684" type="move" name="_abvm"/>
    </contour>
    <contour>
      <point x="220" y="680" type="move" name="abvm_bindu"/>
    </contour>
    <contour>
      <point x="280" y="690" type="move" name="abvm_candra"/>
    </contour>
    <contour>
      <point x="280" y="670" type="move" name="abvm"/>
    </contour>
    <contour>
      <point x="84" y="641" type="line"/>
      <point x="84" y="851"/>
      <point x="-40" y="979"/>
      <point x="-252" y="979" type="curve" smooth="yes"/>
      <point x="-298" y="979"/>
      <point x="-345" y="972"/>
      <point x="-387" y="956" type="curve"/>
      <point x="-345" y="804" type="line"/>
      <point x="-301" y="813"/>
      <point x="-263" y="817"/>
      <point x="-229" y="817" type="curve" smooth="yes"/>
      <point x="-121" y="817"/>
      <point x="-89" y="764"/>
      <point x="-79" y="641" type="curve"/>
    </contour>
  </outline>
</glyph>
<glyph name="uni0A48" format="1">
  <advance width="0"/>
  <unicode hex="0A48"/>
  <outline>
    <contour>
      <point x="0" y="684" type="move" name="_abvm"/>
    </contour>
    <contour>
      <point x="220" y="680" type="move" name="abvm_bindu"/>
    </contour>
    <contour>
      <point x="280" y="690" type="move" name="abvm_candra"/>
    </contour>
    <contour>
      <point x="280" y="670" type="move" name="abvm"/>
    </contour>
    <contour>
      <point x="84" y="661" type="line"/>
      <point x="81" y="958"/>
      <point x="-49" y="1126"/>
      <point x="-289" y="1126" type="curve"/>
      <point x="-281" y="988.0" type="line"/>
      <point x="-156.032561932" y="988.0"/>
      <point x="-75.5849228868" y="935.946081142"/>
      <point x="-41.3576" y="819.33115" type="curve"/>
      <point x="-108.142752528" y="902.371341261"/>
      <point x="-221.296634199" y="948.0"/>
      <point x="-352.0" y="948.0" type="curve" smooth="yes"/>
      <point x="-410" y="948"/>
      <point x="-467" y="937"/>
      <point x="-518" y="915" type="curve"/>
      <point x="-475.0" y="774.0" type="line"/>
      <point x="-436" y="788"/>
      <point x="-379" y="796"/>
      <point x="-322" y="796" type="curve" smooth="yes"/>
      <point x="-189" y="796"/>
      <point x="-79" y="772"/>
      <point x="-79" y="661" type="curve"/>
    </contour>
  </outline>
</glyph>
<glyph name="uni0A4B" format="1">
  <advance width="0"/>
  <unicode hex="0A4B"/>
  <outline>
    <contour>
      <point x="0" y="684" type="move" name="_abvm"/>
    </contour>
    <contour>
      <point x="220" y="680" type="move" name="abvm_bindu"/>
    </contour>
    <contour>
      <point x="280" y="690" type="move" name="abvm_candra"/>
    </contour>
    <contour>
      <point x="280" y="670" type="move" name="abvm"/>
    </contour>
    <contour>
      <point x="84" y="653" type="line"/>
      <point x="84" y="657" type="line"/>
      <point x="84" y="842"/>
      <point x="-16" y="981"/>
      <point x="-173" y="981" type="curve" smooth="yes"/>
      <point x="-241" y="981"/>
      <point x="-252" y="949"/>
      <point x="-303" y="949" type="curve" smooth="yes"/>
      <point x="-339" y="949"/>
      <point x="-366" y="964"/>
      <point x="-399" y="995" type="curve"/>
      <point x="-522" y="886" type="line"/>
      <point x="-466" y="819"/>
      <point x="-387" y="787"/>
      <point x="-304" y="787" type="curve" smooth="yes"/>
      <point x="-219" y="787"/>
      <point x="-211" y="819"/>
      <point x="-163" y="819" type="curve" smooth="yes"/>
      <point x="-124" y="819"/>
      <point x="-83" y="796"/>
      <point x="-79" y="658" type="curve"/>
      <point x="-79" y="653" type="line"/>
    </contour>
  </outline>
</glyph>
<glyph name="uni0A4C" format="1">
  <advance width="0"/>
  <unicode hex="0A4C"/>
  <outline>
    <contour>
      <point x="0" y="684" type="move" name="_abvm"/>
    </contour>
    <contour>
      <point x="330" y="680" type="move" name="abvm_bindu"/>
    </contour>
    <contour>
      <point x="400" y="690" type="move" name="abvm_candra"/>
    </contour>
    <contour>
      <point x="400" y="670" type="move" name="abvm"/>
    </contour>
    <contour>
      <point x="9" y="880" type="curve" smooth="yes"/>
      <point x="94" y="880"/>
      <point x="86" y="778"/>
      <point x="86" y="767" type="curve"/>
      <point x="193.0" y="767.0" type="line"/>
      <point x="193" y="798"/>
      <point x="188" y="984"/>
      <point x="6" y="984" type="curve" smooth="yes"/>
      <point x="1.95767" y="983.93358" type="line"/>
      <point x="2" y="984.0" type="line"/>
      <point x="-117" y="984"/>
      <point x="-180" y="958"/>
      <point x="-270" y="958" type="curve" smooth="yes"/>
      <point x="-308" y="958"/>
      <point x="-324" y="964"/>
      <point x="-361" y="1009" type="curve"/>
      <point x="-484.0" y="900.0" type="line"/>
      <point x="-432" y="831"/>
      <point x="-357" y="799"/>
      <point x="-278" y="799" type="curve" smooth="yes"/>
      <point x="-228.9924252" y="799.0"/>
      <point x="-196.323233991" y="811.556350352"/>
      <point x="-170.51907" y="826.91472" type="curve"/>
      <point x="-174.838976368" y="800.729802158"/>
      <point x="-175.0" y="778.349841669"/>
      <point x="-175.0" y="767.0" type="curve"/>
      <point x="-69" y="767.0" type="line"/>
      <point x="-69" y="776"/>
      <point x="-76" y="880"/>
    </contour>
  </outline>
</glyph>
<glyph name="uni0A4D" format="1">
  <advance width="0"/>
  <unicode hex="0A4D"/>
  <outline>
    <contour>
      <point x="0" y="0" type="move" name="_blwm"/>
    </contour>
    <contour>
      <point x="309" y="-293" type="line"/>
      <point x="220" y="-153"/>
      <point x="86" y="-71"/>
      <point x="-149" y="-76" type="curve"/>
      <point x="-158" y="-191" type="line"/>
      <point x="30" y="-187"/>
      <point x="122" y="-245"/>
      <point x="198" y="-354" type="curve"/>
    </contour>
  </outline>
</glyph>
<glyph name="uni0A51" format="1">
  <advance width="0"/>
  <unicode hex="0A51"/>
  <outline>
    <contour>
      <point x="0" y="0" type="move" name="_blwm"/>
    </contour>
    <contour>
      <point x="223" y="-246" type="line"/>
      <point x="51" y="-240"/>
      <point x="-22" y="-187"/>
      <point x="-35" y="-71" type="curve"/>
      <point x="-174" y="-86" type="line"/>
      <point x="-153" y="-285"/>
      <point x="-33" y="-396"/>
      <point x="211" y="-395" type="curve"/>
    </contour>
  </outline>
</glyph>
<glyph name="uni0A5B" format="1">
  <advance width="788"/>
  <unicode hex="0A5B"/>
  <outline>
    <contour>
      <point x="591" y="680" type="move" name="abvm_bindu"/>
    </contour>
    <contour>
      <point x="625" y="0" type="move" name="blwm"/>
    </contour>
    <contour>
      <point x="591" y="690" type="move" name="abvm_candra"/>
    </contour>
    <contour>
      <point x="433" y="-6" type="move" name="blwm_caret_1"/>
    </contour>
    <contour>
      <point x="433" y="-16" type="move" name="blwm_nukta"/>
    </contour>
    <contour>
      <point x="621" y="670" type="move" name="abvm"/>
    </contour>
    <component base="uni0A1C"/>
    <component base="uni0A3C" xOffset="440" yOffset="-25"/>
  </outline>
</glyph>
<glyph name="uni0A5C" format="1">
  <advance width="608"/>
  <unicode hex="0A5C"/>
  <outline>
    <contour>
      <point x="473" y="680" type="move" name="abvm_bindu"/>
    </contour>
    <contour>
      <point x="334" y="22" type="move" name="blwm"/>
    </contour>
    <contour>
      <point x="473" y="690" type="move" name="abvm_candra"/>
    </contour>
    <contour>
      <point x="334" y="66" type="move" name="blwm_caret_1"/>
    </contour>
    <contour>
      <point x="453" y="670" type="move" name="abvm"/>
    </contour>
    <contour>
      <point x="212.0" y="31.0" type="line" smooth="yes"/>
      <point x="212" y="55"/>
      <point x="223" y="65"/>
      <point x="245" y="65" type="curve" smooth="yes"/>
      <point x="279" y="65"/>
      <point x="291" y="41"/>
      <point x="357" y="41" type="curve" smooth="yes"/>
      <point x="359.15629" y="41.01697" type="line"/>
      <point x="383.0" y="2" type="line"/>
      <point x="572" y="0" type="line"/>
      <point x="574" y="19" type="line"/>
      <point x="526.86949" y="97.97544" type="line"/>
      <point x="561.94399461" y="131.059387267"/>
      <point x="581.0" y="170.759293274"/>
      <point x="581.0" y="213.0" type="curve" smooth="yes"/>
      <point x="581.0" y="261.965249846"/>
      <point x="555.342019938" y="312.355943029"/>
      <point x="502.82266" y="349.12007" type="curve"/>
      <point x="547.715253061" y="395.841920376"/>
      <point x="559.696402645" y="454.512831831"/>
      <point x="559.99426" y="530" type="curve"/>
      <point x="608" y="530" type="line"/>
      <point x="608" y="694" type="line"/>
      <point x="0" y="694" type="line"/>
      <point x="0" y="530" type="line"/>
      <point x="338.99049" y="530" type="line"/>
      <point x="339.0" y="493.992672738"/>
      <point x="337.43459714" y="469.073971218"/>
      <point x="322.99598" y="453.35459" type="curve"/>
      <point x="284.870573789" y="467.19321592"/>
      <point x="241.435286894" y="473.0"/>
      <point x="198.0" y="473.0" type="curve" smooth="yes"/>
      <point x="147" y="473"/>
      <point x="97" y="465"/>
      <point x="63" y="452" type="curve"/>
      <point x="76" y="291" type="line"/>
      <point x="115" y="277"/>
      <point x="160" y="271"/>
      <point x="211" y="271" type="curve" smooth="yes"/>
      <point x="254.487482561" y="271.0"/>
      <point x="299.661494081" y="275.497410558"/>
      <point x="344.41448" y="284.49752" type="curve"/>
      <point x="356.143886461" y="272.517903911"/>
      <point x="367.0" y="254.385266198"/>
      <point x="367.0" y="235.0" type="curve" smooth="yes"/>
      <point x="367" y="215"/>
      <point x="356" y="190"/>
      <point x="324" y="190" type="curve" smooth="yes"/>
      <point x="286" y="190"/>
      <point x="272" y="227"/>
      <point x="195" y="227" type="curve" smooth="yes"/>
      <point x="92" y="227"/>
      <point x="19" y="161"/>
      <point x="19" y="44" type="curve" smooth="yes"/>
      <point x="19" y="0" type="line"/>
      <point x="212.0" y="0" type="line"/>
    </contour>
  </outline>
</glyph>
<glyph name="uni0A5E" format="1">
  <advance width="672"/>
  <unicode hex="0A5E"/>
  <outline>
    <contour>
      <point x="443" y="680" type="move" name="abvm_bindu"/>
    </contour>
    <contour>
      <point x="378" y="0" type="move" name="blwm"/>
    </contour>
    <contour>
      <point x="443" y="690" type="move" name="abvm_candra"/>
    </contour>
    <contour>
      <point x="405" y="30" type="move" name="blwm_caret_1"/>
    </contour>
    <contour>
      <point x="67" y="-49" type="move" name="blwm_nukta"/>
    </contour>
    <contour>
      <point x="473" y="670" type="move" name="abvm"/>
    </contour>
    <component base="uni0A2B"/>
    <component base="uni0A3C" xOffset="56" yOffset="76"/>
  </outline>
</glyph>
<glyph name="uni0A66" format="1">
  <advance width="777"/>
  <unicode hex="0A66"/>
  <outline>
    <contour>
      <point x="731" y="342" type="curve" smooth="yes"/>
      <point x="731" y="500"/>
      <point x="614" y="654"/>
      <point x="382" y="654" type="curve" smooth="yes"/>
      <point x="156" y="654"/>
      <point x="46" y="508"/>
      <point x="46" y="356" type="curve" smooth="yes"/>
      <point x="46" y="198"/>
      <point x="165" y="43"/>
      <point x="396" y="43" type="curve" smooth="yes"/>
      <point x="621" y="43"/>
      <point x="731" y="190"/>
    </contour>
    <contour>
      <point x="270" y="348" type="curve" smooth="yes"/>
      <point x="270" y="418"/>
      <point x="310" y="487"/>
      <point x="390" y="487" type="curve" smooth="yes"/>
      <point x="470" y="487"/>
      <point x="509" y="418"/>
      <point x="509" y="348" type="curve" smooth="yes"/>
      <point x="509" y="279"/>
      <point x="470" y="209"/>
      <point x="390" y="209" type="curve" smooth="yes"/>
      <point x="310" y="209"/>
      <point x="270" y="279"/>
    </contour>
  </outline>
</glyph>
<glyph name="uni0A68" format="1">
  <advance width="632"/>
  <unicode hex="0A68"/>
  <outline>
    <contour>
      <point x="619" y="0" type="line"/>
      <point x="619.0" y="79.7458628834"/>
      <point x="588.753138421" y="187.218015548"/>
      <point x="496.68389" y="261.55996" type="curve"/>
      <point x="547.978609332" y="319.984774272"/>
      <point x="572.0" y="384.618389823"/>
      <point x="572.0" y="447.0" type="curve" smooth="yes"/>
      <point x="572" y="590"/>
      <point x="445" y="719"/>
      <point x="242" y="719" type="curve" smooth="yes"/>
      <point x="162" y="719"/>
      <point x="81" y="694"/>
      <point x="19" y="646" type="curve"/>
      <point x="103.0" y="501.0" type="line"/>
      <point x="150" y="528"/>
      <point x="211" y="547"/>
      <point x="260" y="547" type="curve" smooth="yes"/>
      <point x="333" y="547"/>
      <point x="367" y="504"/>
      <point x="367" y="457" type="curve" smooth="yes"/>
      <point x="367.0" y="420.497417277"/>
      <point x="345.286186667" y="381.36285718"/>
      <point x="301.85856" y="358.84592" type="curve"/>
      <point x="266.467974033" y="370.408195569"/>
      <point x="231.05796257" y="377.0"/>
      <point x="194.0" y="377.0" type="curve" smooth="yes"/>
      <point x="149" y="377"/>
      <point x="105" y="367"/>
      <point x="67" y="349" type="curve"/>
      <point x="80" y="187.0" type="line"/>
      <point x="113" y="175"/>
      <point x="153" y="169"/>
      <point x="202" y="169" type="curve" smooth="yes"/>
      <point x="247.358226594" y="169.0"/>
      <point x="299.276940177" y="174.248389591"/>
      <point x="346.06581" y="186.87885" type="curve"/>
      <point x="391.731864904" y="159.206197374"/>
      <point x="398.0" y="97.5761122293"/>
      <point x="398.0" y="45.0" type="curve"/>
      <point x="398.0" y="0" type="line"/>
    </contour>
  </outline>
</glyph>
<glyph name="uni0A69" format="1">
  <advance width="659"/>
  <unicode hex="0A69"/>
  <outline>
    <contour>
      <point x="350.0" y="-119.0" type="line"/>
      <point x="369.20844" y="-14.50606" type="line"/>
      <point x="524.887700922" y="0.835579432861"/>
      <point x="609.0" y="85.0180441391"/>
      <point x="609.0" y="179.0" type="curve" smooth="yes"/>
      <point x="609.0" y="245.433779512"/>
      <point x="566.630908221" y="297.744528432"/>
      <point x="488.1477" y="336.62613" type="curve"/>
      <point x="551.78026845" y="367.156352758"/>
      <point x="597.0" y="413.510727812"/>
      <point x="597.0" y="491.0" type="curve" smooth="yes"/>
      <point x="597" y="641"/>
      <point x="428" y="717"/>
      <point x="276" y="717" type="curve" smooth="yes"/>
      <point x="192" y="717"/>
      <point x="111" y="694"/>
      <point x="48" y="646" type="curve"/>
      <point x="132" y="505.0" type="line"/>
      <point x="169" y="526"/>
      <point x="239" y="547"/>
      <point x="296" y="547" type="curve" smooth="yes"/>
      <point x="344" y="547"/>
      <point x="382" y="532"/>
      <point x="382" y="491" type="curve" smooth="yes"/>
      <point x="382.0" y="461.334042419"/>
      <point x="363.484412062" y="437.454206069"/>
      <point x="318.09076" y="429.51383" type="curve"/>
      <point x="277.892139714" y="441.868147215"/>
      <point x="246.036334541" y="446.0"/>
      <point x="213.0" y="446.0" type="curve" smooth="yes"/>
      <point x="181" y="446"/>
      <point x="149" y="442"/>
      <point x="119" y="434" type="curve"/>
      <point x="132" y="272" type="line"/>
      <point x="167" y="260"/>
      <point x="209" y="255"/>
      <point x="249" y="255" type="curve" smooth="yes"/>
      <point x="288.902114496" y="255.0"/>
      <point x="327.712199678" y="259.914131918"/>
      <point x="365.02679" y="268.93601" type="curve"/>
      <point x="384.470663035" y="257.306001404"/>
      <point x="394.0" y="238.917704507"/>
      <point x="394.0" y="220.0" type="curve" smooth="yes"/>
      <point x="394.0" y="189.321030099"/>
      <point x="371.058269642" y="156.289062213"/>
      <point x="327.43067" y="142.59834" type="curve"/>
      <point x="278.730717783" y="190.867420076"/>
      <point x="184.636096481" y="212.92516512"/>
      <point x="99.0" y="223.0" type="curve"/>
      <point x="43" y="88.0" type="line"/>
      <point x="67" y="52"/>
      <point x="108" y="21"/>
      <point x="151" y="4" type="curve"/>
      <point x="129" y="-102.0" type="line"/>
      <point x="129" y="-119.0" type="line"/>
    </contour>
  </outline>
</glyph>
<glyph name="uni0A6A" format="1">
  <advance width="719"/>
  <unicode hex="0A6A"/>
  <outline>
    <contour>
      <point x="362" y="-10" type="curve" smooth="yes"/>
      <point x="540" y="-10"/>
      <point x="655" y="63"/>
      <point x="655" y="167" type="curve" smooth="yes"/>
      <point x="655.0" y="220.630284105"/>
      <point x="626.912037371" y="264.42978129"/>
      <point x="577.7972" y="299.57466" type="curve"/>
      <point x="636.186508604" y="343.256886125"/>
      <point x="674.0" y="406.809076512"/>
      <point x="674.0" y="480.0" type="curve" smooth="yes"/>
      <point x="674" y="612"/>
      <point x="550" y="691"/>
      <point x="408" y="710" type="curve"/>
      <point x="389.0" y="543" type="line"/>
      <point x="421" y="535"/>
      <point x="450" y="519"/>
      <point x="450" y="483" type="curve" smooth="yes"/>
      <point x="450" y="438"/>
      <point x="406" y="413"/>
      <point x="360" y="413" type="curve" smooth="yes"/>
      <point x="313" y="413"/>
      <point x="269" y="438"/>
      <point x="269" y="482" type="curve" smooth="yes"/>
      <point x="269" y="515"/>
      <point x="293" y="534"/>
      <point x="329" y="543" type="curve"/>
      <point x="309" y="710.0" type="line"/>
      <point x="167" y="695"/>
      <point x="45" y="615"/>
      <point x="45" y="498" type="curve" smooth="yes"/>
      <point x="45.0" y="431.053689149"/>
      <point x="84.4967905002" y="381.342341425"/>
      <point x="141.58245" y="348.27036" type="curve"/>
      <point x="97.8132028028" y="310.088799887"/>
      <point x="63.0" y="254.84660041"/>
      <point x="63.0" y="188.0" type="curve" smooth="yes"/>
      <point x="63" y="64"/>
      <point x="182" y="-10"/>
    </contour>
    <contour>
      <point x="284" y="199" type="curve" smooth="yes"/>
      <point x="284" y="233"/>
      <point x="310" y="266"/>
      <point x="360" y="266" type="curve" smooth="yes"/>
      <point x="413" y="266"/>
      <point x="440" y="232"/>
      <point x="440" y="199" type="curve" smooth="yes"/>
      <point x="440" y="165"/>
      <point x="414" y="132"/>
      <point x="363" y="132" type="curve" smooth="yes"/>
      <point x="310" y="132"/>
      <point x="284" y="166"/>
    </contour>
  </outline>
</glyph>
<glyph name="uni0A6D" format="1">
  <advance width="738"/>
  <unicode hex="0A6D"/>
  <outline>
    <contour>
      <point x="100" y="487" type="curve" smooth="yes"/>
      <point x="100" y="441"/>
      <point x="111" y="392"/>
      <point x="131" y="346" type="curve"/>
      <point x="328" y="414" type="line"/>
      <point x="320" y="434"/>
      <point x="315" y="456"/>
      <point x="315" y="477" type="curve" smooth="yes"/>
      <point x="315" y="513"/>
      <point x="331" y="544"/>
      <point x="374" y="544" type="curve" smooth="yes"/>
      <point x="445" y="544"/>
      <point x="476" y="456"/>
      <point x="476" y="372" type="curve" smooth="yes"/>
      <point x="476" y="224"/>
      <point x="380" y="148"/>
      <point x="255" y="148" type="curve" smooth="yes"/>
      <point x="202" y="148"/>
      <point x="138" y="162"/>
      <point x="69" y="187" type="curve"/>
      <point x="26" y="32" type="line"/>
      <point x="115" y="-2"/>
      <point x="205" y="-18"/>
      <point x="283" y="-18" type="curve" smooth="yes"/>
      <point x="485" y="-18"/>
      <point x="687" y="90"/>
      <point x="687" y="354" type="curve" smooth="yes"/>
      <point x="687" y="560"/>
      <point x="565" y="715"/>
      <point x="356" y="715" type="curve" smooth="yes"/>
      <point x="177" y="715"/>
      <point x="100" y="610"/>
    </contour>
  </outline>
</glyph>
<glyph name="uni0A6E" format="1">
  <advance width="770"/>
  <unicode hex="0A6E"/>
  <outline>
    <contour>
      <point x="725" y="27" type="curve"/>
      <point x="682" y="182" type="line"/>
      <point x="627" y="164"/>
      <point x="568" y="148"/>
      <point x="510" y="148" type="curve" smooth="yes"/>
      <point x="431" y="148"/>
      <point x="364" y="175"/>
      <point x="364" y="256" type="curve" smooth="yes"/>
      <point x="364" y="426" type="line"/>
      <point x="691" y="426" type="line"/>
      <point x="692" y="590" type="line"/>
      <point x="329" y="590" type="line"/>
      <point x="278" y="645"/>
      <point x="150" y="671"/>
      <point x="64" y="678" type="curve"/>
      <point x="-3" y="544" type="line"/>
      <point x="40" y="489"/>
      <point x="99" y="457"/>
      <point x="156" y="439" type="curve"/>
      <point x="156" y="276" type="line" smooth="yes"/>
      <point x="156" y="104"/>
      <point x="342" y="-18"/>
      <point x="526" y="-18" type="curve" smooth="yes"/>
      <point x="597" y="-18"/>
      <point x="666" y="-2"/>
    </contour>
  </outline>
</glyph>
<glyph name="uni0A70" format="1">
  <advance width="0"/>
  <unicode hex="0A70"/>
  <outline>
    <contour>
      <point x="0" y="692" type="move" name="_abvm_candra"/>
    </contour>
    <contour>
      <point x="0" y="650" type="move" name="abvm_bindu"/>
    </contour>
    <contour>
      <point x="-79" y="755" type="line"/>
      <point x="-79" y="764"/>
      <point x="-86" y="868"/>
      <point x="-1" y="868" type="curve" smooth="yes"/>
      <point x="84" y="868"/>
      <point x="76" y="766"/>
      <point x="76" y="755" type="curve"/>
      <point x="183" y="755" type="line"/>
      <point x="183" y="786"/>
      <point x="178" y="972"/>
      <point x="-4" y="972" type="curve" smooth="yes"/>
      <point x="-183" y="972"/>
      <point x="-185" y="795"/>
      <point x="-185" y="755" type="curve"/>
    </contour>
  </outline>
</glyph>
<glyph name="uni0A72" format="1">
  <advance width="653"/>
  <unicode hex="0A72"/>
  <outline>
    <contour>
      <point x="453" y="680" type="move" name="abvm_bindu"/>
    </contour>
    <contour>
      <point x="410" y="2" type="move" name="blwm"/>
    </contour>
    <contour>
      <point x="453" y="690" type="move" name="abvm_candra"/>
    </contour>
    <contour>
      <point x="412" y="30" type="move" name="blwm_caret_1"/>
    </contour>
    <contour>
      <point x="113" y="-65" type="move" name="blwm_nukta"/>
    </contour>
    <contour>
      <point x="483" y="670" type="move" name="abvm"/>
    </contour>
    <contour>
      <point x="377.0" y="432.69562" type="line"/>
      <point x="300.1583941" y="438.275489791"/>
      <point x="261.211630901" y="478.306325687"/>
      <point x="249.00844" y="530" type="curve"/>
      <point x="377.0" y="530" type="line"/>
    </contour>
    <contour>
      <point x="620" y="27" type="curve"/>
      <point x="577" y="182.0" type="line"/>
      <point x="523" y="164"/>
      <point x="449" y="146"/>
      <point x="380" y="146" type="curve" smooth="yes"/>
      <point x="322.628391134" y="146.0"/>
      <point x="269.287192272" y="158.762965015"/>
      <point x="234.29071" y="193.12995" type="curve"/>
      <point x="291.714534629" y="249.836975413"/>
      <point x="391.777262089" y="274.0"/>
      <point x="536.0" y="274.0" type="curve" smooth="yes"/>
      <point x="599" y="274" type="line"/>
      <point x="599" y="530" type="line"/>
      <point x="653" y="530" type="line"/>
      <point x="653" y="694" type="line"/>
      <point x="-26.0" y="694" type="line"/>
      <point x="-26.0" y="530" type="line"/>
      <point x="27.86732" y="530" type="line"/>
      <point x="40.905351524" y="469.18955011"/>
      <point x="86.4823789696" y="411.231811993"/>
      <point x="158.0891" y="370.41805" type="curve"/>
      <point x="106.976166003" y="332.926243839"/>
      <point x="54.0211143296" y="293.303439025"/>
      <point x="16.0" y="238.0" type="curve"/>
      <point x="72" y="50"/>
      <point x="262" y="-18"/>
      <point x="411" y="-18" type="curve" smooth="yes"/>
      <point x="481" y="-18"/>
      <point x="554" y="-3"/>
    </contour>
  </outline>
</glyph>
<glyph name="uni0A73" format="1">
  <advance width="694"/>
  <unicode hex="0A73"/>
  <outline>
    <contour>
      <point x="723" y="680" type="move" name="abvm_bindu"/>
    </contour>
    <contour>
      <point x="421" y="2" type="move" name="blwm"/>
    </contour>
    <contour>
      <point x="869" y="650" type="move" name="abvm_candra"/>
    </contour>
    <contour>
      <point x="423" y="30" type="move" name="blwm_caret_1"/>
    </contour>
    <contour>
      <point x="92" y="-24" type="move" name="blwm_nukta"/>
    </contour>
    <contour>
      <point x="349.0" y="797.0" type="curve" smooth="yes"/>
      <point x="396.166521833" y="797.0"/>
      <point x="431.384074623" y="764.41190261"/>
      <point x="446.6471" y="694" type="curve"/>
      <point x="257.44631" y="694" type="line"/>
      <point x="273.428452177" y="762.838595239"/>
      <point x="303.153669909" y="797.0"/>
    </contour>
    <contour>
      <point x="243.0" y="528.0" type="curve" smooth="yes"/>
      <point x="243.00601" y="530" type="line"/>
      <point x="448.87098" y="530" type="line"/>
      <point x="434.537990593" y="462.395079069"/>
      <point x="390.164074366" y="423.0"/>
      <point x="267.0" y="423.0" type="curve" smooth="yes"/>
      <point x="246.05813" y="423.0" type="line"/>
      <point x="243.630915779" y="460.08872751"/>
      <point x="243.0" y="496.276834973"/>
    </contour>
    <contour>
      <point x="663" y="154" type="curve" smooth="yes"/>
      <point x="663.0" y="212.061738131"/>
      <point x="625.473112044" y="276.377957587"/>
      <point x="550.84808" y="322.06969" type="curve"/>
      <point x="634.705088611" y="379.437307506"/>
      <point x="661.512984204" y="448.047073389"/>
      <point x="667.54607" y="530" type="curve"/>
      <point x="720.0" y="530" type="line"/>
      <point x="720.0" y="694" type="line"/>
      <point x="654.54895" y="694" type="line"/>
      <point x="613.872009381" y="855.723536193"/>
      <point x="490.496414763" y="963.0"/>
      <point x="325.0" y="963.0" type="curve" smooth="yes"/>
      <point x="193.554694061" y="963.0"/>
      <point x="82.1061495742" y="887.678865197"/>
      <point x="45.61845" y="694" type="curve"/>
      <point x="-26.0" y="694" type="line"/>
      <point x="-26.0" y="530" type="line"/>
      <point x="33.10776" y="530" type="line"/>
      <point x="36.8469728501" y="265.953888921"/>
      <point x="138.42454197" y="-18.0"/>
      <point x="420.0" y="-18.0" type="curve" smooth="yes"/>
      <point x="577" y="-18"/>
      <point x="663" y="66"/>
    </contour>
    <contour>
      <point x="391" y="148" type="curve" smooth="yes"/>
      <point x="324.68100086" y="148.0"/>
      <point x="287.804063554" y="204.953496663"/>
      <point x="267.44691" y="280" type="curve"/>
      <point x="338" y="280" type="line" smooth="yes"/>
      <point x="398" y="280"/>
      <point x="445" y="231"/>
      <point x="445" y="192" type="curve" smooth="yes"/>
      <point x="445" y="172"/>
      <point x="435" y="148"/>
    </contour>
  </outline>
</glyph>
<glyph name="uni0A74" format="1">
  <advance width="1499"/>
  <unicode hex="0A74"/>
  <outline>
    <contour>
      <point x="635" y="-24" type="curve"/>
      <point x="694" y="130" type="line"/>
      <point x="656" y="140"/>
      <point x="634" y="169"/>
      <point x="634" y="205" type="curve" smooth="yes"/>
      <point x="634" y="368.0" type="line" smooth="yes"/>
      <point x="634" y="599"/>
      <point x="472" y="715"/>
      <point x="299" y="715" type="curve" smooth="yes"/>
      <point x="127" y="715"/>
      <point x="38" y="600"/>
      <point x="38" y="478" type="curve" smooth="yes"/>
      <point x="38" y="347"/>
      <point x="142" y="210"/>
      <point x="338" y="210" type="curve" smooth="yes"/>
      <point x="362.755625048" y="210.0"/>
      <point x="390.325028661" y="212.251022852"/>
      <point x="419.01956" y="217.18143" type="curve"/>
      <point x="419" y="81"/>
      <point x="518" y="0"/>
    </contour>
    <contour>
      <point x="243" y="462" type="curve" smooth="yes"/>
      <point x="243" y="504"/>
      <point x="272" y="547"/>
      <point x="330" y="547" type="curve" smooth="yes"/>
      <point x="389" y="547"/>
      <point x="419" y="502"/>
      <point x="419" y="458" type="curve" smooth="yes"/>
      <point x="419" y="416"/>
      <point x="391" y="375"/>
      <point x="333" y="375" type="curve" smooth="yes"/>
      <point x="273" y="375"/>
      <point x="243" y="418"/>
    </contour>
    <contour>
      <point x="887.0" y="528.0" type="curve" smooth="yes"/>
      <point x="887.00288" y="530" type="line"/>
      <point x="1091.48364" y="530" type="line"/>
      <point x="1074.73660473" y="462.89234038"/>
      <point x="1027.47877345" y="427.0"/>
      <point x="911.0" y="427.0" type="curve" smooth="yes"/>
      <point x="890.14508" y="427.0" type="line"/>
      <point x="887.674614457" y="463.430462153"/>
      <point x="887.0" y="498.365502157"/>
    </contour>
    <contour>
      <point x="1307" y="158" type="curve" smooth="yes"/>
      <point x="1307.0" y="215.93558953"/>
      <point x="1272.32507713" y="279.265055951"/>
      <point x="1202.29883" y="327.67904" type="curve"/>
      <point x="1277.71292856" y="387.637206161"/>
      <point x="1304.5861094" y="453.695989032"/>
      <point x="1311.68515" y="530" type="curve"/>
      <point x="1367" y="530" type="line"/>
      <point x="1367" y="694" type="line"/>
      <point x="901.45326" y="694" type="line"/>
      <point x="923.01812377" y="785.513279983"/>
      <point x="975.028652489" y="854.541382106"/>
      <point x="1096.55149" y="881.09423" type="curve"/>
      <point x="1141.02987335" y="828.708261318"/>
      <point x="1226.85124106" y="803.0"/>
      <point x="1309.0" y="803.0" type="curve" smooth="yes"/>
      <point x="1342" y="803"/>
      <point x="1374" y="807"/>
      <point x="1402" y="815" type="curve"/>
      <point x="1470.0" y="938.0" type="line"/>
      <point x="1395.90012004" y="990.559217178"/>
      <point x="1281.71062688" y="1037.1792324"/>
      <point x="1219.54425" y="1047.15164" type="curve"/>
      <point x="1228.80518807" y="1096.19480599"/>
      <point x="1279.04569188" y="1140.0"/>
      <point x="1352.0" y="1140.0" type="curve" smooth="yes"/>
      <point x="1417" y="1140"/>
      <point x="1509" y="1105"/>
      <point x="1570" y="1028" type="curve"/>
      <point x="1713.0" y="1102" type="line"/>
      <point x="1622" y="1237"/>
      <point x="1467" y="1296"/>
      <point x="1342" y="1296" type="curve" smooth="yes"/>
      <point x="1162" y="1296"/>
      <point x="1044" y="1174"/>
      <point x="1044" y="1047" type="curve"/>
      <point x="1044" y="1044.864" type="line"/>
      <point x="822.056695383" y="1012.19532882"/>
      <point x="677.0" y="864.315194867"/>
      <point x="677.0" y="541.0" type="curve" smooth="yes"/>
      <point x="677" y="281"/>
      <point x="771" y="-18"/>
      <point x="1064" y="-18" type="curve" smooth="yes"/>
      <point x="1220" y="-18"/>
      <point x="1307" y="66"/>
    </contour>
    <contour>
      <point x="1035" y="148" type="curve" smooth="yes"/>
      <point x="968.975333094" y="148.0"/>
      <point x="932.083590937" y="207.479721365"/>
      <point x="911.64504" y="284" type="curve"/>
      <point x="982.0" y="284" type="line" smooth="yes"/>
      <point x="1042" y="284"/>
      <point x="1089" y="235"/>
      <point x="1089" y="193" type="curve" smooth="yes"/>
      <point x="1089" y="173"/>
      <point x="1078" y="148"/>
    </contour>
  </outline>
</glyph>
<glyph name="uni0A75" format="1">
  <advance width="0"/>
  <unicode hex="0A75"/>
  <outline>
    <contour>
      <point x="0" y="0" type="move" name="_blwm"/>
    </contour>
    <contour>
      <point x="123" y="-308" type="move" name="blwm"/>
    </contour>
    <contour>
      <point x="122" y="-280" type="move" name="blwm_caret_1"/>
    </contour>
    <contour>
      <point x="266" y="-184" type="curve"/>
      <point x="149" y="-163" type="line"/>
      <point x="133" y="-236"/>
      <point x="120" y="-258"/>
      <point x="92" y="-258" type="curve" smooth="yes"/>
      <point x="62" y="-258"/>
      <point x="52" y="-235"/>
      <point x="52" y="-201" type="curve"/>
      <point x="55" y="-62" type="line"/>
      <point x="-60" y="-62" type="line"/>
      <point x="-60" y="-176" type="line"/>
      <point x="-60" y="-291"/>
      <point x="23" y="-343"/>
      <point x="111" y="-343" type="curve" smooth="yes"/>
      <point x="209" y="-343"/>
      <point x="250" y="-279"/>
    </contour>
  </outline>
</glyph>
<glyph name="endash" format="1">
  <advance width="410"/>
  <unicode hex="2013"/>
  <outline>
    <contour>
      <point x="0" y="342" type="line"/>
      <point x="0" y="211" type="line"/>
      <point x="410" y="211" type="line"/>
      <point x="410" y="342" type="line"/>
    </contour>
  </outline>
</glyph>
